<?xml version="1.0" encoding="utf-8" standalone="no"?>
<!DOCTYPE svg PUBLIC "-//W3C//DTD SVG 1.1//EN"
  "http://www.w3.org/Graphics/SVG/1.1/DTD/svg11.dtd">
<svg xmlns:xlink="http://www.w3.org/1999/xlink" width="310.351562pt" height="584.9272pt" viewBox="0 0 310.351562 584.9272" xmlns="http://www.w3.org/2000/svg" version="1.1">
 <metadata>
  <rdf:RDF xmlns:dc="http://purl.org/dc/elements/1.1/" xmlns:cc="http://creativecommons.org/ns#" xmlns:rdf="http://www.w3.org/1999/02/22-rdf-syntax-ns#">
   <cc:Work>
    <dc:type rdf:resource="http://purl.org/dc/dcmitype/StillImage"/>
    <dc:date>2023-02-17T14:54:25.867971</dc:date>
    <dc:format>image/svg+xml</dc:format>
    <dc:creator>
     <cc:Agent>
      <dc:title>Matplotlib v3.6.3, https://matplotlib.org/</dc:title>
     </cc:Agent>
    </dc:creator>
   </cc:Work>
  </rdf:RDF>
 </metadata>
 <defs>
  <style type="text/css">*{stroke-linejoin: round; stroke-linecap: butt}</style>
 </defs>
 <g id="figure_1">
  <g id="patch_1">
   <path d="M 0 584.9272 
L 310.351562 584.9272 
L 310.351562 0 
L 0 0 
z
" style="fill: #ffffff"/>
  </g>
  <g id="axes_1">
   <g id="patch_2">
    <path d="M 64.8 145.7272 
L 295.2 145.7272 
L 295.2 24.7672 
L 64.8 24.7672 
z
" style="fill: #ffffff"/>
   </g>
   <g id="matplotlib.axis_1">
    <g id="xtick_1">
     <g id="line2d_1">
      <defs>
       <path id="m6bad1f20d5" d="M 0 0 
L 0 3.5 
" style="stroke: #000000; stroke-width: 0.8"/>
      </defs>
      <g>
       <use xlink:href="#m6bad1f20d5" x="64.8" y="145.7272" style="stroke: #000000; stroke-width: 0.8"/>
      </g>
     </g>
     <g id="text_1">
      <!-- 0.0 -->
      <g transform="translate(56.848437 160.325637) scale(0.1 -0.1)">
       <defs>
        <path id="DejaVuSans-30" d="M 2034 4250 
Q 1547 4250 1301 3770 
Q 1056 3291 1056 2328 
Q 1056 1369 1301 889 
Q 1547 409 2034 409 
Q 2525 409 2770 889 
Q 3016 1369 3016 2328 
Q 3016 3291 2770 3770 
Q 2525 4250 2034 4250 
z
M 2034 4750 
Q 2819 4750 3233 4129 
Q 3647 3509 3647 2328 
Q 3647 1150 3233 529 
Q 2819 -91 2034 -91 
Q 1250 -91 836 529 
Q 422 1150 422 2328 
Q 422 3509 836 4129 
Q 1250 4750 2034 4750 
z
" transform="scale(0.015625)"/>
        <path id="DejaVuSans-2e" d="M 684 794 
L 1344 794 
L 1344 0 
L 684 0 
L 684 794 
z
" transform="scale(0.015625)"/>
       </defs>
       <use xlink:href="#DejaVuSans-30"/>
       <use xlink:href="#DejaVuSans-2e" x="63.623047"/>
       <use xlink:href="#DejaVuSans-30" x="95.410156"/>
      </g>
     </g>
    </g>
    <g id="xtick_2">
     <g id="line2d_2">
      <g>
       <use xlink:href="#m6bad1f20d5" x="110.88" y="145.7272" style="stroke: #000000; stroke-width: 0.8"/>
      </g>
     </g>
     <g id="text_2">
      <!-- 0.2 -->
      <g transform="translate(102.928438 160.325637) scale(0.1 -0.1)">
       <defs>
        <path id="DejaVuSans-32" d="M 1228 531 
L 3431 531 
L 3431 0 
L 469 0 
L 469 531 
Q 828 903 1448 1529 
Q 2069 2156 2228 2338 
Q 2531 2678 2651 2914 
Q 2772 3150 2772 3378 
Q 2772 3750 2511 3984 
Q 2250 4219 1831 4219 
Q 1534 4219 1204 4116 
Q 875 4013 500 3803 
L 500 4441 
Q 881 4594 1212 4672 
Q 1544 4750 1819 4750 
Q 2544 4750 2975 4387 
Q 3406 4025 3406 3419 
Q 3406 3131 3298 2873 
Q 3191 2616 2906 2266 
Q 2828 2175 2409 1742 
Q 1991 1309 1228 531 
z
" transform="scale(0.015625)"/>
       </defs>
       <use xlink:href="#DejaVuSans-30"/>
       <use xlink:href="#DejaVuSans-2e" x="63.623047"/>
       <use xlink:href="#DejaVuSans-32" x="95.410156"/>
      </g>
     </g>
    </g>
    <g id="xtick_3">
     <g id="line2d_3">
      <g>
       <use xlink:href="#m6bad1f20d5" x="156.96" y="145.7272" style="stroke: #000000; stroke-width: 0.8"/>
      </g>
     </g>
     <g id="text_3">
      <!-- 0.4 -->
      <g transform="translate(149.008437 160.325637) scale(0.1 -0.1)">
       <defs>
        <path id="DejaVuSans-34" d="M 2419 4116 
L 825 1625 
L 2419 1625 
L 2419 4116 
z
M 2253 4666 
L 3047 4666 
L 3047 1625 
L 3713 1625 
L 3713 1100 
L 3047 1100 
L 3047 0 
L 2419 0 
L 2419 1100 
L 313 1100 
L 313 1709 
L 2253 4666 
z
" transform="scale(0.015625)"/>
       </defs>
       <use xlink:href="#DejaVuSans-30"/>
       <use xlink:href="#DejaVuSans-2e" x="63.623047"/>
       <use xlink:href="#DejaVuSans-34" x="95.410156"/>
      </g>
     </g>
    </g>
    <g id="xtick_4">
     <g id="line2d_4">
      <g>
       <use xlink:href="#m6bad1f20d5" x="203.04" y="145.7272" style="stroke: #000000; stroke-width: 0.8"/>
      </g>
     </g>
     <g id="text_4">
      <!-- 0.6 -->
      <g transform="translate(195.088438 160.325637) scale(0.1 -0.1)">
       <defs>
        <path id="DejaVuSans-36" d="M 2113 2584 
Q 1688 2584 1439 2293 
Q 1191 2003 1191 1497 
Q 1191 994 1439 701 
Q 1688 409 2113 409 
Q 2538 409 2786 701 
Q 3034 994 3034 1497 
Q 3034 2003 2786 2293 
Q 2538 2584 2113 2584 
z
M 3366 4563 
L 3366 3988 
Q 3128 4100 2886 4159 
Q 2644 4219 2406 4219 
Q 1781 4219 1451 3797 
Q 1122 3375 1075 2522 
Q 1259 2794 1537 2939 
Q 1816 3084 2150 3084 
Q 2853 3084 3261 2657 
Q 3669 2231 3669 1497 
Q 3669 778 3244 343 
Q 2819 -91 2113 -91 
Q 1303 -91 875 529 
Q 447 1150 447 2328 
Q 447 3434 972 4092 
Q 1497 4750 2381 4750 
Q 2619 4750 2861 4703 
Q 3103 4656 3366 4563 
z
" transform="scale(0.015625)"/>
       </defs>
       <use xlink:href="#DejaVuSans-30"/>
       <use xlink:href="#DejaVuSans-2e" x="63.623047"/>
       <use xlink:href="#DejaVuSans-36" x="95.410156"/>
      </g>
     </g>
    </g>
    <g id="xtick_5">
     <g id="line2d_5">
      <g>
       <use xlink:href="#m6bad1f20d5" x="249.12" y="145.7272" style="stroke: #000000; stroke-width: 0.8"/>
      </g>
     </g>
     <g id="text_5">
      <!-- 0.8 -->
      <g transform="translate(241.168438 160.325637) scale(0.1 -0.1)">
       <defs>
        <path id="DejaVuSans-38" d="M 2034 2216 
Q 1584 2216 1326 1975 
Q 1069 1734 1069 1313 
Q 1069 891 1326 650 
Q 1584 409 2034 409 
Q 2484 409 2743 651 
Q 3003 894 3003 1313 
Q 3003 1734 2745 1975 
Q 2488 2216 2034 2216 
z
M 1403 2484 
Q 997 2584 770 2862 
Q 544 3141 544 3541 
Q 544 4100 942 4425 
Q 1341 4750 2034 4750 
Q 2731 4750 3128 4425 
Q 3525 4100 3525 3541 
Q 3525 3141 3298 2862 
Q 3072 2584 2669 2484 
Q 3125 2378 3379 2068 
Q 3634 1759 3634 1313 
Q 3634 634 3220 271 
Q 2806 -91 2034 -91 
Q 1263 -91 848 271 
Q 434 634 434 1313 
Q 434 1759 690 2068 
Q 947 2378 1403 2484 
z
M 1172 3481 
Q 1172 3119 1398 2916 
Q 1625 2713 2034 2713 
Q 2441 2713 2670 2916 
Q 2900 3119 2900 3481 
Q 2900 3844 2670 4047 
Q 2441 4250 2034 4250 
Q 1625 4250 1398 4047 
Q 1172 3844 1172 3481 
z
" transform="scale(0.015625)"/>
       </defs>
       <use xlink:href="#DejaVuSans-30"/>
       <use xlink:href="#DejaVuSans-2e" x="63.623047"/>
       <use xlink:href="#DejaVuSans-38" x="95.410156"/>
      </g>
     </g>
    </g>
    <g id="xtick_6">
     <g id="line2d_6">
      <g>
       <use xlink:href="#m6bad1f20d5" x="295.2" y="145.7272" style="stroke: #000000; stroke-width: 0.8"/>
      </g>
     </g>
     <g id="text_6">
      <!-- 1.0 -->
      <g transform="translate(287.248437 160.325637) scale(0.1 -0.1)">
       <defs>
        <path id="DejaVuSans-31" d="M 794 531 
L 1825 531 
L 1825 4091 
L 703 3866 
L 703 4441 
L 1819 4666 
L 2450 4666 
L 2450 531 
L 3481 531 
L 3481 0 
L 794 0 
L 794 531 
z
" transform="scale(0.015625)"/>
       </defs>
       <use xlink:href="#DejaVuSans-31"/>
       <use xlink:href="#DejaVuSans-2e" x="63.623047"/>
       <use xlink:href="#DejaVuSans-30" x="95.410156"/>
      </g>
     </g>
    </g>
    <g id="text_7">
     <!--  Selected mutant frequency in cycle $k$, $f^*_k$ -->
     <g transform="translate(76.45 175.505325) scale(0.1 -0.1)">
      <defs>
       <path id="DejaVuSans-20" transform="scale(0.015625)"/>
       <path id="DejaVuSans-53" d="M 3425 4513 
L 3425 3897 
Q 3066 4069 2747 4153 
Q 2428 4238 2131 4238 
Q 1616 4238 1336 4038 
Q 1056 3838 1056 3469 
Q 1056 3159 1242 3001 
Q 1428 2844 1947 2747 
L 2328 2669 
Q 3034 2534 3370 2195 
Q 3706 1856 3706 1288 
Q 3706 609 3251 259 
Q 2797 -91 1919 -91 
Q 1588 -91 1214 -16 
Q 841 59 441 206 
L 441 856 
Q 825 641 1194 531 
Q 1563 422 1919 422 
Q 2459 422 2753 634 
Q 3047 847 3047 1241 
Q 3047 1584 2836 1778 
Q 2625 1972 2144 2069 
L 1759 2144 
Q 1053 2284 737 2584 
Q 422 2884 422 3419 
Q 422 4038 858 4394 
Q 1294 4750 2059 4750 
Q 2388 4750 2728 4690 
Q 3069 4631 3425 4513 
z
" transform="scale(0.015625)"/>
       <path id="DejaVuSans-65" d="M 3597 1894 
L 3597 1613 
L 953 1613 
Q 991 1019 1311 708 
Q 1631 397 2203 397 
Q 2534 397 2845 478 
Q 3156 559 3463 722 
L 3463 178 
Q 3153 47 2828 -22 
Q 2503 -91 2169 -91 
Q 1331 -91 842 396 
Q 353 884 353 1716 
Q 353 2575 817 3079 
Q 1281 3584 2069 3584 
Q 2775 3584 3186 3129 
Q 3597 2675 3597 1894 
z
M 3022 2063 
Q 3016 2534 2758 2815 
Q 2500 3097 2075 3097 
Q 1594 3097 1305 2825 
Q 1016 2553 972 2059 
L 3022 2063 
z
" transform="scale(0.015625)"/>
       <path id="DejaVuSans-6c" d="M 603 4863 
L 1178 4863 
L 1178 0 
L 603 0 
L 603 4863 
z
" transform="scale(0.015625)"/>
       <path id="DejaVuSans-63" d="M 3122 3366 
L 3122 2828 
Q 2878 2963 2633 3030 
Q 2388 3097 2138 3097 
Q 1578 3097 1268 2742 
Q 959 2388 959 1747 
Q 959 1106 1268 751 
Q 1578 397 2138 397 
Q 2388 397 2633 464 
Q 2878 531 3122 666 
L 3122 134 
Q 2881 22 2623 -34 
Q 2366 -91 2075 -91 
Q 1284 -91 818 406 
Q 353 903 353 1747 
Q 353 2603 823 3093 
Q 1294 3584 2113 3584 
Q 2378 3584 2631 3529 
Q 2884 3475 3122 3366 
z
" transform="scale(0.015625)"/>
       <path id="DejaVuSans-74" d="M 1172 4494 
L 1172 3500 
L 2356 3500 
L 2356 3053 
L 1172 3053 
L 1172 1153 
Q 1172 725 1289 603 
Q 1406 481 1766 481 
L 2356 481 
L 2356 0 
L 1766 0 
Q 1100 0 847 248 
Q 594 497 594 1153 
L 594 3053 
L 172 3053 
L 172 3500 
L 594 3500 
L 594 4494 
L 1172 4494 
z
" transform="scale(0.015625)"/>
       <path id="DejaVuSans-64" d="M 2906 2969 
L 2906 4863 
L 3481 4863 
L 3481 0 
L 2906 0 
L 2906 525 
Q 2725 213 2448 61 
Q 2172 -91 1784 -91 
Q 1150 -91 751 415 
Q 353 922 353 1747 
Q 353 2572 751 3078 
Q 1150 3584 1784 3584 
Q 2172 3584 2448 3432 
Q 2725 3281 2906 2969 
z
M 947 1747 
Q 947 1113 1208 752 
Q 1469 391 1925 391 
Q 2381 391 2643 752 
Q 2906 1113 2906 1747 
Q 2906 2381 2643 2742 
Q 2381 3103 1925 3103 
Q 1469 3103 1208 2742 
Q 947 2381 947 1747 
z
" transform="scale(0.015625)"/>
       <path id="DejaVuSans-6d" d="M 3328 2828 
Q 3544 3216 3844 3400 
Q 4144 3584 4550 3584 
Q 5097 3584 5394 3201 
Q 5691 2819 5691 2113 
L 5691 0 
L 5113 0 
L 5113 2094 
Q 5113 2597 4934 2840 
Q 4756 3084 4391 3084 
Q 3944 3084 3684 2787 
Q 3425 2491 3425 1978 
L 3425 0 
L 2847 0 
L 2847 2094 
Q 2847 2600 2669 2842 
Q 2491 3084 2119 3084 
Q 1678 3084 1418 2786 
Q 1159 2488 1159 1978 
L 1159 0 
L 581 0 
L 581 3500 
L 1159 3500 
L 1159 2956 
Q 1356 3278 1631 3431 
Q 1906 3584 2284 3584 
Q 2666 3584 2933 3390 
Q 3200 3197 3328 2828 
z
" transform="scale(0.015625)"/>
       <path id="DejaVuSans-75" d="M 544 1381 
L 544 3500 
L 1119 3500 
L 1119 1403 
Q 1119 906 1312 657 
Q 1506 409 1894 409 
Q 2359 409 2629 706 
Q 2900 1003 2900 1516 
L 2900 3500 
L 3475 3500 
L 3475 0 
L 2900 0 
L 2900 538 
Q 2691 219 2414 64 
Q 2138 -91 1772 -91 
Q 1169 -91 856 284 
Q 544 659 544 1381 
z
M 1991 3584 
L 1991 3584 
z
" transform="scale(0.015625)"/>
       <path id="DejaVuSans-61" d="M 2194 1759 
Q 1497 1759 1228 1600 
Q 959 1441 959 1056 
Q 959 750 1161 570 
Q 1363 391 1709 391 
Q 2188 391 2477 730 
Q 2766 1069 2766 1631 
L 2766 1759 
L 2194 1759 
z
M 3341 1997 
L 3341 0 
L 2766 0 
L 2766 531 
Q 2569 213 2275 61 
Q 1981 -91 1556 -91 
Q 1019 -91 701 211 
Q 384 513 384 1019 
Q 384 1609 779 1909 
Q 1175 2209 1959 2209 
L 2766 2209 
L 2766 2266 
Q 2766 2663 2505 2880 
Q 2244 3097 1772 3097 
Q 1472 3097 1187 3025 
Q 903 2953 641 2809 
L 641 3341 
Q 956 3463 1253 3523 
Q 1550 3584 1831 3584 
Q 2591 3584 2966 3190 
Q 3341 2797 3341 1997 
z
" transform="scale(0.015625)"/>
       <path id="DejaVuSans-6e" d="M 3513 2113 
L 3513 0 
L 2938 0 
L 2938 2094 
Q 2938 2591 2744 2837 
Q 2550 3084 2163 3084 
Q 1697 3084 1428 2787 
Q 1159 2491 1159 1978 
L 1159 0 
L 581 0 
L 581 3500 
L 1159 3500 
L 1159 2956 
Q 1366 3272 1645 3428 
Q 1925 3584 2291 3584 
Q 2894 3584 3203 3211 
Q 3513 2838 3513 2113 
z
" transform="scale(0.015625)"/>
       <path id="DejaVuSans-66" d="M 2375 4863 
L 2375 4384 
L 1825 4384 
Q 1516 4384 1395 4259 
Q 1275 4134 1275 3809 
L 1275 3500 
L 2222 3500 
L 2222 3053 
L 1275 3053 
L 1275 0 
L 697 0 
L 697 3053 
L 147 3053 
L 147 3500 
L 697 3500 
L 697 3744 
Q 697 4328 969 4595 
Q 1241 4863 1831 4863 
L 2375 4863 
z
" transform="scale(0.015625)"/>
       <path id="DejaVuSans-72" d="M 2631 2963 
Q 2534 3019 2420 3045 
Q 2306 3072 2169 3072 
Q 1681 3072 1420 2755 
Q 1159 2438 1159 1844 
L 1159 0 
L 581 0 
L 581 3500 
L 1159 3500 
L 1159 2956 
Q 1341 3275 1631 3429 
Q 1922 3584 2338 3584 
Q 2397 3584 2469 3576 
Q 2541 3569 2628 3553 
L 2631 2963 
z
" transform="scale(0.015625)"/>
       <path id="DejaVuSans-71" d="M 947 1747 
Q 947 1113 1208 752 
Q 1469 391 1925 391 
Q 2381 391 2643 752 
Q 2906 1113 2906 1747 
Q 2906 2381 2643 2742 
Q 2381 3103 1925 3103 
Q 1469 3103 1208 2742 
Q 947 2381 947 1747 
z
M 2906 525 
Q 2725 213 2448 61 
Q 2172 -91 1784 -91 
Q 1150 -91 751 415 
Q 353 922 353 1747 
Q 353 2572 751 3078 
Q 1150 3584 1784 3584 
Q 2172 3584 2448 3432 
Q 2725 3281 2906 2969 
L 2906 3500 
L 3481 3500 
L 3481 -1331 
L 2906 -1331 
L 2906 525 
z
" transform="scale(0.015625)"/>
       <path id="DejaVuSans-79" d="M 2059 -325 
Q 1816 -950 1584 -1140 
Q 1353 -1331 966 -1331 
L 506 -1331 
L 506 -850 
L 844 -850 
Q 1081 -850 1212 -737 
Q 1344 -625 1503 -206 
L 1606 56 
L 191 3500 
L 800 3500 
L 1894 763 
L 2988 3500 
L 3597 3500 
L 2059 -325 
z
" transform="scale(0.015625)"/>
       <path id="DejaVuSans-69" d="M 603 3500 
L 1178 3500 
L 1178 0 
L 603 0 
L 603 3500 
z
M 603 4863 
L 1178 4863 
L 1178 4134 
L 603 4134 
L 603 4863 
z
" transform="scale(0.015625)"/>
       <path id="DejaVuSans-Oblique-6b" d="M 1172 4863 
L 1747 4863 
L 1197 2028 
L 3169 3500 
L 3916 3500 
L 1716 1825 
L 3322 0 
L 2625 0 
L 1131 1709 
L 800 0 
L 225 0 
L 1172 4863 
z
" transform="scale(0.015625)"/>
       <path id="DejaVuSans-2c" d="M 750 794 
L 1409 794 
L 1409 256 
L 897 -744 
L 494 -744 
L 750 256 
L 750 794 
z
" transform="scale(0.015625)"/>
       <path id="DejaVuSans-Oblique-66" d="M 3059 4863 
L 2969 4384 
L 2419 4384 
Q 2106 4384 1964 4261 
Q 1822 4138 1753 3809 
L 1691 3500 
L 2638 3500 
L 2553 3053 
L 1606 3053 
L 1013 0 
L 434 0 
L 1031 3053 
L 481 3053 
L 563 3500 
L 1113 3500 
L 1159 3744 
Q 1278 4363 1576 4613 
Q 1875 4863 2516 4863 
L 3059 4863 
z
" transform="scale(0.015625)"/>
       <path id="DejaVuSans-2a" d="M 3009 3897 
L 1888 3291 
L 3009 2681 
L 2828 2375 
L 1778 3009 
L 1778 1831 
L 1422 1831 
L 1422 3009 
L 372 2375 
L 191 2681 
L 1313 3291 
L 191 3897 
L 372 4206 
L 1422 3572 
L 1422 4750 
L 1778 4750 
L 1778 3572 
L 2828 4206 
L 3009 3897 
z
" transform="scale(0.015625)"/>
      </defs>
      <use xlink:href="#DejaVuSans-20" transform="translate(0 0.701562)"/>
      <use xlink:href="#DejaVuSans-53" transform="translate(31.787109 0.701562)"/>
      <use xlink:href="#DejaVuSans-65" transform="translate(95.263672 0.701562)"/>
      <use xlink:href="#DejaVuSans-6c" transform="translate(156.787109 0.701562)"/>
      <use xlink:href="#DejaVuSans-65" transform="translate(184.570312 0.701562)"/>
      <use xlink:href="#DejaVuSans-63" transform="translate(246.09375 0.701562)"/>
      <use xlink:href="#DejaVuSans-74" transform="translate(301.074219 0.701562)"/>
      <use xlink:href="#DejaVuSans-65" transform="translate(340.283203 0.701562)"/>
      <use xlink:href="#DejaVuSans-64" transform="translate(401.806641 0.701562)"/>
      <use xlink:href="#DejaVuSans-20" transform="translate(465.283203 0.701562)"/>
      <use xlink:href="#DejaVuSans-6d" transform="translate(497.070312 0.701562)"/>
      <use xlink:href="#DejaVuSans-75" transform="translate(594.482422 0.701562)"/>
      <use xlink:href="#DejaVuSans-74" transform="translate(657.861328 0.701562)"/>
      <use xlink:href="#DejaVuSans-61" transform="translate(697.070312 0.701562)"/>
      <use xlink:href="#DejaVuSans-6e" transform="translate(758.349609 0.701562)"/>
      <use xlink:href="#DejaVuSans-74" transform="translate(821.728516 0.701562)"/>
      <use xlink:href="#DejaVuSans-20" transform="translate(860.9375 0.701562)"/>
      <use xlink:href="#DejaVuSans-66" transform="translate(892.724609 0.701562)"/>
      <use xlink:href="#DejaVuSans-72" transform="translate(927.929688 0.701562)"/>
      <use xlink:href="#DejaVuSans-65" transform="translate(969.042969 0.701562)"/>
      <use xlink:href="#DejaVuSans-71" transform="translate(1030.566406 0.701562)"/>
      <use xlink:href="#DejaVuSans-75" transform="translate(1094.042969 0.701562)"/>
      <use xlink:href="#DejaVuSans-65" transform="translate(1157.421875 0.701562)"/>
      <use xlink:href="#DejaVuSans-6e" transform="translate(1218.945312 0.701562)"/>
      <use xlink:href="#DejaVuSans-63" transform="translate(1282.324219 0.701562)"/>
      <use xlink:href="#DejaVuSans-79" transform="translate(1337.304688 0.701562)"/>
      <use xlink:href="#DejaVuSans-20" transform="translate(1396.484375 0.701562)"/>
      <use xlink:href="#DejaVuSans-69" transform="translate(1428.271484 0.701562)"/>
      <use xlink:href="#DejaVuSans-6e" transform="translate(1456.054688 0.701562)"/>
      <use xlink:href="#DejaVuSans-20" transform="translate(1519.433594 0.701562)"/>
      <use xlink:href="#DejaVuSans-63" transform="translate(1551.220703 0.701562)"/>
      <use xlink:href="#DejaVuSans-79" transform="translate(1606.201172 0.701562)"/>
      <use xlink:href="#DejaVuSans-63" transform="translate(1665.380859 0.701562)"/>
      <use xlink:href="#DejaVuSans-6c" transform="translate(1720.361328 0.701562)"/>
      <use xlink:href="#DejaVuSans-65" transform="translate(1748.144531 0.701562)"/>
      <use xlink:href="#DejaVuSans-20" transform="translate(1809.667969 0.701562)"/>
      <use xlink:href="#DejaVuSans-Oblique-6b" transform="translate(1841.455078 0.701562)"/>
      <use xlink:href="#DejaVuSans-2c" transform="translate(1899.365234 0.701562)"/>
      <use xlink:href="#DejaVuSans-20" transform="translate(1931.152344 0.701562)"/>
      <use xlink:href="#DejaVuSans-Oblique-66" transform="translate(1962.939453 0.701562)"/>
      <use xlink:href="#DejaVuSans-2a" transform="translate(2019.229935 39.046875) scale(0.7)"/>
      <use xlink:href="#DejaVuSans-Oblique-6b" transform="translate(1998.144531 -26.642188) scale(0.7)"/>
     </g>
    </g>
   </g>
   <g id="matplotlib.axis_2">
    <g id="ytick_1">
     <g id="line2d_7">
      <defs>
       <path id="md18ab771d2" d="M 0 0 
L -3.5 0 
" style="stroke: #000000; stroke-width: 0.8"/>
      </defs>
      <g>
       <use xlink:href="#md18ab771d2" x="64.8" y="140.229018" style="stroke: #000000; stroke-width: 0.8"/>
      </g>
     </g>
     <g id="text_8">
      <!-- −0.02 -->
      <g transform="translate(27.154687 144.028237) scale(0.1 -0.1)">
       <defs>
        <path id="DejaVuSans-2212" d="M 678 2272 
L 4684 2272 
L 4684 1741 
L 678 1741 
L 678 2272 
z
" transform="scale(0.015625)"/>
       </defs>
       <use xlink:href="#DejaVuSans-2212"/>
       <use xlink:href="#DejaVuSans-30" x="83.789062"/>
       <use xlink:href="#DejaVuSans-2e" x="147.412109"/>
       <use xlink:href="#DejaVuSans-30" x="179.199219"/>
       <use xlink:href="#DejaVuSans-32" x="242.822266"/>
      </g>
     </g>
    </g>
    <g id="ytick_2">
     <g id="line2d_8">
      <g>
       <use xlink:href="#md18ab771d2" x="64.8" y="112.738109" style="stroke: #000000; stroke-width: 0.8"/>
      </g>
     </g>
     <g id="text_9">
      <!-- −0.01 -->
      <g transform="translate(27.154687 116.537328) scale(0.1 -0.1)">
       <use xlink:href="#DejaVuSans-2212"/>
       <use xlink:href="#DejaVuSans-30" x="83.789062"/>
       <use xlink:href="#DejaVuSans-2e" x="147.412109"/>
       <use xlink:href="#DejaVuSans-30" x="179.199219"/>
       <use xlink:href="#DejaVuSans-31" x="242.822266"/>
      </g>
     </g>
    </g>
    <g id="ytick_3">
     <g id="line2d_9">
      <g>
       <use xlink:href="#md18ab771d2" x="64.8" y="85.2472" style="stroke: #000000; stroke-width: 0.8"/>
      </g>
     </g>
     <g id="text_10">
      <!-- 0.00 -->
      <g transform="translate(35.534375 89.046419) scale(0.1 -0.1)">
       <use xlink:href="#DejaVuSans-30"/>
       <use xlink:href="#DejaVuSans-2e" x="63.623047"/>
       <use xlink:href="#DejaVuSans-30" x="95.410156"/>
       <use xlink:href="#DejaVuSans-30" x="159.033203"/>
      </g>
     </g>
    </g>
    <g id="ytick_4">
     <g id="line2d_10">
      <g>
       <use xlink:href="#md18ab771d2" x="64.8" y="57.756291" style="stroke: #000000; stroke-width: 0.8"/>
      </g>
     </g>
     <g id="text_11">
      <!-- 0.01 -->
      <g transform="translate(35.534375 61.55551) scale(0.1 -0.1)">
       <use xlink:href="#DejaVuSans-30"/>
       <use xlink:href="#DejaVuSans-2e" x="63.623047"/>
       <use xlink:href="#DejaVuSans-30" x="95.410156"/>
       <use xlink:href="#DejaVuSans-31" x="159.033203"/>
      </g>
     </g>
    </g>
    <g id="ytick_5">
     <g id="line2d_11">
      <g>
       <use xlink:href="#md18ab771d2" x="64.8" y="30.265382" style="stroke: #000000; stroke-width: 0.8"/>
      </g>
     </g>
     <g id="text_12">
      <!-- 0.02 -->
      <g transform="translate(35.534375 34.064601) scale(0.1 -0.1)">
       <use xlink:href="#DejaVuSans-30"/>
       <use xlink:href="#DejaVuSans-2e" x="63.623047"/>
       <use xlink:href="#DejaVuSans-30" x="95.410156"/>
       <use xlink:href="#DejaVuSans-32" x="159.033203"/>
      </g>
     </g>
    </g>
    <g id="text_13">
     <!-- $f-f^*_k$ -->
     <g transform="translate(20.354687 98.5472) rotate(-90) scale(0.1 -0.1)">
      <use xlink:href="#DejaVuSans-Oblique-66" transform="translate(0 0.701562)"/>
      <use xlink:href="#DejaVuSans-2212" transform="translate(54.6875 0.701562)"/>
      <use xlink:href="#DejaVuSans-Oblique-66" transform="translate(157.958984 0.701562)"/>
      <use xlink:href="#DejaVuSans-2a" transform="translate(214.249466 39.046875) scale(0.7)"/>
      <use xlink:href="#DejaVuSans-Oblique-6b" transform="translate(193.164062 -26.642188) scale(0.7)"/>
     </g>
    </g>
   </g>
   <g id="LineCollection_1">
    <path d="M 64.8 85.2472 
L 295.2 85.2472 
" clip-path="url(#p7d80a55b83)" style="fill: none; stroke-dasharray: 1.5,2.475; stroke-dashoffset: 0; stroke: #000000; stroke-width: 1.5"/>
   </g>
   <g id="line2d_12">
    <path d="M 64.8 85.004251 
L 67.104 98.924484 
L 69.408 102.978898 
L 71.712 105.647271 
L 74.016 106.088661 
L 76.32 107.372378 
L 78.624 106.748546 
L 80.928 109.337351 
L 83.232 107.354847 
L 85.536 107.963249 
L 87.84 105.154542 
L 90.144 106.447777 
L 92.448 105.122443 
L 94.752 102.228309 
L 97.056 102.923169 
L 99.36 101.943616 
L 101.664 99.560722 
L 103.968 100.102252 
L 106.272 97.379587 
L 108.576 96.752476 
L 110.88 97.663356 
L 113.184 94.232298 
L 115.488 94.781106 
L 117.792 93.072203 
L 120.096 91.031809 
L 122.4 92.885034 
L 124.704 91.935698 
L 127.008 89.242497 
L 129.312 89.606199 
L 131.616 86.395598 
L 133.92 82.015136 
L 136.224 86.862521 
L 138.528 86.015871 
L 140.832 85.418805 
L 143.136 82.133473 
L 145.44 81.656598 
L 147.744 83.336288 
L 150.048 81.605936 
L 152.352 79.547229 
L 154.656 77.226459 
L 156.96 78.238648 
L 159.264 74.452691 
L 161.568 78.14256 
L 163.872 77.591646 
L 166.176 79.196676 
L 168.48 77.946461 
L 170.784 76.65413 
L 173.088 75.154545 
L 175.392 75.210703 
L 177.696 77.397954 
L 180 74.182471 
L 182.304 75.358237 
L 184.608 74.947403 
L 186.912 78.592644 
L 189.216 75.547205 
L 191.52 78.104385 
L 193.824 77.330746 
L 196.128 78.80001 
L 198.432 76.977643 
L 200.736 77.23413 
L 203.04 77.098722 
L 205.344 77.360402 
L 207.648 76.936752 
L 209.952 79.789655 
L 212.256 80.701886 
L 214.56 79.700361 
L 216.864 82.069387 
L 219.168 80.819155 
L 221.472 81.965281 
L 223.776 81.237901 
L 226.08 83.053835 
L 228.384 83.564307 
L 230.688 85.409224 
L 232.992 85.513577 
L 235.296 86.036374 
L 237.6 86.546219 
L 239.904 86.353039 
L 242.208 88.152832 
L 244.512 89.75369 
L 246.816 90.042762 
L 249.12 90.134561 
L 251.424 91.247255 
L 253.728 93.18448 
L 256.032 92.823408 
L 258.336 93.617246 
L 260.64 96.649301 
L 262.944 98.194113 
L 265.248 96.723345 
L 267.552 98.192914 
L 269.856 100.601601 
L 272.16 100.568616 
L 274.464 101.519601 
L 276.768 102.535931 
L 279.072 101.216439 
L 281.376 102.410479 
L 283.68 102.533187 
L 285.984 103.332465 
L 288.288 101.915089 
L 290.592 101.066693 
" clip-path="url(#p7d80a55b83)" style="fill: none; stroke: #1f77b4; stroke-width: 1.5; stroke-linecap: square"/>
   </g>
   <g id="line2d_13">
    <path d="M 64.8 85.2472 
L 67.104 100.987743 
L 69.408 106.82613 
L 71.712 108.825936 
L 74.016 109.731065 
L 76.32 109.946267 
L 78.624 110.09509 
L 80.928 109.89491 
L 83.232 109.431996 
L 85.536 108.767266 
L 87.84 107.9441 
L 90.144 106.993716 
L 92.448 105.938871 
L 94.752 104.7964 
L 97.056 103.56508 
L 99.36 102.291197 
L 101.664 101.004287 
L 103.968 99.706861 
L 106.272 98.400801 
L 108.576 97.087688 
L 110.88 95.76902 
L 113.184 94.442161 
L 115.488 93.121633 
L 117.792 91.836781 
L 120.096 90.58503 
L 122.4 89.364691 
L 124.704 88.174844 
L 127.008 87.015243 
L 129.312 85.886231 
L 131.616 84.785162 
L 133.92 83.727826 
L 136.224 82.724071 
L 138.528 81.772442 
L 140.832 80.872109 
L 143.136 80.02275 
L 145.44 79.224463 
L 147.744 78.477674 
L 150.048 77.783062 
L 152.352 77.141496 
L 154.656 76.553969 
L 156.96 76.021546 
L 159.264 75.543828 
L 161.568 75.124448 
L 163.872 74.765833 
L 166.176 74.467727 
L 168.48 74.229948 
L 170.784 74.052358 
L 173.088 73.934836 
L 175.392 73.877263 
L 177.696 73.879502 
L 180 73.941401 
L 182.304 74.062786 
L 184.608 74.243472 
L 186.912 74.483272 
L 189.216 74.782019 
L 191.52 75.139586 
L 193.824 75.555919 
L 196.128 76.02831 
L 198.432 76.553127 
L 200.736 77.130385 
L 203.04 77.758793 
L 205.344 78.437133 
L 207.648 79.16431 
L 209.952 79.939403 
L 212.256 80.761723 
L 214.56 81.630872 
L 216.864 82.546814 
L 219.168 83.509946 
L 221.472 84.521181 
L 223.776 85.577407 
L 226.08 86.658854 
L 228.384 87.767056 
L 230.688 88.901399 
L 232.992 90.061754 
L 235.296 91.248529 
L 237.6 92.462724 
L 239.904 93.705998 
L 242.208 94.976196 
L 244.512 96.238478 
L 246.816 97.49533 
L 249.12 98.745674 
L 251.424 99.988502 
L 253.728 101.222763 
L 256.032 102.4472 
L 258.336 103.660126 
L 260.64 104.835963 
L 262.944 105.939892 
L 265.248 106.972815 
L 267.552 107.923712 
L 269.856 108.778104 
L 272.16 109.51675 
L 274.464 110.113857 
L 276.768 110.53458 
L 279.072 110.731525 
L 281.376 110.639856 
L 283.68 110.170375 
L 285.984 109.674857 
L 288.288 108.319573 
L 290.592 105.926216 
" clip-path="url(#p7d80a55b83)" style="fill: none; stroke: #ff7f0e; stroke-width: 1.5; stroke-linecap: square"/>
   </g>
   <g id="LineCollection_2">
    <path d="M 130.64918 222.701745 
L 130.64918 -1 
" clip-path="url(#p7d80a55b83)" style="fill: none; stroke-dasharray: 5.55,2.4; stroke-dashoffset: 0; stroke: #000000; stroke-width: 1.5"/>
    <path d="M 223.055702 222.701745 
L 223.055702 -1 
" clip-path="url(#p7d80a55b83)" style="fill: none; stroke-dasharray: 5.55,2.4; stroke-dashoffset: 0; stroke: #000000; stroke-width: 1.5"/>
   </g>
   <g id="patch_3">
    <path d="M 64.8 145.7272 
L 64.8 24.7672 
" style="fill: none; stroke: #000000; stroke-width: 0.8; stroke-linejoin: miter; stroke-linecap: square"/>
   </g>
   <g id="patch_4">
    <path d="M 295.2 145.7272 
L 295.2 24.7672 
" style="fill: none; stroke: #000000; stroke-width: 0.8; stroke-linejoin: miter; stroke-linecap: square"/>
   </g>
   <g id="patch_5">
    <path d="M 64.8 145.7272 
L 295.2 145.7272 
" style="fill: none; stroke: #000000; stroke-width: 0.8; stroke-linejoin: miter; stroke-linecap: square"/>
   </g>
   <g id="patch_6">
    <path d="M 64.8 24.7672 
L 295.2 24.7672 
" style="fill: none; stroke: #000000; stroke-width: 0.8; stroke-linejoin: miter; stroke-linecap: square"/>
   </g>
   <g id="text_14">
    <!-- a -->
    <g transform="translate(7.2 16.3) scale(0.1 -0.1)">
     <defs>
      <path id="DejaVuSans-Bold-61" d="M 2106 1575 
Q 1756 1575 1579 1456 
Q 1403 1338 1403 1106 
Q 1403 894 1545 773 
Q 1688 653 1941 653 
Q 2256 653 2472 879 
Q 2688 1106 2688 1447 
L 2688 1575 
L 2106 1575 
z
M 3816 1997 
L 3816 0 
L 2688 0 
L 2688 519 
Q 2463 200 2181 54 
Q 1900 -91 1497 -91 
Q 953 -91 614 226 
Q 275 544 275 1050 
Q 275 1666 698 1953 
Q 1122 2241 2028 2241 
L 2688 2241 
L 2688 2328 
Q 2688 2594 2478 2717 
Q 2269 2841 1825 2841 
Q 1466 2841 1156 2769 
Q 847 2697 581 2553 
L 581 3406 
Q 941 3494 1303 3539 
Q 1666 3584 2028 3584 
Q 2975 3584 3395 3211 
Q 3816 2838 3816 1997 
z
" transform="scale(0.015625)"/>
     </defs>
     <use xlink:href="#DejaVuSans-Bold-61"/>
    </g>
   </g>
   <g id="text_15">
    <!-- Median of selected mutant frequency in $\Psi(f^*_{k+1}=f|f_k^*)$ -->
    <g transform="translate(18.72 16.3) scale(0.1 -0.1)">
     <defs>
      <path id="DejaVuSans-4d" d="M 628 4666 
L 1569 4666 
L 2759 1491 
L 3956 4666 
L 4897 4666 
L 4897 0 
L 4281 0 
L 4281 4097 
L 3078 897 
L 2444 897 
L 1241 4097 
L 1241 0 
L 628 0 
L 628 4666 
z
" transform="scale(0.015625)"/>
      <path id="DejaVuSans-6f" d="M 1959 3097 
Q 1497 3097 1228 2736 
Q 959 2375 959 1747 
Q 959 1119 1226 758 
Q 1494 397 1959 397 
Q 2419 397 2687 759 
Q 2956 1122 2956 1747 
Q 2956 2369 2687 2733 
Q 2419 3097 1959 3097 
z
M 1959 3584 
Q 2709 3584 3137 3096 
Q 3566 2609 3566 1747 
Q 3566 888 3137 398 
Q 2709 -91 1959 -91 
Q 1206 -91 779 398 
Q 353 888 353 1747 
Q 353 2609 779 3096 
Q 1206 3584 1959 3584 
z
" transform="scale(0.015625)"/>
      <path id="DejaVuSans-73" d="M 2834 3397 
L 2834 2853 
Q 2591 2978 2328 3040 
Q 2066 3103 1784 3103 
Q 1356 3103 1142 2972 
Q 928 2841 928 2578 
Q 928 2378 1081 2264 
Q 1234 2150 1697 2047 
L 1894 2003 
Q 2506 1872 2764 1633 
Q 3022 1394 3022 966 
Q 3022 478 2636 193 
Q 2250 -91 1575 -91 
Q 1294 -91 989 -36 
Q 684 19 347 128 
L 347 722 
Q 666 556 975 473 
Q 1284 391 1588 391 
Q 1994 391 2212 530 
Q 2431 669 2431 922 
Q 2431 1156 2273 1281 
Q 2116 1406 1581 1522 
L 1381 1569 
Q 847 1681 609 1914 
Q 372 2147 372 2553 
Q 372 3047 722 3315 
Q 1072 3584 1716 3584 
Q 2034 3584 2315 3537 
Q 2597 3491 2834 3397 
z
" transform="scale(0.015625)"/>
      <path id="DejaVuSans-3a8" d="M 2206 0 
Q 2209 419 2206 969 
Q 1538 969 950 1625 
Q 375 2263 359 3388 
L 359 4666 
L 1025 4666 
L 1025 3388 
Q 1025 2506 1431 1994 
Q 1775 1556 2206 1513 
L 2206 4666 
L 2838 4666 
L 2838 1513 
Q 3269 1556 3613 1994 
Q 4019 2506 4019 3388 
L 4019 4666 
L 4684 4666 
L 4684 3388 
Q 4669 2263 4094 1625 
Q 3506 969 2838 969 
Q 2834 744 2838 0 
L 2206 0 
z
" transform="scale(0.015625)"/>
      <path id="DejaVuSans-28" d="M 1984 4856 
Q 1566 4138 1362 3434 
Q 1159 2731 1159 2009 
Q 1159 1288 1364 580 
Q 1569 -128 1984 -844 
L 1484 -844 
Q 1016 -109 783 600 
Q 550 1309 550 2009 
Q 550 2706 781 3412 
Q 1013 4119 1484 4856 
L 1984 4856 
z
" transform="scale(0.015625)"/>
      <path id="DejaVuSans-2b" d="M 2944 4013 
L 2944 2272 
L 4684 2272 
L 4684 1741 
L 2944 1741 
L 2944 0 
L 2419 0 
L 2419 1741 
L 678 1741 
L 678 2272 
L 2419 2272 
L 2419 4013 
L 2944 4013 
z
" transform="scale(0.015625)"/>
      <path id="DejaVuSans-3d" d="M 678 2906 
L 4684 2906 
L 4684 2381 
L 678 2381 
L 678 2906 
z
M 678 1631 
L 4684 1631 
L 4684 1100 
L 678 1100 
L 678 1631 
z
" transform="scale(0.015625)"/>
      <path id="DejaVuSans-7c" d="M 1344 4891 
L 1344 -1509 
L 813 -1509 
L 813 4891 
L 1344 4891 
z
" transform="scale(0.015625)"/>
      <path id="DejaVuSans-29" d="M 513 4856 
L 1013 4856 
Q 1481 4119 1714 3412 
Q 1947 2706 1947 2009 
Q 1947 1309 1714 600 
Q 1481 -109 1013 -844 
L 513 -844 
Q 928 -128 1133 580 
Q 1338 1288 1338 2009 
Q 1338 2731 1133 3434 
Q 928 4138 513 4856 
z
" transform="scale(0.015625)"/>
     </defs>
     <use xlink:href="#DejaVuSans-4d" transform="translate(0 0.701562)"/>
     <use xlink:href="#DejaVuSans-65" transform="translate(86.279297 0.701562)"/>
     <use xlink:href="#DejaVuSans-64" transform="translate(147.802734 0.701562)"/>
     <use xlink:href="#DejaVuSans-69" transform="translate(211.279297 0.701562)"/>
     <use xlink:href="#DejaVuSans-61" transform="translate(239.0625 0.701562)"/>
     <use xlink:href="#DejaVuSans-6e" transform="translate(300.341797 0.701562)"/>
     <use xlink:href="#DejaVuSans-20" transform="translate(363.720703 0.701562)"/>
     <use xlink:href="#DejaVuSans-6f" transform="translate(395.507812 0.701562)"/>
     <use xlink:href="#DejaVuSans-66" transform="translate(456.689453 0.701562)"/>
     <use xlink:href="#DejaVuSans-20" transform="translate(491.894531 0.701562)"/>
     <use xlink:href="#DejaVuSans-73" transform="translate(523.681641 0.701562)"/>
     <use xlink:href="#DejaVuSans-65" transform="translate(575.78125 0.701562)"/>
     <use xlink:href="#DejaVuSans-6c" transform="translate(637.304688 0.701562)"/>
     <use xlink:href="#DejaVuSans-65" transform="translate(665.087891 0.701562)"/>
     <use xlink:href="#DejaVuSans-63" transform="translate(726.611328 0.701562)"/>
     <use xlink:href="#DejaVuSans-74" transform="translate(781.591797 0.701562)"/>
     <use xlink:href="#DejaVuSans-65" transform="translate(820.800781 0.701562)"/>
     <use xlink:href="#DejaVuSans-64" transform="translate(882.324219 0.701562)"/>
     <use xlink:href="#DejaVuSans-20" transform="translate(945.800781 0.701562)"/>
     <use xlink:href="#DejaVuSans-6d" transform="translate(977.587891 0.701562)"/>
     <use xlink:href="#DejaVuSans-75" transform="translate(1075 0.701562)"/>
     <use xlink:href="#DejaVuSans-74" transform="translate(1138.378906 0.701562)"/>
     <use xlink:href="#DejaVuSans-61" transform="translate(1177.587891 0.701562)"/>
     <use xlink:href="#DejaVuSans-6e" transform="translate(1238.867188 0.701562)"/>
     <use xlink:href="#DejaVuSans-74" transform="translate(1302.246094 0.701562)"/>
     <use xlink:href="#DejaVuSans-20" transform="translate(1341.455078 0.701562)"/>
     <use xlink:href="#DejaVuSans-66" transform="translate(1373.242188 0.701562)"/>
     <use xlink:href="#DejaVuSans-72" transform="translate(1408.447266 0.701562)"/>
     <use xlink:href="#DejaVuSans-65" transform="translate(1449.560547 0.701562)"/>
     <use xlink:href="#DejaVuSans-71" transform="translate(1511.083984 0.701562)"/>
     <use xlink:href="#DejaVuSans-75" transform="translate(1574.560547 0.701562)"/>
     <use xlink:href="#DejaVuSans-65" transform="translate(1637.939453 0.701562)"/>
     <use xlink:href="#DejaVuSans-6e" transform="translate(1699.462891 0.701562)"/>
     <use xlink:href="#DejaVuSans-63" transform="translate(1762.841797 0.701562)"/>
     <use xlink:href="#DejaVuSans-79" transform="translate(1817.822266 0.701562)"/>
     <use xlink:href="#DejaVuSans-20" transform="translate(1877.001953 0.701562)"/>
     <use xlink:href="#DejaVuSans-69" transform="translate(1908.789062 0.701562)"/>
     <use xlink:href="#DejaVuSans-6e" transform="translate(1936.572266 0.701562)"/>
     <use xlink:href="#DejaVuSans-20" transform="translate(1999.951172 0.701562)"/>
     <use xlink:href="#DejaVuSans-3a8" transform="translate(2031.738281 0.701562)"/>
     <use xlink:href="#DejaVuSans-28" transform="translate(2110.449219 0.701562)"/>
     <use xlink:href="#DejaVuSans-Oblique-66" transform="translate(2149.462891 0.701562)"/>
     <use xlink:href="#DejaVuSans-2a" transform="translate(2205.753372 39.046875) scale(0.7)"/>
     <use xlink:href="#DejaVuSans-Oblique-6b" transform="translate(2184.667969 -26.642188) scale(0.7)"/>
     <use xlink:href="#DejaVuSans-2b" transform="translate(2238.842773 -26.642188) scale(0.7)"/>
     <use xlink:href="#DejaVuSans-31" transform="translate(2311.132812 -26.642188) scale(0.7)"/>
     <use xlink:href="#DejaVuSans-3d" transform="translate(2377.885742 0.701562)"/>
     <use xlink:href="#DejaVuSans-Oblique-66" transform="translate(2481.157227 0.701562)"/>
     <use xlink:href="#DejaVuSans-7c" transform="translate(2516.362305 0.701562)"/>
     <use xlink:href="#DejaVuSans-Oblique-66" transform="translate(2550.053711 0.701562)"/>
     <use xlink:href="#DejaVuSans-2a" transform="translate(2606.344193 39.046875) scale(0.7)"/>
     <use xlink:href="#DejaVuSans-Oblique-6b" transform="translate(2585.258789 -26.642188) scale(0.7)"/>
     <use xlink:href="#DejaVuSans-29" transform="translate(2657.716263 0.701562)"/>
    </g>
   </g>
   <g id="patch_7">
    <path d="M 119.888213 138.836384 
Q 124.379393 141.138646 127.875645 142.930889 
" style="fill: none; stroke: #000000; stroke-linecap: round"/>
    <path d="M 125.228432 139.326411 
L 127.875645 142.930889 
L 123.403735 142.885973 
" style="fill: none; stroke: #000000; stroke-linecap: round"/>
   </g>
   <g id="text_16">
    <!-- $f^L$ -->
    <g transform="translate(107.60918 137.479927) scale(0.1 -0.1)">
     <defs>
      <path id="DejaVuSans-Oblique-4c" d="M 1075 4666 
L 1709 4666 
L 909 525 
L 3181 525 
L 3078 0 
L 172 0 
L 1075 4666 
z
" transform="scale(0.015625)"/>
     </defs>
     <use xlink:href="#DejaVuSans-Oblique-66" transform="translate(0 0.684375)"/>
     <use xlink:href="#DejaVuSans-Oblique-4c" transform="translate(42.652786 38.965625) scale(0.7)"/>
    </g>
   </g>
   <g id="patch_8">
    <path d="M 233.156313 139.773796 
Q 228.967864 142.242511 225.742592 144.14352 
" style="fill: none; stroke: #000000; stroke-linecap: round"/>
    <path d="M 230.204102 143.835415 
L 225.742592 144.14352 
L 228.173014 140.389449 
" style="fill: none; stroke: #000000; stroke-linecap: round"/>
   </g>
   <g id="text_17">
    <!-- $f^U$ -->
    <g transform="translate(236.879702 137.479927) scale(0.1 -0.1)">
     <defs>
      <path id="DejaVuSans-Oblique-55" d="M 991 4666 
L 1625 4666 
L 1075 1831 
Q 1041 1641 1027 1517 
Q 1013 1394 1013 1300 
Q 1013 869 1253 645 
Q 1494 422 1959 422 
Q 2563 422 2898 753 
Q 3234 1084 3378 1831 
L 3928 4666 
L 4563 4666 
L 4000 1753 
Q 3816 809 3300 359 
Q 2784 -91 1888 -91 
Q 1188 -91 780 261 
Q 372 613 372 1216 
Q 372 1325 387 1461 
Q 403 1597 434 1753 
L 991 4666 
z
" transform="scale(0.015625)"/>
     </defs>
     <use xlink:href="#DejaVuSans-Oblique-66" transform="translate(0 0.684375)"/>
     <use xlink:href="#DejaVuSans-Oblique-55" transform="translate(42.652786 38.965625) scale(0.7)"/>
    </g>
   </g>
  </g>
  <g id="axes_2">
   <g id="patch_9">
    <path d="M 64.8 342.7192 
L 295.2 342.7192 
L 295.2 221.7592 
L 64.8 221.7592 
z
" style="fill: #ffffff"/>
   </g>
   <g id="matplotlib.axis_3">
    <g id="xtick_7">
     <g id="line2d_14">
      <g>
       <use xlink:href="#m6bad1f20d5" x="87.84" y="342.7192" style="stroke: #000000; stroke-width: 0.8"/>
      </g>
     </g>
     <g id="text_18">
      <!-- 0.1 -->
      <g transform="translate(79.888438 357.317637) scale(0.1 -0.1)">
       <use xlink:href="#DejaVuSans-30"/>
       <use xlink:href="#DejaVuSans-2e" x="63.623047"/>
       <use xlink:href="#DejaVuSans-31" x="95.410156"/>
      </g>
     </g>
    </g>
    <g id="xtick_8">
     <g id="line2d_15">
      <g>
       <use xlink:href="#m6bad1f20d5" x="180" y="342.7192" style="stroke: #000000; stroke-width: 0.8"/>
      </g>
     </g>
     <g id="text_19">
      <!-- 0.5 -->
      <g transform="translate(172.048438 357.317637) scale(0.1 -0.1)">
       <defs>
        <path id="DejaVuSans-35" d="M 691 4666 
L 3169 4666 
L 3169 4134 
L 1269 4134 
L 1269 2991 
Q 1406 3038 1543 3061 
Q 1681 3084 1819 3084 
Q 2600 3084 3056 2656 
Q 3513 2228 3513 1497 
Q 3513 744 3044 326 
Q 2575 -91 1722 -91 
Q 1428 -91 1123 -41 
Q 819 9 494 109 
L 494 744 
Q 775 591 1075 516 
Q 1375 441 1709 441 
Q 2250 441 2565 725 
Q 2881 1009 2881 1497 
Q 2881 1984 2565 2268 
Q 2250 2553 1709 2553 
Q 1456 2553 1204 2497 
Q 953 2441 691 2322 
L 691 4666 
z
" transform="scale(0.015625)"/>
       </defs>
       <use xlink:href="#DejaVuSans-30"/>
       <use xlink:href="#DejaVuSans-2e" x="63.623047"/>
       <use xlink:href="#DejaVuSans-35" x="95.410156"/>
      </g>
     </g>
    </g>
    <g id="xtick_9">
     <g id="line2d_16">
      <g>
       <use xlink:href="#m6bad1f20d5" x="272.16" y="342.7192" style="stroke: #000000; stroke-width: 0.8"/>
      </g>
     </g>
     <g id="text_20">
      <!-- 0.9 -->
      <g transform="translate(264.208437 357.317637) scale(0.1 -0.1)">
       <defs>
        <path id="DejaVuSans-39" d="M 703 97 
L 703 672 
Q 941 559 1184 500 
Q 1428 441 1663 441 
Q 2288 441 2617 861 
Q 2947 1281 2994 2138 
Q 2813 1869 2534 1725 
Q 2256 1581 1919 1581 
Q 1219 1581 811 2004 
Q 403 2428 403 3163 
Q 403 3881 828 4315 
Q 1253 4750 1959 4750 
Q 2769 4750 3195 4129 
Q 3622 3509 3622 2328 
Q 3622 1225 3098 567 
Q 2575 -91 1691 -91 
Q 1453 -91 1209 -44 
Q 966 3 703 97 
z
M 1959 2075 
Q 2384 2075 2632 2365 
Q 2881 2656 2881 3163 
Q 2881 3666 2632 3958 
Q 2384 4250 1959 4250 
Q 1534 4250 1286 3958 
Q 1038 3666 1038 3163 
Q 1038 2656 1286 2365 
Q 1534 2075 1959 2075 
z
" transform="scale(0.015625)"/>
       </defs>
       <use xlink:href="#DejaVuSans-30"/>
       <use xlink:href="#DejaVuSans-2e" x="63.623047"/>
       <use xlink:href="#DejaVuSans-39" x="95.410156"/>
      </g>
     </g>
    </g>
    <g id="text_21">
     <!--  Selected mutant frequency in cycle $k$, $f^*_k$ -->
     <g transform="translate(76.45 372.497325) scale(0.1 -0.1)">
      <use xlink:href="#DejaVuSans-20" transform="translate(0 0.701562)"/>
      <use xlink:href="#DejaVuSans-53" transform="translate(31.787109 0.701562)"/>
      <use xlink:href="#DejaVuSans-65" transform="translate(95.263672 0.701562)"/>
      <use xlink:href="#DejaVuSans-6c" transform="translate(156.787109 0.701562)"/>
      <use xlink:href="#DejaVuSans-65" transform="translate(184.570312 0.701562)"/>
      <use xlink:href="#DejaVuSans-63" transform="translate(246.09375 0.701562)"/>
      <use xlink:href="#DejaVuSans-74" transform="translate(301.074219 0.701562)"/>
      <use xlink:href="#DejaVuSans-65" transform="translate(340.283203 0.701562)"/>
      <use xlink:href="#DejaVuSans-64" transform="translate(401.806641 0.701562)"/>
      <use xlink:href="#DejaVuSans-20" transform="translate(465.283203 0.701562)"/>
      <use xlink:href="#DejaVuSans-6d" transform="translate(497.070312 0.701562)"/>
      <use xlink:href="#DejaVuSans-75" transform="translate(594.482422 0.701562)"/>
      <use xlink:href="#DejaVuSans-74" transform="translate(657.861328 0.701562)"/>
      <use xlink:href="#DejaVuSans-61" transform="translate(697.070312 0.701562)"/>
      <use xlink:href="#DejaVuSans-6e" transform="translate(758.349609 0.701562)"/>
      <use xlink:href="#DejaVuSans-74" transform="translate(821.728516 0.701562)"/>
      <use xlink:href="#DejaVuSans-20" transform="translate(860.9375 0.701562)"/>
      <use xlink:href="#DejaVuSans-66" transform="translate(892.724609 0.701562)"/>
      <use xlink:href="#DejaVuSans-72" transform="translate(927.929688 0.701562)"/>
      <use xlink:href="#DejaVuSans-65" transform="translate(969.042969 0.701562)"/>
      <use xlink:href="#DejaVuSans-71" transform="translate(1030.566406 0.701562)"/>
      <use xlink:href="#DejaVuSans-75" transform="translate(1094.042969 0.701562)"/>
      <use xlink:href="#DejaVuSans-65" transform="translate(1157.421875 0.701562)"/>
      <use xlink:href="#DejaVuSans-6e" transform="translate(1218.945312 0.701562)"/>
      <use xlink:href="#DejaVuSans-63" transform="translate(1282.324219 0.701562)"/>
      <use xlink:href="#DejaVuSans-79" transform="translate(1337.304688 0.701562)"/>
      <use xlink:href="#DejaVuSans-20" transform="translate(1396.484375 0.701562)"/>
      <use xlink:href="#DejaVuSans-69" transform="translate(1428.271484 0.701562)"/>
      <use xlink:href="#DejaVuSans-6e" transform="translate(1456.054688 0.701562)"/>
      <use xlink:href="#DejaVuSans-20" transform="translate(1519.433594 0.701562)"/>
      <use xlink:href="#DejaVuSans-63" transform="translate(1551.220703 0.701562)"/>
      <use xlink:href="#DejaVuSans-79" transform="translate(1606.201172 0.701562)"/>
      <use xlink:href="#DejaVuSans-63" transform="translate(1665.380859 0.701562)"/>
      <use xlink:href="#DejaVuSans-6c" transform="translate(1720.361328 0.701562)"/>
      <use xlink:href="#DejaVuSans-65" transform="translate(1748.144531 0.701562)"/>
      <use xlink:href="#DejaVuSans-20" transform="translate(1809.667969 0.701562)"/>
      <use xlink:href="#DejaVuSans-Oblique-6b" transform="translate(1841.455078 0.701562)"/>
      <use xlink:href="#DejaVuSans-2c" transform="translate(1899.365234 0.701562)"/>
      <use xlink:href="#DejaVuSans-20" transform="translate(1931.152344 0.701562)"/>
      <use xlink:href="#DejaVuSans-Oblique-66" transform="translate(1962.939453 0.701562)"/>
      <use xlink:href="#DejaVuSans-2a" transform="translate(2019.229935 39.046875) scale(0.7)"/>
      <use xlink:href="#DejaVuSans-Oblique-6b" transform="translate(1998.144531 -26.642188) scale(0.7)"/>
     </g>
    </g>
   </g>
   <g id="matplotlib.axis_4">
    <g id="ytick_6">
     <g id="line2d_17">
      <g>
       <use xlink:href="#md18ab771d2" x="64.8" y="337.66857" style="stroke: #000000; stroke-width: 0.8"/>
      </g>
     </g>
     <g id="text_22">
      <!-- −0.10 -->
      <g transform="translate(27.154687 341.467788) scale(0.1 -0.1)">
       <use xlink:href="#DejaVuSans-2212"/>
       <use xlink:href="#DejaVuSans-30" x="83.789062"/>
       <use xlink:href="#DejaVuSans-2e" x="147.412109"/>
       <use xlink:href="#DejaVuSans-31" x="179.199219"/>
       <use xlink:href="#DejaVuSans-30" x="242.822266"/>
      </g>
     </g>
    </g>
    <g id="ytick_7">
     <g id="line2d_18">
      <g>
       <use xlink:href="#md18ab771d2" x="64.8" y="309.482366" style="stroke: #000000; stroke-width: 0.8"/>
      </g>
     </g>
     <g id="text_23">
      <!-- −0.05 -->
      <g transform="translate(27.154687 313.281584) scale(0.1 -0.1)">
       <use xlink:href="#DejaVuSans-2212"/>
       <use xlink:href="#DejaVuSans-30" x="83.789062"/>
       <use xlink:href="#DejaVuSans-2e" x="147.412109"/>
       <use xlink:href="#DejaVuSans-30" x="179.199219"/>
       <use xlink:href="#DejaVuSans-35" x="242.822266"/>
      </g>
     </g>
    </g>
    <g id="ytick_8">
     <g id="line2d_19">
      <g>
       <use xlink:href="#md18ab771d2" x="64.8" y="281.296162" style="stroke: #000000; stroke-width: 0.8"/>
      </g>
     </g>
     <g id="text_24">
      <!-- 0.00 -->
      <g transform="translate(35.534375 285.09538) scale(0.1 -0.1)">
       <use xlink:href="#DejaVuSans-30"/>
       <use xlink:href="#DejaVuSans-2e" x="63.623047"/>
       <use xlink:href="#DejaVuSans-30" x="95.410156"/>
       <use xlink:href="#DejaVuSans-30" x="159.033203"/>
      </g>
     </g>
    </g>
    <g id="ytick_9">
     <g id="line2d_20">
      <g>
       <use xlink:href="#md18ab771d2" x="64.8" y="253.109958" style="stroke: #000000; stroke-width: 0.8"/>
      </g>
     </g>
     <g id="text_25">
      <!-- 0.05 -->
      <g transform="translate(35.534375 256.909176) scale(0.1 -0.1)">
       <use xlink:href="#DejaVuSans-30"/>
       <use xlink:href="#DejaVuSans-2e" x="63.623047"/>
       <use xlink:href="#DejaVuSans-30" x="95.410156"/>
       <use xlink:href="#DejaVuSans-35" x="159.033203"/>
      </g>
     </g>
    </g>
    <g id="ytick_10">
     <g id="line2d_21">
      <g>
       <use xlink:href="#md18ab771d2" x="64.8" y="224.923754" style="stroke: #000000; stroke-width: 0.8"/>
      </g>
     </g>
     <g id="text_26">
      <!-- 0.10 -->
      <g transform="translate(35.534375 228.722972) scale(0.1 -0.1)">
       <use xlink:href="#DejaVuSans-30"/>
       <use xlink:href="#DejaVuSans-2e" x="63.623047"/>
       <use xlink:href="#DejaVuSans-31" x="95.410156"/>
       <use xlink:href="#DejaVuSans-30" x="159.033203"/>
      </g>
     </g>
    </g>
    <g id="text_27">
     <!-- Frequency difference -->
     <g transform="translate(21.075 334.832169) rotate(-90) scale(0.1 -0.1)">
      <defs>
       <path id="DejaVuSans-46" d="M 628 4666 
L 3309 4666 
L 3309 4134 
L 1259 4134 
L 1259 2759 
L 3109 2759 
L 3109 2228 
L 1259 2228 
L 1259 0 
L 628 0 
L 628 4666 
z
" transform="scale(0.015625)"/>
      </defs>
      <use xlink:href="#DejaVuSans-46"/>
      <use xlink:href="#DejaVuSans-72" x="50.269531"/>
      <use xlink:href="#DejaVuSans-65" x="89.132812"/>
      <use xlink:href="#DejaVuSans-71" x="150.65625"/>
      <use xlink:href="#DejaVuSans-75" x="214.132812"/>
      <use xlink:href="#DejaVuSans-65" x="277.511719"/>
      <use xlink:href="#DejaVuSans-6e" x="339.035156"/>
      <use xlink:href="#DejaVuSans-63" x="402.414062"/>
      <use xlink:href="#DejaVuSans-79" x="457.394531"/>
      <use xlink:href="#DejaVuSans-20" x="516.574219"/>
      <use xlink:href="#DejaVuSans-64" x="548.361328"/>
      <use xlink:href="#DejaVuSans-69" x="611.837891"/>
      <use xlink:href="#DejaVuSans-66" x="639.621094"/>
      <use xlink:href="#DejaVuSans-66" x="674.826172"/>
      <use xlink:href="#DejaVuSans-65" x="710.03125"/>
      <use xlink:href="#DejaVuSans-72" x="771.554688"/>
      <use xlink:href="#DejaVuSans-65" x="810.417969"/>
      <use xlink:href="#DejaVuSans-6e" x="871.941406"/>
      <use xlink:href="#DejaVuSans-63" x="935.320312"/>
      <use xlink:href="#DejaVuSans-65" x="990.300781"/>
     </g>
    </g>
   </g>
   <g id="LineCollection_3">
    <path d="M 64.8 281.296162 
L 295.2 281.296162 
" clip-path="url(#p97a34791a7)" style="fill: none; stroke-dasharray: 1.5,2.475; stroke-dashoffset: 0; stroke: #000000; stroke-width: 1.5"/>
   </g>
   <g id="line2d_22">
    <path d="M 68.256 279.411267 
L 79.776 279.411267 
L 79.776 268.623097 
L 68.256 268.623097 
L 68.256 279.411267 
" clip-path="url(#p97a34791a7)" style="fill: none; stroke: #1f77b4; stroke-linecap: square"/>
   </g>
   <g id="line2d_23">
    <path d="M 74.016 279.411267 
L 74.016 295.572623 
" clip-path="url(#p97a34791a7)" style="fill: none; stroke: #000000; stroke-linecap: square"/>
   </g>
   <g id="line2d_24">
    <path d="M 74.016 268.623097 
L 74.016 252.470693 
" clip-path="url(#p97a34791a7)" style="fill: none; stroke: #000000; stroke-linecap: square"/>
   </g>
   <g id="line2d_25">
    <path d="M 71.136 295.572623 
L 76.896 295.572623 
" clip-path="url(#p97a34791a7)" style="fill: none; stroke: #000000; stroke-linecap: square"/>
   </g>
   <g id="line2d_26">
    <path d="M 71.136 252.470693 
L 76.896 252.470693 
" clip-path="url(#p97a34791a7)" style="fill: none; stroke: #000000; stroke-linecap: square"/>
   </g>
   <g id="line2d_27">
    <path d="M 82.08 296.067881 
L 93.6 296.067881 
L 93.6 290.364757 
L 82.08 290.364757 
L 82.08 296.067881 
" clip-path="url(#p97a34791a7)" style="fill: none; stroke: #ff7f0e; stroke-linecap: square"/>
   </g>
   <g id="line2d_28">
    <path d="M 87.84 296.067881 
L 87.84 304.475906 
" clip-path="url(#p97a34791a7)" style="fill: none; stroke: #000000; stroke-linecap: square"/>
   </g>
   <g id="line2d_29">
    <path d="M 87.84 290.364757 
L 87.84 282.169065 
" clip-path="url(#p97a34791a7)" style="fill: none; stroke: #000000; stroke-linecap: square"/>
   </g>
   <g id="line2d_30">
    <path d="M 84.96 304.475906 
L 90.72 304.475906 
" clip-path="url(#p97a34791a7)" style="fill: none; stroke: #000000; stroke-linecap: square"/>
   </g>
   <g id="line2d_31">
    <path d="M 84.96 282.169065 
L 90.72 282.169065 
" clip-path="url(#p97a34791a7)" style="fill: none; stroke: #000000; stroke-linecap: square"/>
   </g>
   <g id="line2d_32">
    <path d="M 95.904 288.710415 
L 107.424 288.710415 
L 107.424 283.007291 
L 95.904 283.007291 
L 95.904 288.710415 
" clip-path="url(#p97a34791a7)" style="fill: none; stroke: #2ca02c; stroke-linecap: square"/>
   </g>
   <g id="line2d_33">
    <path d="M 101.664 288.710415 
L 101.664 297.11844 
" clip-path="url(#p97a34791a7)" style="fill: none; stroke: #000000; stroke-linecap: square"/>
   </g>
   <g id="line2d_34">
    <path d="M 101.664 283.007291 
L 101.664 274.811599 
" clip-path="url(#p97a34791a7)" style="fill: none; stroke: #000000; stroke-linecap: square"/>
   </g>
   <g id="line2d_35">
    <path d="M 98.784 297.11844 
L 104.544 297.11844 
" clip-path="url(#p97a34791a7)" style="fill: none; stroke: #000000; stroke-linecap: square"/>
   </g>
   <g id="line2d_36">
    <path d="M 98.784 274.811599 
L 104.544 274.811599 
" clip-path="url(#p97a34791a7)" style="fill: none; stroke: #000000; stroke-linecap: square"/>
   </g>
   <g id="line2d_37">
    <path d="M 160.416 269.235311 
L 171.936 269.235311 
L 171.936 252.357498 
L 160.416 252.357498 
L 160.416 269.235311 
" clip-path="url(#p97a34791a7)" style="fill: none; stroke: #1f77b4; stroke-linecap: square"/>
   </g>
   <g id="line2d_38">
    <path d="M 166.176 269.235311 
L 166.176 294.318089 
" clip-path="url(#p97a34791a7)" style="fill: none; stroke: #000000; stroke-linecap: square"/>
   </g>
   <g id="line2d_39">
    <path d="M 166.176 252.357498 
L 166.176 227.257382 
" clip-path="url(#p97a34791a7)" style="fill: none; stroke: #000000; stroke-linecap: square"/>
   </g>
   <g id="line2d_40">
    <path d="M 163.296 294.318089 
L 169.056 294.318089 
" clip-path="url(#p97a34791a7)" style="fill: none; stroke: #000000; stroke-linecap: square"/>
   </g>
   <g id="line2d_41">
    <path d="M 163.296 227.257382 
L 169.056 227.257382 
" clip-path="url(#p97a34791a7)" style="fill: none; stroke: #000000; stroke-linecap: square"/>
   </g>
   <g id="line2d_42">
    <path d="M 174.24 305.079122 
L 185.76 305.079122 
L 185.76 295.324309 
L 174.24 295.324309 
L 174.24 305.079122 
" clip-path="url(#p97a34791a7)" style="fill: none; stroke: #ff7f0e; stroke-linecap: square"/>
   </g>
   <g id="line2d_43">
    <path d="M 180 305.079122 
L 180 319.468646 
" clip-path="url(#p97a34791a7)" style="fill: none; stroke: #000000; stroke-linecap: square"/>
   </g>
   <g id="line2d_44">
    <path d="M 180 295.324309 
L 180 280.99673 
" clip-path="url(#p97a34791a7)" style="fill: none; stroke: #000000; stroke-linecap: square"/>
   </g>
   <g id="line2d_45">
    <path d="M 177.12 319.468646 
L 182.88 319.468646 
" clip-path="url(#p97a34791a7)" style="fill: none; stroke: #000000; stroke-linecap: square"/>
   </g>
   <g id="line2d_46">
    <path d="M 177.12 280.99673 
L 182.88 280.99673 
" clip-path="url(#p97a34791a7)" style="fill: none; stroke: #000000; stroke-linecap: square"/>
   </g>
   <g id="line2d_47">
    <path d="M 188.064 284.633703 
L 199.584 284.633703 
L 199.584 274.87889 
L 188.064 274.87889 
L 188.064 284.633703 
" clip-path="url(#p97a34791a7)" style="fill: none; stroke: #2ca02c; stroke-linecap: square"/>
   </g>
   <g id="line2d_48">
    <path d="M 193.824 284.633703 
L 193.824 299.023227 
" clip-path="url(#p97a34791a7)" style="fill: none; stroke: #000000; stroke-linecap: square"/>
   </g>
   <g id="line2d_49">
    <path d="M 193.824 274.87889 
L 193.824 260.551311 
" clip-path="url(#p97a34791a7)" style="fill: none; stroke: #000000; stroke-linecap: square"/>
   </g>
   <g id="line2d_50">
    <path d="M 190.944 299.023227 
L 196.704 299.023227 
" clip-path="url(#p97a34791a7)" style="fill: none; stroke: #000000; stroke-linecap: square"/>
   </g>
   <g id="line2d_51">
    <path d="M 190.944 260.551311 
L 196.704 260.551311 
" clip-path="url(#p97a34791a7)" style="fill: none; stroke: #000000; stroke-linecap: square"/>
   </g>
   <g id="line2d_52">
    <path d="M 252.576 278.275037 
L 264.096 278.275037 
L 264.096 268.986693 
L 252.576 268.986693 
L 252.576 278.275037 
" clip-path="url(#p97a34791a7)" style="fill: none; stroke: #1f77b4; stroke-linecap: square"/>
   </g>
   <g id="line2d_53">
    <path d="M 258.336 278.275037 
L 258.336 292.135126 
" clip-path="url(#p97a34791a7)" style="fill: none; stroke: #000000; stroke-linecap: square"/>
   </g>
   <g id="line2d_54">
    <path d="M 258.336 268.986693 
L 258.336 255.07924 
" clip-path="url(#p97a34791a7)" style="fill: none; stroke: #000000; stroke-linecap: square"/>
   </g>
   <g id="line2d_55">
    <path d="M 255.456 292.135126 
L 261.216 292.135126 
" clip-path="url(#p97a34791a7)" style="fill: none; stroke: #000000; stroke-linecap: square"/>
   </g>
   <g id="line2d_56">
    <path d="M 255.456 255.07924 
L 261.216 255.07924 
" clip-path="url(#p97a34791a7)" style="fill: none; stroke: #000000; stroke-linecap: square"/>
   </g>
   <g id="line2d_57">
    <path d="M 266.4 294.877837 
L 277.92 294.877837 
L 277.92 289.107313 
L 266.4 289.107313 
L 266.4 294.877837 
" clip-path="url(#p97a34791a7)" style="fill: none; stroke: #ff7f0e; stroke-linecap: square"/>
   </g>
   <g id="line2d_58">
    <path d="M 272.16 294.877837 
L 272.16 303.423083 
" clip-path="url(#p97a34791a7)" style="fill: none; stroke: #000000; stroke-linecap: square"/>
   </g>
   <g id="line2d_59">
    <path d="M 272.16 289.107313 
L 272.16 280.710196 
" clip-path="url(#p97a34791a7)" style="fill: none; stroke: #000000; stroke-linecap: square"/>
   </g>
   <g id="line2d_60">
    <path d="M 269.28 303.423083 
L 275.04 303.423083 
" clip-path="url(#p97a34791a7)" style="fill: none; stroke: #000000; stroke-linecap: square"/>
   </g>
   <g id="line2d_61">
    <path d="M 269.28 280.710196 
L 275.04 280.710196 
" clip-path="url(#p97a34791a7)" style="fill: none; stroke: #000000; stroke-linecap: square"/>
   </g>
   <g id="line2d_62">
    <path d="M 280.224 287.33889 
L 291.744 287.33889 
L 291.744 281.568366 
L 280.224 281.568366 
L 280.224 287.33889 
" clip-path="url(#p97a34791a7)" style="fill: none; stroke: #2ca02c; stroke-linecap: square"/>
   </g>
   <g id="line2d_63">
    <path d="M 285.984 287.33889 
L 285.984 295.884136 
" clip-path="url(#p97a34791a7)" style="fill: none; stroke: #000000; stroke-linecap: square"/>
   </g>
   <g id="line2d_64">
    <path d="M 285.984 281.568366 
L 285.984 273.17125 
" clip-path="url(#p97a34791a7)" style="fill: none; stroke: #000000; stroke-linecap: square"/>
   </g>
   <g id="line2d_65">
    <path d="M 283.104 295.884136 
L 288.864 295.884136 
" clip-path="url(#p97a34791a7)" style="fill: none; stroke: #000000; stroke-linecap: square"/>
   </g>
   <g id="line2d_66">
    <path d="M 283.104 273.17125 
L 288.864 273.17125 
" clip-path="url(#p97a34791a7)" style="fill: none; stroke: #000000; stroke-linecap: square"/>
   </g>
   <g id="LineCollection_4">
    <path d="M 74.016 314.731058 
L 74.016 311.691522 
" clip-path="url(#p97a34791a7)" style="fill: none; stroke: #000000; stroke-width: 1.5"/>
    <path d="M 166.176 314.731058 
L 166.176 311.691522 
" clip-path="url(#p97a34791a7)" style="fill: none; stroke: #000000; stroke-width: 1.5"/>
   </g>
   <g id="LineCollection_5">
    <path d="M 74.016 314.731058 
L 166.176 314.731058 
" clip-path="url(#p97a34791a7)" style="fill: none; stroke: #000000; stroke-width: 1.5"/>
   </g>
   <g id="LineCollection_6">
    <path d="M 87.84 337.221018 
L 87.84 332.13694 
" clip-path="url(#p97a34791a7)" style="fill: none; stroke: #000000; stroke-width: 1.5"/>
    <path d="M 180 337.221018 
L 180 332.13694 
" clip-path="url(#p97a34791a7)" style="fill: none; stroke: #000000; stroke-width: 1.5"/>
   </g>
   <g id="LineCollection_7">
    <path d="M 87.84 337.221018 
L 180 337.221018 
" clip-path="url(#p97a34791a7)" style="fill: none; stroke: #000000; stroke-width: 1.5"/>
   </g>
   <g id="line2d_67">
    <path d="M 68.256 274.05542 
L 79.776 274.05542 
" clip-path="url(#p97a34791a7)" style="fill: none; stroke: #1f77b4; stroke-linecap: square"/>
   </g>
   <g id="line2d_68">
    <path d="M 82.08 293.311744 
L 93.6 293.311744 
" clip-path="url(#p97a34791a7)" style="fill: none; stroke: #ff7f0e; stroke-linecap: square"/>
   </g>
   <g id="line2d_69">
    <path d="M 95.904 285.954278 
L 107.424 285.954278 
" clip-path="url(#p97a34791a7)" style="fill: none; stroke: #2ca02c; stroke-linecap: square"/>
   </g>
   <g id="line2d_70">
    <path d="M 160.416 260.66624 
L 171.936 260.66624 
" clip-path="url(#p97a34791a7)" style="fill: none; stroke: #1f77b4; stroke-linecap: square"/>
   </g>
   <g id="line2d_71">
    <path d="M 174.24 300.132027 
L 185.76 300.132027 
" clip-path="url(#p97a34791a7)" style="fill: none; stroke: #ff7f0e; stroke-linecap: square"/>
   </g>
   <g id="line2d_72">
    <path d="M 188.064 279.686608 
L 199.584 279.686608 
" clip-path="url(#p97a34791a7)" style="fill: none; stroke: #2ca02c; stroke-linecap: square"/>
   </g>
   <g id="line2d_73">
    <path d="M 252.576 273.655279 
L 264.096 273.655279 
" clip-path="url(#p97a34791a7)" style="fill: none; stroke: #1f77b4; stroke-linecap: square"/>
   </g>
   <g id="line2d_74">
    <path d="M 266.4 291.983657 
L 277.92 291.983657 
" clip-path="url(#p97a34791a7)" style="fill: none; stroke: #ff7f0e; stroke-linecap: square"/>
   </g>
   <g id="line2d_75">
    <path d="M 280.224 284.44471 
L 291.744 284.44471 
" clip-path="url(#p97a34791a7)" style="fill: none; stroke: #2ca02c; stroke-linecap: square"/>
   </g>
   <g id="patch_10">
    <path d="M 64.8 342.7192 
L 64.8 221.7592 
" style="fill: none; stroke: #000000; stroke-width: 0.8; stroke-linejoin: miter; stroke-linecap: square"/>
   </g>
   <g id="patch_11">
    <path d="M 295.2 342.7192 
L 295.2 221.7592 
" style="fill: none; stroke: #000000; stroke-width: 0.8; stroke-linejoin: miter; stroke-linecap: square"/>
   </g>
   <g id="patch_12">
    <path d="M 64.8 342.7192 
L 295.2 342.7192 
" style="fill: none; stroke: #000000; stroke-width: 0.8; stroke-linejoin: miter; stroke-linecap: square"/>
   </g>
   <g id="patch_13">
    <path d="M 64.8 221.7592 
L 295.2 221.7592 
" style="fill: none; stroke: #000000; stroke-width: 0.8; stroke-linejoin: miter; stroke-linecap: square"/>
   </g>
   <g id="text_28">
    <!-- b -->
    <g transform="translate(7.2 213.292) scale(0.1 -0.1)">
     <defs>
      <path id="DejaVuSans-Bold-62" d="M 2400 722 
Q 2759 722 2948 984 
Q 3138 1247 3138 1747 
Q 3138 2247 2948 2509 
Q 2759 2772 2400 2772 
Q 2041 2772 1848 2508 
Q 1656 2244 1656 1747 
Q 1656 1250 1848 986 
Q 2041 722 2400 722 
z
M 1656 2988 
Q 1888 3294 2169 3439 
Q 2450 3584 2816 3584 
Q 3463 3584 3878 3070 
Q 4294 2556 4294 1747 
Q 4294 938 3878 423 
Q 3463 -91 2816 -91 
Q 2450 -91 2169 54 
Q 1888 200 1656 506 
L 1656 0 
L 538 0 
L 538 4863 
L 1656 4863 
L 1656 2988 
z
" transform="scale(0.015625)"/>
     </defs>
     <use xlink:href="#DejaVuSans-Bold-62"/>
    </g>
   </g>
   <g id="text_29">
    <!-- Distribution of frequency changes in each steps -->
    <g transform="translate(18.72 213.292) scale(0.1 -0.1)">
     <defs>
      <path id="DejaVuSans-44" d="M 1259 4147 
L 1259 519 
L 2022 519 
Q 2988 519 3436 956 
Q 3884 1394 3884 2338 
Q 3884 3275 3436 3711 
Q 2988 4147 2022 4147 
L 1259 4147 
z
M 628 4666 
L 1925 4666 
Q 3281 4666 3915 4102 
Q 4550 3538 4550 2338 
Q 4550 1131 3912 565 
Q 3275 0 1925 0 
L 628 0 
L 628 4666 
z
" transform="scale(0.015625)"/>
      <path id="DejaVuSans-62" d="M 3116 1747 
Q 3116 2381 2855 2742 
Q 2594 3103 2138 3103 
Q 1681 3103 1420 2742 
Q 1159 2381 1159 1747 
Q 1159 1113 1420 752 
Q 1681 391 2138 391 
Q 2594 391 2855 752 
Q 3116 1113 3116 1747 
z
M 1159 2969 
Q 1341 3281 1617 3432 
Q 1894 3584 2278 3584 
Q 2916 3584 3314 3078 
Q 3713 2572 3713 1747 
Q 3713 922 3314 415 
Q 2916 -91 2278 -91 
Q 1894 -91 1617 61 
Q 1341 213 1159 525 
L 1159 0 
L 581 0 
L 581 4863 
L 1159 4863 
L 1159 2969 
z
" transform="scale(0.015625)"/>
      <path id="DejaVuSans-68" d="M 3513 2113 
L 3513 0 
L 2938 0 
L 2938 2094 
Q 2938 2591 2744 2837 
Q 2550 3084 2163 3084 
Q 1697 3084 1428 2787 
Q 1159 2491 1159 1978 
L 1159 0 
L 581 0 
L 581 4863 
L 1159 4863 
L 1159 2956 
Q 1366 3272 1645 3428 
Q 1925 3584 2291 3584 
Q 2894 3584 3203 3211 
Q 3513 2838 3513 2113 
z
" transform="scale(0.015625)"/>
      <path id="DejaVuSans-67" d="M 2906 1791 
Q 2906 2416 2648 2759 
Q 2391 3103 1925 3103 
Q 1463 3103 1205 2759 
Q 947 2416 947 1791 
Q 947 1169 1205 825 
Q 1463 481 1925 481 
Q 2391 481 2648 825 
Q 2906 1169 2906 1791 
z
M 3481 434 
Q 3481 -459 3084 -895 
Q 2688 -1331 1869 -1331 
Q 1566 -1331 1297 -1286 
Q 1028 -1241 775 -1147 
L 775 -588 
Q 1028 -725 1275 -790 
Q 1522 -856 1778 -856 
Q 2344 -856 2625 -561 
Q 2906 -266 2906 331 
L 2906 616 
Q 2728 306 2450 153 
Q 2172 0 1784 0 
Q 1141 0 747 490 
Q 353 981 353 1791 
Q 353 2603 747 3093 
Q 1141 3584 1784 3584 
Q 2172 3584 2450 3431 
Q 2728 3278 2906 2969 
L 2906 3500 
L 3481 3500 
L 3481 434 
z
" transform="scale(0.015625)"/>
      <path id="DejaVuSans-70" d="M 1159 525 
L 1159 -1331 
L 581 -1331 
L 581 3500 
L 1159 3500 
L 1159 2969 
Q 1341 3281 1617 3432 
Q 1894 3584 2278 3584 
Q 2916 3584 3314 3078 
Q 3713 2572 3713 1747 
Q 3713 922 3314 415 
Q 2916 -91 2278 -91 
Q 1894 -91 1617 61 
Q 1341 213 1159 525 
z
M 3116 1747 
Q 3116 2381 2855 2742 
Q 2594 3103 2138 3103 
Q 1681 3103 1420 2742 
Q 1159 2381 1159 1747 
Q 1159 1113 1420 752 
Q 1681 391 2138 391 
Q 2594 391 2855 752 
Q 3116 1113 3116 1747 
z
" transform="scale(0.015625)"/>
     </defs>
     <use xlink:href="#DejaVuSans-44"/>
     <use xlink:href="#DejaVuSans-69" x="77.001953"/>
     <use xlink:href="#DejaVuSans-73" x="104.785156"/>
     <use xlink:href="#DejaVuSans-74" x="156.884766"/>
     <use xlink:href="#DejaVuSans-72" x="196.09375"/>
     <use xlink:href="#DejaVuSans-69" x="237.207031"/>
     <use xlink:href="#DejaVuSans-62" x="264.990234"/>
     <use xlink:href="#DejaVuSans-75" x="328.466797"/>
     <use xlink:href="#DejaVuSans-74" x="391.845703"/>
     <use xlink:href="#DejaVuSans-69" x="431.054688"/>
     <use xlink:href="#DejaVuSans-6f" x="458.837891"/>
     <use xlink:href="#DejaVuSans-6e" x="520.019531"/>
     <use xlink:href="#DejaVuSans-20" x="583.398438"/>
     <use xlink:href="#DejaVuSans-6f" x="615.185547"/>
     <use xlink:href="#DejaVuSans-66" x="676.367188"/>
     <use xlink:href="#DejaVuSans-20" x="711.572266"/>
     <use xlink:href="#DejaVuSans-66" x="743.359375"/>
     <use xlink:href="#DejaVuSans-72" x="778.564453"/>
     <use xlink:href="#DejaVuSans-65" x="817.427734"/>
     <use xlink:href="#DejaVuSans-71" x="878.951172"/>
     <use xlink:href="#DejaVuSans-75" x="942.427734"/>
     <use xlink:href="#DejaVuSans-65" x="1005.806641"/>
     <use xlink:href="#DejaVuSans-6e" x="1067.330078"/>
     <use xlink:href="#DejaVuSans-63" x="1130.708984"/>
     <use xlink:href="#DejaVuSans-79" x="1185.689453"/>
     <use xlink:href="#DejaVuSans-20" x="1244.869141"/>
     <use xlink:href="#DejaVuSans-63" x="1276.65625"/>
     <use xlink:href="#DejaVuSans-68" x="1331.636719"/>
     <use xlink:href="#DejaVuSans-61" x="1395.015625"/>
     <use xlink:href="#DejaVuSans-6e" x="1456.294922"/>
     <use xlink:href="#DejaVuSans-67" x="1519.673828"/>
     <use xlink:href="#DejaVuSans-65" x="1583.150391"/>
     <use xlink:href="#DejaVuSans-73" x="1644.673828"/>
     <use xlink:href="#DejaVuSans-20" x="1696.773438"/>
     <use xlink:href="#DejaVuSans-69" x="1728.560547"/>
     <use xlink:href="#DejaVuSans-6e" x="1756.34375"/>
     <use xlink:href="#DejaVuSans-20" x="1819.722656"/>
     <use xlink:href="#DejaVuSans-65" x="1851.509766"/>
     <use xlink:href="#DejaVuSans-61" x="1913.033203"/>
     <use xlink:href="#DejaVuSans-63" x="1974.3125"/>
     <use xlink:href="#DejaVuSans-68" x="2029.292969"/>
     <use xlink:href="#DejaVuSans-20" x="2092.671875"/>
     <use xlink:href="#DejaVuSans-73" x="2124.458984"/>
     <use xlink:href="#DejaVuSans-74" x="2176.558594"/>
     <use xlink:href="#DejaVuSans-65" x="2215.767578"/>
     <use xlink:href="#DejaVuSans-70" x="2277.291016"/>
     <use xlink:href="#DejaVuSans-73" x="2340.767578"/>
    </g>
   </g>
   <g id="text_30">
    <!-- *** -->
    <g transform="translate(112.596 312.65137) scale(0.1 -0.1)">
     <use xlink:href="#DejaVuSans-2a"/>
     <use xlink:href="#DejaVuSans-2a" x="50"/>
     <use xlink:href="#DejaVuSans-2a" x="100"/>
    </g>
   </g>
   <g id="text_31">
    <!-- *** -->
    <g transform="translate(126.42 335.141331) scale(0.1 -0.1)">
     <use xlink:href="#DejaVuSans-2a"/>
     <use xlink:href="#DejaVuSans-2a" x="50"/>
     <use xlink:href="#DejaVuSans-2a" x="100"/>
    </g>
   </g>
   <g id="text_32">
    <!-- Intra-collective -->
    <g style="fill: #1f77b4" transform="translate(73.67862 246.022064) rotate(-15) scale(0.1 -0.1)">
     <defs>
      <path id="DejaVuSans-49" d="M 628 4666 
L 1259 4666 
L 1259 0 
L 628 0 
L 628 4666 
z
" transform="scale(0.015625)"/>
      <path id="DejaVuSans-2d" d="M 313 2009 
L 1997 2009 
L 1997 1497 
L 313 1497 
L 313 2009 
z
" transform="scale(0.015625)"/>
      <path id="DejaVuSans-76" d="M 191 3500 
L 800 3500 
L 1894 563 
L 2988 3500 
L 3597 3500 
L 2284 0 
L 1503 0 
L 191 3500 
z
" transform="scale(0.015625)"/>
     </defs>
     <use xlink:href="#DejaVuSans-49"/>
     <use xlink:href="#DejaVuSans-6e" x="29.492188"/>
     <use xlink:href="#DejaVuSans-74" x="92.871094"/>
     <use xlink:href="#DejaVuSans-72" x="132.080078"/>
     <use xlink:href="#DejaVuSans-61" x="173.193359"/>
     <use xlink:href="#DejaVuSans-2d" x="234.472656"/>
     <use xlink:href="#DejaVuSans-63" x="270.556641"/>
     <use xlink:href="#DejaVuSans-6f" x="325.537109"/>
     <use xlink:href="#DejaVuSans-6c" x="386.71875"/>
     <use xlink:href="#DejaVuSans-6c" x="414.501953"/>
     <use xlink:href="#DejaVuSans-65" x="442.285156"/>
     <use xlink:href="#DejaVuSans-63" x="503.808594"/>
     <use xlink:href="#DejaVuSans-74" x="558.789062"/>
     <use xlink:href="#DejaVuSans-69" x="597.998047"/>
     <use xlink:href="#DejaVuSans-76" x="625.78125"/>
     <use xlink:href="#DejaVuSans-65" x="684.960938"/>
    </g>
   </g>
   <g id="text_33">
    <!-- Inter-collective -->
    <g style="fill: #ff7f0e" transform="translate(85.19862 258.118064) rotate(-15) scale(0.1 -0.1)">
     <use xlink:href="#DejaVuSans-49"/>
     <use xlink:href="#DejaVuSans-6e" x="29.492188"/>
     <use xlink:href="#DejaVuSans-74" x="92.871094"/>
     <use xlink:href="#DejaVuSans-65" x="132.080078"/>
     <use xlink:href="#DejaVuSans-72" x="193.603516"/>
     <use xlink:href="#DejaVuSans-2d" x="228.341797"/>
     <use xlink:href="#DejaVuSans-63" x="264.425781"/>
     <use xlink:href="#DejaVuSans-6f" x="319.40625"/>
     <use xlink:href="#DejaVuSans-6c" x="380.587891"/>
     <use xlink:href="#DejaVuSans-6c" x="408.371094"/>
     <use xlink:href="#DejaVuSans-65" x="436.154297"/>
     <use xlink:href="#DejaVuSans-63" x="497.677734"/>
     <use xlink:href="#DejaVuSans-74" x="552.658203"/>
     <use xlink:href="#DejaVuSans-69" x="591.867188"/>
     <use xlink:href="#DejaVuSans-76" x="619.650391"/>
     <use xlink:href="#DejaVuSans-65" x="678.830078"/>
    </g>
   </g>
   <g id="text_34">
    <!-- Total -->
    <g style="fill: #2ca02c" transform="translate(99.02262 269.004464) rotate(-15) scale(0.1 -0.1)">
     <defs>
      <path id="DejaVuSans-54" d="M -19 4666 
L 3928 4666 
L 3928 4134 
L 2272 4134 
L 2272 0 
L 1638 0 
L 1638 4134 
L -19 4134 
L -19 4666 
z
" transform="scale(0.015625)"/>
     </defs>
     <use xlink:href="#DejaVuSans-54"/>
     <use xlink:href="#DejaVuSans-6f" x="44.083984"/>
     <use xlink:href="#DejaVuSans-74" x="105.265625"/>
     <use xlink:href="#DejaVuSans-61" x="144.474609"/>
     <use xlink:href="#DejaVuSans-6c" x="205.753906"/>
    </g>
   </g>
  </g>
  <g id="axes_3">
   <g id="PolyCollection_1">
    <defs>
     <path id="m15728f8be5" d="M 18.72 -154.08 
L 18.72 -171.36 
L 203.04 -171.36 
L 203.04 -154.08 
L 203.04 -154.08 
L 18.72 -154.08 
z
" style="stroke: #008000; stroke-opacity: 0.3"/>
    </defs>
    <g clip-path="url(#pf24b1c66ff)">
     <use xlink:href="#m15728f8be5" x="0" y="584.9272" style="fill: #008000; fill-opacity: 0.3; stroke: #008000; stroke-opacity: 0.3"/>
    </g>
   </g>
   <g id="PathCollection_1">
    <defs>
     <path id="m669ade0ebf" d="M 0 3 
C 0.795609 3 1.55874 2.683901 2.12132 2.12132 
C 2.683901 1.55874 3 0.795609 3 0 
C 3 -0.795609 2.683901 -1.55874 2.12132 -2.12132 
C 1.55874 -2.683901 0.795609 -3 0 -3 
C -0.795609 -3 -1.55874 -2.683901 -2.12132 -2.12132 
C -2.683901 -1.55874 -3 -0.795609 -3 0 
C -3 0.795609 -2.683901 1.55874 -2.12132 2.12132 
C -1.55874 2.683901 -0.795609 3 0 3 
z
" style="stroke: #000000"/>
    </defs>
    <g clip-path="url(#pf24b1c66ff)">
     <use xlink:href="#m669ade0ebf" x="55.584" y="422.2072" style="stroke: #000000"/>
    </g>
   </g>
   <g id="PathCollection_2">
    <g clip-path="url(#pf24b1c66ff)">
     <use xlink:href="#m669ade0ebf" x="110.88" y="422.2072" style="stroke: #000000"/>
    </g>
   </g>
   <g id="PathCollection_3">
    <g clip-path="url(#pf24b1c66ff)">
     <use xlink:href="#m669ade0ebf" x="166.176" y="422.2072" style="stroke: #000000"/>
    </g>
   </g>
   <g id="LineCollection_8">
    <path d="M 184.608 430.8472 
L 184.608 413.5672 
" clip-path="url(#pf24b1c66ff)" style="fill: none; stroke-dasharray: 1.5,2.475; stroke-dashoffset: 0; stroke: #000000; stroke-width: 1.5"/>
   </g>
   <g id="LineCollection_9">
    <path d="M 74.016 426.5272 
L 74.016 435.1672 
" clip-path="url(#pf24b1c66ff)" style="fill: none; stroke: #000000; stroke-width: 1.5"/>
    <path d="M 147.744 426.5272 
L 147.744 435.1672 
" clip-path="url(#pf24b1c66ff)" style="fill: none; stroke: #000000; stroke-width: 1.5"/>
   </g>
   <g id="text_35">
    <!-- c -->
    <g transform="translate(18.72 404.9272) scale(0.1 -0.1)">
     <defs>
      <path id="DejaVuSans-Bold-63" d="M 3366 3391 
L 3366 2478 
Q 3138 2634 2908 2709 
Q 2678 2784 2431 2784 
Q 1963 2784 1702 2511 
Q 1441 2238 1441 1747 
Q 1441 1256 1702 982 
Q 1963 709 2431 709 
Q 2694 709 2930 787 
Q 3166 866 3366 1019 
L 3366 103 
Q 3103 6 2833 -42 
Q 2563 -91 2291 -91 
Q 1344 -91 809 395 
Q 275 881 275 1747 
Q 275 2613 809 3098 
Q 1344 3584 2291 3584 
Q 2566 3584 2833 3536 
Q 3100 3488 3366 3391 
z
" transform="scale(0.015625)"/>
     </defs>
     <use xlink:href="#DejaVuSans-Bold-63"/>
    </g>
   </g>
   <g id="text_36">
    <!-- Success or Fail according to the target composition -->
    <g transform="translate(27.936 404.9272) scale(0.1 -0.1)">
     <use xlink:href="#DejaVuSans-53"/>
     <use xlink:href="#DejaVuSans-75" x="63.476562"/>
     <use xlink:href="#DejaVuSans-63" x="126.855469"/>
     <use xlink:href="#DejaVuSans-63" x="181.835938"/>
     <use xlink:href="#DejaVuSans-65" x="236.816406"/>
     <use xlink:href="#DejaVuSans-73" x="298.339844"/>
     <use xlink:href="#DejaVuSans-73" x="350.439453"/>
     <use xlink:href="#DejaVuSans-20" x="402.539062"/>
     <use xlink:href="#DejaVuSans-6f" x="434.326172"/>
     <use xlink:href="#DejaVuSans-72" x="495.507812"/>
     <use xlink:href="#DejaVuSans-20" x="536.621094"/>
     <use xlink:href="#DejaVuSans-46" x="568.408203"/>
     <use xlink:href="#DejaVuSans-61" x="616.802734"/>
     <use xlink:href="#DejaVuSans-69" x="678.082031"/>
     <use xlink:href="#DejaVuSans-6c" x="705.865234"/>
     <use xlink:href="#DejaVuSans-20" x="733.648438"/>
     <use xlink:href="#DejaVuSans-61" x="765.435547"/>
     <use xlink:href="#DejaVuSans-63" x="826.714844"/>
     <use xlink:href="#DejaVuSans-63" x="881.695312"/>
     <use xlink:href="#DejaVuSans-6f" x="936.675781"/>
     <use xlink:href="#DejaVuSans-72" x="997.857422"/>
     <use xlink:href="#DejaVuSans-64" x="1037.220703"/>
     <use xlink:href="#DejaVuSans-69" x="1100.697266"/>
     <use xlink:href="#DejaVuSans-6e" x="1128.480469"/>
     <use xlink:href="#DejaVuSans-67" x="1191.859375"/>
     <use xlink:href="#DejaVuSans-20" x="1255.335938"/>
     <use xlink:href="#DejaVuSans-74" x="1287.123047"/>
     <use xlink:href="#DejaVuSans-6f" x="1326.332031"/>
     <use xlink:href="#DejaVuSans-20" x="1387.513672"/>
     <use xlink:href="#DejaVuSans-74" x="1419.300781"/>
     <use xlink:href="#DejaVuSans-68" x="1458.509766"/>
     <use xlink:href="#DejaVuSans-65" x="1521.888672"/>
     <use xlink:href="#DejaVuSans-20" x="1583.412109"/>
     <use xlink:href="#DejaVuSans-74" x="1615.199219"/>
     <use xlink:href="#DejaVuSans-61" x="1654.408203"/>
     <use xlink:href="#DejaVuSans-72" x="1715.6875"/>
     <use xlink:href="#DejaVuSans-67" x="1755.050781"/>
     <use xlink:href="#DejaVuSans-65" x="1818.527344"/>
     <use xlink:href="#DejaVuSans-74" x="1880.050781"/>
     <use xlink:href="#DejaVuSans-20" x="1919.259766"/>
     <use xlink:href="#DejaVuSans-63" x="1951.046875"/>
     <use xlink:href="#DejaVuSans-6f" x="2006.027344"/>
     <use xlink:href="#DejaVuSans-6d" x="2067.208984"/>
     <use xlink:href="#DejaVuSans-70" x="2164.621094"/>
     <use xlink:href="#DejaVuSans-6f" x="2228.097656"/>
     <use xlink:href="#DejaVuSans-73" x="2289.279297"/>
     <use xlink:href="#DejaVuSans-69" x="2341.378906"/>
     <use xlink:href="#DejaVuSans-74" x="2369.162109"/>
     <use xlink:href="#DejaVuSans-69" x="2408.371094"/>
     <use xlink:href="#DejaVuSans-6f" x="2436.154297"/>
     <use xlink:href="#DejaVuSans-6e" x="2497.335938"/>
    </g>
   </g>
   <g id="patch_14">
    <path d="M 20.719687 430.8472 
Q 110.879719 430.8472 199.921717 430.8472 
" style="fill: none; stroke: #000000; stroke-linecap: round"/>
    <path d="M 195.921717 428.8472 
L 199.921717 430.8472 
L 195.921717 432.8472 
" style="fill: none; stroke: #000000; stroke-linecap: round"/>
   </g>
   <g id="text_37">
    <!-- $0$ -->
    <g transform="translate(18.72 448.1272) scale(0.1 -0.1)">
     <use xlink:href="#DejaVuSans-30" transform="translate(0 0.78125)"/>
    </g>
   </g>
   <g id="text_38">
    <!-- $1$ -->
    <g transform="translate(193.824 448.1272) scale(0.1 -0.1)">
     <use xlink:href="#DejaVuSans-31" transform="translate(0 0.09375)"/>
    </g>
   </g>
   <g id="patch_15">
    <path d="M 57.585375 422.2072 
Q 83.232437 422.2072 107.761466 422.2072 
" style="fill: none; stroke: #000000; stroke-linecap: round"/>
    <path d="M 103.761466 420.2072 
L 107.761466 422.2072 
L 103.761466 424.2072 
" style="fill: none; stroke: #000000; stroke-linecap: round"/>
   </g>
   <g id="patch_16">
    <path d="M 112.881375 422.2072 
Q 138.528437 422.2072 163.057466 422.2072 
" style="fill: none; stroke: #000000; stroke-linecap: round"/>
    <path d="M 159.057466 420.2072 
L 163.057466 422.2072 
L 159.057466 424.2072 
" style="fill: none; stroke: #000000; stroke-linecap: round"/>
   </g>
   <g id="patch_17">
    <path d="M 168.1785 422.2072 
Q 175.392478 422.2072 181.488423 422.2072 
" style="fill: none; stroke: #000000; stroke-linecap: round"/>
    <path d="M 177.488423 420.2072 
L 181.488423 422.2072 
L 177.488423 424.2072 
" style="fill: none; stroke: #000000; stroke-linecap: round"/>
   </g>
   <g id="text_39">
    <!-- $f^L$ -->
    <g transform="translate(70.3296 448.1272) scale(0.1 -0.1)">
     <use xlink:href="#DejaVuSans-Oblique-66" transform="translate(0 0.684375)"/>
     <use xlink:href="#DejaVuSans-Oblique-4c" transform="translate(42.652786 38.965625) scale(0.7)"/>
    </g>
   </g>
   <g id="text_40">
    <!-- $f^U$ -->
    <g transform="translate(144.0576 448.1272) scale(0.1 -0.1)">
     <use xlink:href="#DejaVuSans-Oblique-66" transform="translate(0 0.684375)"/>
     <use xlink:href="#DejaVuSans-Oblique-55" transform="translate(42.652786 38.965625) scale(0.7)"/>
    </g>
   </g>
  </g>
  <g id="axes_4">
   <g id="PolyCollection_2">
    <defs>
     <path id="med3fe569d5" d="M 18.72 -102.24 
L 18.72 -119.52 
L 203.04 -119.52 
L 203.04 -102.24 
L 203.04 -102.24 
L 18.72 -102.24 
z
" style="stroke: #ff0000; stroke-opacity: 0.3"/>
    </defs>
    <g clip-path="url(#pfff5c4f96f)">
     <use xlink:href="#med3fe569d5" x="0" y="584.9272" style="fill: #ff0000; fill-opacity: 0.3; stroke: #ff0000; stroke-opacity: 0.3"/>
    </g>
   </g>
   <g id="PathCollection_4">
    <g clip-path="url(#pfff5c4f96f)">
     <use xlink:href="#m669ade0ebf" x="55.584" y="474.0472" style="stroke: #000000"/>
    </g>
   </g>
   <g id="PathCollection_5">
    <g clip-path="url(#pfff5c4f96f)">
     <use xlink:href="#m669ade0ebf" x="110.88" y="474.0472" style="stroke: #000000"/>
    </g>
   </g>
   <g id="PathCollection_6">
    <g clip-path="url(#pfff5c4f96f)">
     <use xlink:href="#m669ade0ebf" x="166.176" y="474.0472" style="stroke: #000000"/>
    </g>
   </g>
   <g id="LineCollection_10">
    <path d="M 110.88 482.6872 
L 110.88 465.4072 
" clip-path="url(#pfff5c4f96f)" style="fill: none; stroke-dasharray: 1.5,2.475; stroke-dashoffset: 0; stroke: #000000; stroke-width: 1.5"/>
   </g>
   <g id="LineCollection_11">
    <path d="M 74.016 478.3672 
L 74.016 487.0072 
" clip-path="url(#pfff5c4f96f)" style="fill: none; stroke: #000000; stroke-width: 1.5"/>
    <path d="M 147.744 478.3672 
L 147.744 487.0072 
" clip-path="url(#pfff5c4f96f)" style="fill: none; stroke: #000000; stroke-width: 1.5"/>
   </g>
   <g id="patch_18">
    <path d="M 20.719687 482.6872 
Q 110.879719 482.6872 199.921717 482.6872 
" style="fill: none; stroke: #000000; stroke-linecap: round"/>
    <path d="M 195.921717 480.6872 
L 199.921717 482.6872 
L 195.921717 484.6872 
" style="fill: none; stroke: #000000; stroke-linecap: round"/>
   </g>
   <g id="text_41">
    <!-- $0$ -->
    <g transform="translate(18.72 499.9672) scale(0.1 -0.1)">
     <use xlink:href="#DejaVuSans-30" transform="translate(0 0.78125)"/>
    </g>
   </g>
   <g id="text_42">
    <!-- $1$ -->
    <g transform="translate(193.824 499.9672) scale(0.1 -0.1)">
     <use xlink:href="#DejaVuSans-31" transform="translate(0 0.09375)"/>
    </g>
   </g>
   <g id="patch_19">
    <path d="M 57.585375 474.0472 
Q 83.232437 474.0472 107.761466 474.0472 
" style="fill: none; stroke: #000000; stroke-linecap: round"/>
    <path d="M 103.761466 472.0472 
L 107.761466 474.0472 
L 103.761466 476.0472 
" style="fill: none; stroke: #000000; stroke-linecap: round"/>
   </g>
   <g id="patch_20">
    <path d="M 112.8825 474.0472 
Q 129.315323 474.0472 144.630111 474.0472 
" style="fill: none; stroke: #000000; stroke-linecap: round"/>
    <path d="M 140.630111 472.0472 
L 144.630111 474.0472 
L 140.630111 476.0472 
" style="fill: none; stroke: #000000; stroke-linecap: round"/>
   </g>
   <g id="patch_21">
    <path d="M 164.1735 474.0472 
Q 156.959522 474.0472 150.863577 474.0472 
" style="fill: none; stroke: #000000; stroke-linecap: round"/>
    <path d="M 154.863577 476.0472 
L 150.863577 474.0472 
L 154.863577 472.0472 
" style="fill: none; stroke: #000000; stroke-linecap: round"/>
   </g>
   <g id="text_43">
    <!-- $f^L$ -->
    <g transform="translate(70.3296 499.9672) scale(0.1 -0.1)">
     <use xlink:href="#DejaVuSans-Oblique-66" transform="translate(0 0.684375)"/>
     <use xlink:href="#DejaVuSans-Oblique-4c" transform="translate(42.652786 38.965625) scale(0.7)"/>
    </g>
   </g>
   <g id="text_44">
    <!-- $f^U$ -->
    <g transform="translate(144.0576 499.9672) scale(0.1 -0.1)">
     <use xlink:href="#DejaVuSans-Oblique-66" transform="translate(0 0.684375)"/>
     <use xlink:href="#DejaVuSans-Oblique-55" transform="translate(42.652786 38.965625) scale(0.7)"/>
    </g>
   </g>
  </g>
  <g id="axes_5">
   <g id="PolyCollection_3">
    <defs>
     <path id="m2fc1afb20a" d="M 18.72 -50.4 
L 18.72 -72 
L 74.016 -72 
L 74.016 -50.4 
L 74.016 -50.4 
L 18.72 -50.4 
z
" style="stroke: #008000; stroke-opacity: 0.3"/>
    </defs>
    <g clip-path="url(#p7b66ff3c67)">
     <use xlink:href="#m2fc1afb20a" x="0" y="584.9272" style="fill: #008000; fill-opacity: 0.3; stroke: #008000; stroke-opacity: 0.3"/>
    </g>
   </g>
   <g id="PolyCollection_4">
    <defs>
     <path id="mfbb5e8d88d" d="M 74.016 -50.4 
L 74.016 -72 
L 203.04 -72 
L 203.04 -50.4 
L 203.04 -50.4 
L 74.016 -50.4 
z
" style="stroke: #ff0000; stroke-opacity: 0.3"/>
    </defs>
    <g clip-path="url(#p7b66ff3c67)">
     <use xlink:href="#mfbb5e8d88d" x="0" y="584.9272" style="fill: #ff0000; fill-opacity: 0.3; stroke: #ff0000; stroke-opacity: 0.3"/>
    </g>
   </g>
   <g id="PathCollection_7">
    <g clip-path="url(#p7b66ff3c67)">
     <use xlink:href="#m669ade0ebf" x="55.584" y="521.5672" style="stroke: #000000"/>
    </g>
   </g>
   <g id="PathCollection_8">
    <g clip-path="url(#p7b66ff3c67)">
     <use xlink:href="#m669ade0ebf" x="110.88" y="521.5672" style="stroke: #000000"/>
    </g>
   </g>
   <g id="PathCollection_9">
    <g clip-path="url(#p7b66ff3c67)">
     <use xlink:href="#m669ade0ebf" x="166.176" y="521.5672" style="stroke: #000000"/>
    </g>
   </g>
   <g id="LineCollection_12">
    <path d="M 27.936 538.8472 
L 27.936 512.9272 
" clip-path="url(#p7b66ff3c67)" style="fill: none; stroke-dasharray: 1.5,2.475; stroke-dashoffset: 0; stroke: #000000; stroke-width: 1.5"/>
   </g>
   <g id="LineCollection_13">
    <path d="M 74.016 530.2072 
L 74.016 538.8472 
" clip-path="url(#p7b66ff3c67)" style="fill: none; stroke: #000000; stroke-width: 1.5"/>
    <path d="M 147.744 530.2072 
L 147.744 538.8472 
" clip-path="url(#p7b66ff3c67)" style="fill: none; stroke: #000000; stroke-width: 1.5"/>
   </g>
   <g id="patch_22">
    <path d="M 20.719687 534.5272 
Q 110.879719 534.5272 199.921717 534.5272 
" style="fill: none; stroke: #000000; stroke-linecap: round"/>
    <path d="M 195.921717 532.5272 
L 199.921717 534.5272 
L 195.921717 536.5272 
" style="fill: none; stroke: #000000; stroke-linecap: round"/>
   </g>
   <g id="text_45">
    <!-- $0$ -->
    <g transform="translate(18.72 551.8072) scale(0.1 -0.1)">
     <use xlink:href="#DejaVuSans-30" transform="translate(0 0.78125)"/>
    </g>
   </g>
   <g id="text_46">
    <!-- $1$ -->
    <g transform="translate(193.824 551.8072) scale(0.1 -0.1)">
     <use xlink:href="#DejaVuSans-31" transform="translate(0 0.09375)"/>
    </g>
   </g>
   <g id="text_47">
    <!-- Mutant frequency -->
    <g transform="translate(66.578438 568.045637) scale(0.1 -0.1)">
     <use xlink:href="#DejaVuSans-4d"/>
     <use xlink:href="#DejaVuSans-75" x="86.279297"/>
     <use xlink:href="#DejaVuSans-74" x="149.658203"/>
     <use xlink:href="#DejaVuSans-61" x="188.867188"/>
     <use xlink:href="#DejaVuSans-6e" x="250.146484"/>
     <use xlink:href="#DejaVuSans-74" x="313.525391"/>
     <use xlink:href="#DejaVuSans-20" x="352.734375"/>
     <use xlink:href="#DejaVuSans-66" x="384.521484"/>
     <use xlink:href="#DejaVuSans-72" x="419.726562"/>
     <use xlink:href="#DejaVuSans-65" x="458.589844"/>
     <use xlink:href="#DejaVuSans-71" x="520.113281"/>
     <use xlink:href="#DejaVuSans-75" x="583.589844"/>
     <use xlink:href="#DejaVuSans-65" x="646.96875"/>
     <use xlink:href="#DejaVuSans-6e" x="708.492188"/>
     <use xlink:href="#DejaVuSans-63" x="771.871094"/>
     <use xlink:href="#DejaVuSans-79" x="826.851562"/>
    </g>
   </g>
   <g id="patch_23">
    <path d="M 53.582625 521.5672 
Q 41.759568 521.5672 31.054546 521.5672 
" style="fill: none; stroke: #000000; stroke-linecap: round"/>
    <path d="M 35.054546 523.5672 
L 31.054546 521.5672 
L 35.054546 519.5672 
" style="fill: none; stroke: #000000; stroke-linecap: round"/>
   </g>
   <g id="patch_24">
    <path d="M 112.8825 521.5672 
Q 129.315323 521.5672 144.630111 521.5672 
" style="fill: none; stroke: #000000; stroke-linecap: round"/>
    <path d="M 140.630111 519.5672 
L 144.630111 521.5672 
L 140.630111 523.5672 
" style="fill: none; stroke: #000000; stroke-linecap: round"/>
   </g>
   <g id="patch_25">
    <path d="M 164.1735 521.5672 
Q 156.959522 521.5672 150.863577 521.5672 
" style="fill: none; stroke: #000000; stroke-linecap: round"/>
    <path d="M 154.863577 523.5672 
L 150.863577 521.5672 
L 154.863577 519.5672 
" style="fill: none; stroke: #000000; stroke-linecap: round"/>
   </g>
   <g id="text_48">
    <!-- $f^L$ -->
    <g transform="translate(70.3296 551.8072) scale(0.1 -0.1)">
     <use xlink:href="#DejaVuSans-Oblique-66" transform="translate(0 0.684375)"/>
     <use xlink:href="#DejaVuSans-Oblique-4c" transform="translate(42.652786 38.965625) scale(0.7)"/>
    </g>
   </g>
   <g id="text_49">
    <!-- $f^U$ -->
    <g transform="translate(144.0576 551.8072) scale(0.1 -0.1)">
     <use xlink:href="#DejaVuSans-Oblique-66" transform="translate(0 0.684375)"/>
     <use xlink:href="#DejaVuSans-Oblique-55" transform="translate(42.652786 38.965625) scale(0.7)"/>
    </g>
   </g>
   <g id="legend_1">
    <g id="patch_26">
     <path d="M 225.472 484.413137 
L 245.472 484.413137 
L 245.472 477.413137 
L 225.472 477.413137 
z
" style="fill: #008000; fill-opacity: 0.3; stroke: #008000; stroke-opacity: 0.3; stroke-linejoin: miter"/>
    </g>
    <g id="text_50">
     <!-- success -->
     <g transform="translate(253.472 484.413137) scale(0.1 -0.1)">
      <use xlink:href="#DejaVuSans-73"/>
      <use xlink:href="#DejaVuSans-75" x="52.099609"/>
      <use xlink:href="#DejaVuSans-63" x="115.478516"/>
      <use xlink:href="#DejaVuSans-63" x="170.458984"/>
      <use xlink:href="#DejaVuSans-65" x="225.439453"/>
      <use xlink:href="#DejaVuSans-73" x="286.962891"/>
      <use xlink:href="#DejaVuSans-73" x="339.0625"/>
     </g>
    </g>
    <g id="patch_27">
     <path d="M 225.472 499.091262 
L 245.472 499.091262 
L 245.472 492.091262 
L 225.472 492.091262 
z
" style="fill: #ff0000; fill-opacity: 0.3; stroke: #ff0000; stroke-opacity: 0.3; stroke-linejoin: miter"/>
    </g>
    <g id="text_51">
     <!-- fail -->
     <g transform="translate(253.472 499.091262) scale(0.1 -0.1)">
      <use xlink:href="#DejaVuSans-66"/>
      <use xlink:href="#DejaVuSans-61" x="35.205078"/>
      <use xlink:href="#DejaVuSans-69" x="96.484375"/>
      <use xlink:href="#DejaVuSans-6c" x="124.267578"/>
     </g>
    </g>
    <g id="PathCollection_10">
     <g>
      <use xlink:href="#m669ade0ebf" x="235.472" y="511.144387" style="stroke: #000000"/>
     </g>
    </g>
    <g id="text_52">
     <!-- Initial -->
     <g transform="translate(253.472 513.769387) scale(0.1 -0.1)">
      <use xlink:href="#DejaVuSans-49"/>
      <use xlink:href="#DejaVuSans-6e" x="29.492188"/>
      <use xlink:href="#DejaVuSans-69" x="92.871094"/>
      <use xlink:href="#DejaVuSans-74" x="120.654297"/>
      <use xlink:href="#DejaVuSans-69" x="159.863281"/>
      <use xlink:href="#DejaVuSans-61" x="187.646484"/>
      <use xlink:href="#DejaVuSans-6c" x="248.925781"/>
     </g>
    </g>
    <g id="line2d_76">
     <path d="M 225.472 524.947512 
L 245.472 524.947512 
" style="fill: none; stroke-dasharray: 1.5,2.475; stroke-dashoffset: 0; stroke: #000000; stroke-width: 1.5"/>
    </g>
    <g id="text_53">
     <!-- Target -->
     <g transform="translate(253.472 528.447512) scale(0.1 -0.1)">
      <use xlink:href="#DejaVuSans-54"/>
      <use xlink:href="#DejaVuSans-61" x="44.583984"/>
      <use xlink:href="#DejaVuSans-72" x="105.863281"/>
      <use xlink:href="#DejaVuSans-67" x="145.226562"/>
      <use xlink:href="#DejaVuSans-65" x="208.703125"/>
      <use xlink:href="#DejaVuSans-74" x="270.226562"/>
     </g>
    </g>
   </g>
  </g>
 </g>
 <defs>
  <clipPath id="p7d80a55b83">
   <rect x="64.8" y="24.7672" width="230.4" height="120.96"/>
  </clipPath>
  <clipPath id="p97a34791a7">
   <rect x="64.8" y="221.7592" width="230.4" height="120.96"/>
  </clipPath>
  <clipPath id="pf24b1c66ff">
   <rect x="18.72" y="387.6472" width="184.32" height="86.4"/>
  </clipPath>
  <clipPath id="pfff5c4f96f">
   <rect x="18.72" y="439.4872" width="184.32" height="86.4"/>
  </clipPath>
  <clipPath id="p7b66ff3c67">
   <rect x="18.72" y="491.3272" width="184.32" height="86.4"/>
  </clipPath>
 </defs>
</svg>
