<?xml version="1.0" encoding="utf-8" standalone="no"?>
<!DOCTYPE svg PUBLIC "-//W3C//DTD SVG 1.1//EN"
  "http://www.w3.org/Graphics/SVG/1.1/DTD/svg11.dtd">
<svg xmlns:xlink="http://www.w3.org/1999/xlink" width="306.296875pt" height="188.87938pt" viewBox="0 0 306.296875 188.87938" xmlns="http://www.w3.org/2000/svg" version="1.1">
 <metadata>
  <rdf:RDF xmlns:dc="http://purl.org/dc/elements/1.1/" xmlns:cc="http://creativecommons.org/ns#" xmlns:rdf="http://www.w3.org/1999/02/22-rdf-syntax-ns#">
   <cc:Work>
    <dc:type rdf:resource="http://purl.org/dc/dcmitype/StillImage"/>
    <dc:date>2023-02-17T15:30:27.033385</dc:date>
    <dc:format>image/svg+xml</dc:format>
    <dc:creator>
     <cc:Agent>
      <dc:title>Matplotlib v3.6.3, https://matplotlib.org/</dc:title>
     </cc:Agent>
    </dc:creator>
   </cc:Work>
  </rdf:RDF>
 </metadata>
 <defs>
  <style type="text/css">*{stroke-linejoin: round; stroke-linecap: butt}</style>
 </defs>
 <g id="figure_1">
  <g id="patch_1">
   <path d="M 0 188.87938 
L 306.296875 188.87938 
L 306.296875 -0 
L 0 -0 
z
" style="fill: #ffffff"/>
  </g>
  <g id="axes_1">
   <g id="patch_2">
    <path d="M 60.745313 149.101255 
L 291.145312 149.101255 
L 291.145312 10.861255 
L 60.745313 10.861255 
z
" style="fill: #ffffff"/>
   </g>
   <g id="PolyCollection_1">
    <defs>
     <path id="m3d809fc880" d="M 83.785313 -28.498373 
L 83.785313 -95.101718 
L 83.785313 -95.101718 
L 83.785313 -95.101718 
L 83.785313 -95.101718 
L 83.785313 -95.101718 
L 83.305313 -95.101718 
L 82.825313 -95.101718 
L 82.105313 -95.101718 
L 80.185313 -95.101718 
L 77.065313 -95.101718 
L 76.585313 -95.101718 
L 72.505313 -95.101718 
L 72.985313 -95.101718 
L 72.265313 -95.101718 
L 74.665312 -95.101718 
L 77.785313 -95.101718 
L 82.345313 -95.101718 
L 83.065313 -95.101718 
L 83.305313 -95.101718 
L 83.785313 -95.101718 
L 83.785313 -95.101718 
L 83.785313 -95.101718 
L 83.785313 -95.101718 
L 83.785313 -95.101718 
L 83.785313 -95.101718 
L 83.785313 -95.101718 
L 83.785313 -95.101718 
L 83.785313 -95.101718 
L 83.785313 -95.101718 
L 83.785313 -161.705063 
L 83.785313 -161.705063 
L 83.785313 -156.947681 
L 83.785313 -152.190299 
L 83.785313 -147.432917 
L 83.785313 -142.675536 
L 83.785313 -137.918154 
L 83.785313 -133.160772 
L 83.785313 -128.40339 
L 83.785313 -123.646009 
L 83.785313 -118.888627 
L 83.305313 -114.131245 
L 83.065313 -109.373863 
L 82.345313 -104.616481 
L 77.785313 -99.8591 
L 74.665312 -95.101718 
L 72.265313 -90.344336 
L 72.985313 -85.586954 
L 72.505313 -80.829572 
L 76.585313 -76.072191 
L 77.065313 -71.314809 
L 80.185313 -66.557427 
L 82.105313 -61.800045 
L 82.825313 -57.042664 
L 83.305313 -52.285282 
L 83.785313 -47.5279 
L 83.785313 -42.770518 
L 83.785313 -38.013136 
L 83.785313 -33.255755 
L 83.785313 -28.498373 
z
" style="stroke: #1f77b4; stroke-opacity: 0.5"/>
    </defs>
    <g clip-path="url(#p7cac2fd0b6)">
     <use xlink:href="#m3d809fc880" x="0" y="188.87938" style="fill: #1f77b4; fill-opacity: 0.5; stroke: #1f77b4; stroke-opacity: 0.5"/>
    </g>
   </g>
   <g id="PolyCollection_2">
    <defs>
     <path id="m30cda23d40" d="M 106.825312 -28.498373 
L 106.825312 -95.101718 
L 106.544337 -95.101718 
L 106.825312 -95.101718 
L 106.263361 -95.101718 
L 106.263361 -95.101718 
L 105.420434 -95.101718 
L 105.982386 -95.101718 
L 105.420434 -95.101718 
L 102.891654 -95.101718 
L 102.329703 -95.101718 
L 99.519947 -95.101718 
L 98.396044 -95.101718 
L 99.238971 -95.101718 
L 95.305313 -95.101718 
L 95.867264 -95.101718 
L 96.148239 -95.101718 
L 99.800922 -95.101718 
L 103.17263 -95.101718 
L 104.296532 -95.101718 
L 106.263361 -95.101718 
L 106.263361 -95.101718 
L 106.825312 -95.101718 
L 106.825312 -95.101718 
L 106.825312 -95.101718 
L 106.825312 -95.101718 
L 106.825312 -95.101718 
L 106.825312 -95.101718 
L 106.825312 -95.101718 
L 106.825312 -95.101718 
L 106.825312 -161.705063 
L 106.825312 -161.705063 
L 106.825312 -156.947681 
L 106.825312 -152.190299 
L 106.825312 -147.432917 
L 106.825312 -142.675536 
L 106.825312 -137.918154 
L 106.825312 -133.160772 
L 106.825312 -128.40339 
L 106.263361 -123.646009 
L 106.263361 -118.888627 
L 104.296532 -114.131245 
L 103.17263 -109.373863 
L 99.800922 -104.616481 
L 96.148239 -99.8591 
L 95.867264 -95.101718 
L 95.305313 -90.344336 
L 99.238971 -85.586954 
L 98.396044 -80.829572 
L 99.519947 -76.072191 
L 102.329703 -71.314809 
L 102.891654 -66.557427 
L 105.420434 -61.800045 
L 105.982386 -57.042664 
L 105.420434 -52.285282 
L 106.263361 -47.5279 
L 106.263361 -42.770518 
L 106.825312 -38.013136 
L 106.544337 -33.255755 
L 106.825312 -28.498373 
z
" style="stroke: #1f77b4; stroke-opacity: 0.5"/>
    </defs>
    <g clip-path="url(#p7cac2fd0b6)">
     <use xlink:href="#m30cda23d40" x="0" y="188.87938" style="fill: #1f77b4; fill-opacity: 0.5; stroke: #1f77b4; stroke-opacity: 0.5"/>
    </g>
   </g>
   <g id="PolyCollection_3">
    <defs>
     <path id="m6343f7f2c6" d="M 129.865312 -28.498373 
L 129.865312 -95.101718 
L 129.865312 -95.101718 
L 129.207027 -95.101718 
L 129.865312 -95.101718 
L 128.548741 -95.101718 
L 129.207027 -95.101718 
L 129.207027 -95.101718 
L 128.548741 -95.101718 
L 127.890455 -95.101718 
L 123.282455 -95.101718 
L 121.965884 -95.101718 
L 126.244741 -95.101718 
L 119.332741 -95.101718 
L 118.345313 -95.101718 
L 121.307598 -95.101718 
L 119.003598 -95.101718 
L 119.991027 -95.101718 
L 124.269884 -95.101718 
L 120.978455 -95.101718 
L 124.92817 -95.101718 
L 128.219598 -95.101718 
L 129.207027 -95.101718 
L 128.877884 -95.101718 
L 129.865312 -95.101718 
L 129.865312 -95.101718 
L 129.865312 -95.101718 
L 129.865312 -95.101718 
L 129.865312 -95.101718 
L 129.865312 -95.101718 
L 129.865312 -161.705063 
L 129.865312 -161.705063 
L 129.865312 -156.947681 
L 129.865312 -152.190299 
L 129.865312 -147.432917 
L 129.865312 -142.675536 
L 129.865312 -137.918154 
L 128.877884 -133.160772 
L 129.207027 -128.40339 
L 128.219598 -123.646009 
L 124.92817 -118.888627 
L 120.978455 -114.131245 
L 124.269884 -109.373863 
L 119.991027 -104.616481 
L 119.003598 -99.8591 
L 121.307598 -95.101718 
L 118.345313 -90.344336 
L 119.332741 -85.586954 
L 126.244741 -80.829572 
L 121.965884 -76.072191 
L 123.282455 -71.314809 
L 127.890455 -66.557427 
L 128.548741 -61.800045 
L 129.207027 -57.042664 
L 129.207027 -52.285282 
L 128.548741 -47.5279 
L 129.865312 -42.770518 
L 129.207027 -38.013136 
L 129.865312 -33.255755 
L 129.865312 -28.498373 
z
" style="stroke: #1f77b4; stroke-opacity: 0.5"/>
    </defs>
    <g clip-path="url(#p7cac2fd0b6)">
     <use xlink:href="#m6343f7f2c6" x="0" y="188.87938" style="fill: #1f77b4; fill-opacity: 0.5; stroke: #1f77b4; stroke-opacity: 0.5"/>
    </g>
   </g>
   <g id="PolyCollection_4">
    <defs>
     <path id="m0f36f3c559" d="M 152.905313 -28.498373 
L 152.905313 -95.101718 
L 152.905313 -95.101718 
L 152.905313 -95.101718 
L 152.905313 -95.101718 
L 152.643494 -95.101718 
L 152.119858 -95.101718 
L 152.381676 -95.101718 
L 152.381676 -95.101718 
L 151.85804 -95.101718 
L 150.548949 -95.101718 
L 149.763494 -95.101718 
L 145.312585 -95.101718 
L 145.050767 -95.101718 
L 146.09804 -95.101718 
L 146.621676 -95.101718 
L 141.385312 -95.101718 
L 142.956222 -95.101718 
L 145.574403 -95.101718 
L 146.883494 -95.101718 
L 150.548949 -95.101718 
L 151.072585 -95.101718 
L 151.596222 -95.101718 
L 152.643494 -95.101718 
L 152.643494 -95.101718 
L 152.905313 -95.101718 
L 152.905313 -95.101718 
L 152.643494 -95.101718 
L 152.643494 -95.101718 
L 152.905313 -95.101718 
L 152.905313 -161.705063 
L 152.905313 -161.705063 
L 152.643494 -156.947681 
L 152.643494 -152.190299 
L 152.905313 -147.432917 
L 152.905313 -142.675536 
L 152.643494 -137.918154 
L 152.643494 -133.160772 
L 151.596222 -128.40339 
L 151.072585 -123.646009 
L 150.548949 -118.888627 
L 146.883494 -114.131245 
L 145.574403 -109.373863 
L 142.956222 -104.616481 
L 141.385312 -99.8591 
L 146.621676 -95.101718 
L 146.09804 -90.344336 
L 145.050767 -85.586954 
L 145.312585 -80.829572 
L 149.763494 -76.072191 
L 150.548949 -71.314809 
L 151.85804 -66.557427 
L 152.381676 -61.800045 
L 152.381676 -57.042664 
L 152.119858 -52.285282 
L 152.643494 -47.5279 
L 152.905313 -42.770518 
L 152.905313 -38.013136 
L 152.905313 -33.255755 
L 152.905313 -28.498373 
z
" style="stroke: #1f77b4; stroke-opacity: 0.5"/>
    </defs>
    <g clip-path="url(#p7cac2fd0b6)">
     <use xlink:href="#m0f36f3c559" x="0" y="188.87938" style="fill: #1f77b4; fill-opacity: 0.5; stroke: #1f77b4; stroke-opacity: 0.5"/>
    </g>
   </g>
   <g id="PolyCollection_5">
    <defs>
     <path id="m14818e877e" d="M 175.945312 -28.498373 
L 175.945312 -95.101718 
L 175.945312 -95.101718 
L 175.945312 -95.101718 
L 175.642155 -95.101718 
L 175.642155 -95.101718 
L 175.338997 -95.101718 
L 175.642155 -95.101718 
L 175.642155 -95.101718 
L 173.216891 -95.101718 
L 172.00426 -95.101718 
L 172.913734 -95.101718 
L 172.00426 -95.101718 
L 165.637944 -95.101718 
L 166.547418 -95.101718 
L 164.425312 -95.101718 
L 167.760049 -95.101718 
L 165.334786 -95.101718 
L 166.547418 -95.101718 
L 170.791628 -95.101718 
L 172.00426 -95.101718 
L 173.216891 -95.101718 
L 173.216891 -95.101718 
L 175.642155 -95.101718 
L 175.338997 -95.101718 
L 175.945312 -95.101718 
L 175.642155 -95.101718 
L 175.945312 -95.101718 
L 175.945312 -95.101718 
L 175.945312 -95.101718 
L 175.945312 -161.705063 
L 175.945312 -161.705063 
L 175.945312 -156.947681 
L 175.945312 -152.190299 
L 175.642155 -147.432917 
L 175.945312 -142.675536 
L 175.338997 -137.918154 
L 175.642155 -133.160772 
L 173.216891 -128.40339 
L 173.216891 -123.646009 
L 172.00426 -118.888627 
L 170.791628 -114.131245 
L 166.547418 -109.373863 
L 165.334786 -104.616481 
L 167.760049 -99.8591 
L 164.425312 -95.101718 
L 166.547418 -90.344336 
L 165.637944 -85.586954 
L 172.00426 -80.829572 
L 172.913734 -76.072191 
L 172.00426 -71.314809 
L 173.216891 -66.557427 
L 175.642155 -61.800045 
L 175.642155 -57.042664 
L 175.338997 -52.285282 
L 175.642155 -47.5279 
L 175.642155 -42.770518 
L 175.945312 -38.013136 
L 175.945312 -33.255755 
L 175.945312 -28.498373 
z
" style="stroke: #1f77b4; stroke-opacity: 0.5"/>
    </defs>
    <g clip-path="url(#p7cac2fd0b6)">
     <use xlink:href="#m14818e877e" x="0" y="188.87938" style="fill: #1f77b4; fill-opacity: 0.5; stroke: #1f77b4; stroke-opacity: 0.5"/>
    </g>
   </g>
   <g id="PolyCollection_6">
    <defs>
     <path id="me05fca1027" d="M 198.985312 -28.498373 
L 198.985312 -95.101718 
L 198.689928 -95.101718 
L 198.985312 -95.101718 
L 198.985312 -95.101718 
L 198.689928 -95.101718 
L 198.985312 -95.101718 
L 198.985312 -95.101718 
L 198.099159 -95.101718 
L 197.213005 -95.101718 
L 196.326851 -95.101718 
L 196.031466 -95.101718 
L 191.896082 -95.101718 
L 193.07762 -95.101718 
L 192.191466 -95.101718 
L 188.646851 -95.101718 
L 188.056082 -95.101718 
L 191.305312 -95.101718 
L 187.465312 -95.101718 
L 189.533005 -95.101718 
L 192.782236 -95.101718 
L 196.91762 -95.101718 
L 198.099159 -95.101718 
L 198.394543 -95.101718 
L 198.689928 -95.101718 
L 198.985312 -95.101718 
L 198.985312 -95.101718 
L 198.985312 -95.101718 
L 198.985312 -95.101718 
L 198.985312 -95.101718 
L 198.985312 -161.705063 
L 198.985312 -161.705063 
L 198.985312 -156.947681 
L 198.985312 -152.190299 
L 198.985312 -147.432917 
L 198.985312 -142.675536 
L 198.689928 -137.918154 
L 198.394543 -133.160772 
L 198.099159 -128.40339 
L 196.91762 -123.646009 
L 192.782236 -118.888627 
L 189.533005 -114.131245 
L 187.465312 -109.373863 
L 191.305312 -104.616481 
L 188.056082 -99.8591 
L 188.646851 -95.101718 
L 192.191466 -90.344336 
L 193.07762 -85.586954 
L 191.896082 -80.829572 
L 196.031466 -76.072191 
L 196.326851 -71.314809 
L 197.213005 -66.557427 
L 198.099159 -61.800045 
L 198.985312 -57.042664 
L 198.985312 -52.285282 
L 198.689928 -47.5279 
L 198.985312 -42.770518 
L 198.985312 -38.013136 
L 198.689928 -33.255755 
L 198.985312 -28.498373 
z
" style="stroke: #1f77b4; stroke-opacity: 0.5"/>
    </defs>
    <g clip-path="url(#p7cac2fd0b6)">
     <use xlink:href="#me05fca1027" x="0" y="188.87938" style="fill: #1f77b4; fill-opacity: 0.5; stroke: #1f77b4; stroke-opacity: 0.5"/>
    </g>
   </g>
   <g id="PolyCollection_7">
    <defs>
     <path id="m62e41fe01d" d="M 221.434543 -28.498373 
L 221.434543 -95.101718 
L 221.729928 -95.101718 
L 222.025313 -95.101718 
L 222.025313 -95.101718 
L 221.729928 -95.101718 
L 221.729928 -95.101718 
L 221.729928 -95.101718 
L 219.95762 -95.101718 
L 219.95762 -95.101718 
L 219.366851 -95.101718 
L 215.231466 -95.101718 
L 218.185313 -95.101718 
L 214.049928 -95.101718 
L 210.505313 -95.101718 
L 211.096082 -95.101718 
L 211.096082 -95.101718 
L 212.868389 -95.101718 
L 213.459159 -95.101718 
L 217.889928 -95.101718 
L 220.843774 -95.101718 
L 219.071466 -95.101718 
L 221.139159 -95.101718 
L 220.843774 -95.101718 
L 222.025313 -95.101718 
L 222.025313 -95.101718 
L 222.025313 -95.101718 
L 222.025313 -95.101718 
L 222.025313 -95.101718 
L 222.025313 -95.101718 
L 222.025313 -161.705063 
L 222.025313 -161.705063 
L 222.025313 -156.947681 
L 222.025313 -152.190299 
L 222.025313 -147.432917 
L 222.025313 -142.675536 
L 222.025313 -137.918154 
L 220.843774 -133.160772 
L 221.139159 -128.40339 
L 219.071466 -123.646009 
L 220.843774 -118.888627 
L 217.889928 -114.131245 
L 213.459159 -109.373863 
L 212.868389 -104.616481 
L 211.096082 -99.8591 
L 211.096082 -95.101718 
L 210.505313 -90.344336 
L 214.049928 -85.586954 
L 218.185313 -80.829572 
L 215.231466 -76.072191 
L 219.366851 -71.314809 
L 219.95762 -66.557427 
L 219.95762 -61.800045 
L 221.729928 -57.042664 
L 221.729928 -52.285282 
L 221.729928 -47.5279 
L 222.025313 -42.770518 
L 222.025313 -38.013136 
L 221.729928 -33.255755 
L 221.434543 -28.498373 
z
" style="stroke: #1f77b4; stroke-opacity: 0.5"/>
    </defs>
    <g clip-path="url(#p7cac2fd0b6)">
     <use xlink:href="#m62e41fe01d" x="0" y="188.87938" style="fill: #1f77b4; fill-opacity: 0.5; stroke: #1f77b4; stroke-opacity: 0.5"/>
    </g>
   </g>
   <g id="PolyCollection_8">
    <defs>
     <path id="m76a8151b7b" d="M 245.065313 -28.498373 
L 245.065313 -95.101718 
L 245.065313 -95.101718 
L 245.065313 -95.101718 
L 245.065313 -95.101718 
L 245.065313 -95.101718 
L 243.889802 -95.101718 
L 243.889802 -95.101718 
L 244.595108 -95.101718 
L 243.419598 -95.101718 
L 242.949394 -95.101718 
L 241.773884 -95.101718 
L 238.952659 -95.101718 
L 238.717557 -95.101718 
L 234.485721 -95.101718 
L 233.545312 -95.101718 
L 236.836741 -95.101718 
L 237.306945 -95.101718 
L 239.187761 -95.101718 
L 242.47919 -95.101718 
L 243.889802 -95.101718 
L 244.595108 -95.101718 
L 245.065313 -95.101718 
L 245.065313 -95.101718 
L 245.065313 -95.101718 
L 245.065313 -95.101718 
L 245.065313 -95.101718 
L 245.065313 -95.101718 
L 245.065313 -95.101718 
L 245.065313 -95.101718 
L 245.065313 -161.705063 
L 245.065313 -161.705063 
L 245.065313 -156.947681 
L 245.065313 -152.190299 
L 245.065313 -147.432917 
L 245.065313 -142.675536 
L 245.065313 -137.918154 
L 245.065313 -133.160772 
L 245.065313 -128.40339 
L 244.595108 -123.646009 
L 243.889802 -118.888627 
L 242.47919 -114.131245 
L 239.187761 -109.373863 
L 237.306945 -104.616481 
L 236.836741 -99.8591 
L 233.545312 -95.101718 
L 234.485721 -90.344336 
L 238.717557 -85.586954 
L 238.952659 -80.829572 
L 241.773884 -76.072191 
L 242.949394 -71.314809 
L 243.419598 -66.557427 
L 244.595108 -61.800045 
L 243.889802 -57.042664 
L 243.889802 -52.285282 
L 245.065313 -47.5279 
L 245.065313 -42.770518 
L 245.065313 -38.013136 
L 245.065313 -33.255755 
L 245.065313 -28.498373 
z
" style="stroke: #1f77b4; stroke-opacity: 0.5"/>
    </defs>
    <g clip-path="url(#p7cac2fd0b6)">
     <use xlink:href="#m76a8151b7b" x="0" y="188.87938" style="fill: #1f77b4; fill-opacity: 0.5; stroke: #1f77b4; stroke-opacity: 0.5"/>
    </g>
   </g>
   <g id="PolyCollection_9">
    <defs>
     <path id="m1b42056864" d="M 268.105312 -28.498373 
L 268.105312 -95.101718 
L 268.105312 -95.101718 
L 267.925313 -95.101718 
L 268.105312 -95.101718 
L 268.105312 -95.101718 
L 268.105312 -95.101718 
L 267.925313 -95.101718 
L 267.565313 -95.101718 
L 267.025313 -95.101718 
L 265.045313 -95.101718 
L 264.505313 -95.101718 
L 259.645313 -95.101718 
L 257.845313 -95.101718 
L 256.585312 -95.101718 
L 259.825313 -95.101718 
L 263.965312 -95.101718 
L 265.945313 -95.101718 
L 267.745313 -95.101718 
L 267.925313 -95.101718 
L 268.105312 -95.101718 
L 268.105312 -95.101718 
L 268.105312 -95.101718 
L 268.105312 -95.101718 
L 268.105312 -95.101718 
L 268.105312 -95.101718 
L 268.105312 -95.101718 
L 268.105312 -95.101718 
L 268.105312 -95.101718 
L 268.105312 -95.101718 
L 268.105312 -161.705063 
L 268.105312 -161.705063 
L 268.105312 -156.947681 
L 268.105312 -152.190299 
L 268.105312 -147.432917 
L 268.105312 -142.675536 
L 268.105312 -137.918154 
L 268.105312 -133.160772 
L 268.105312 -128.40339 
L 268.105312 -123.646009 
L 268.105312 -118.888627 
L 267.925313 -114.131245 
L 267.745313 -109.373863 
L 265.945313 -104.616481 
L 263.965312 -99.8591 
L 259.825313 -95.101718 
L 256.585312 -90.344336 
L 257.845313 -85.586954 
L 259.645313 -80.829572 
L 264.505313 -76.072191 
L 265.045313 -71.314809 
L 267.025313 -66.557427 
L 267.565313 -61.800045 
L 267.925313 -57.042664 
L 268.105312 -52.285282 
L 268.105312 -47.5279 
L 268.105312 -42.770518 
L 267.925313 -38.013136 
L 268.105312 -33.255755 
L 268.105312 -28.498373 
z
" style="stroke: #1f77b4; stroke-opacity: 0.5"/>
    </defs>
    <g clip-path="url(#p7cac2fd0b6)">
     <use xlink:href="#m1b42056864" x="0" y="188.87938" style="fill: #1f77b4; fill-opacity: 0.5; stroke: #1f77b4; stroke-opacity: 0.5"/>
    </g>
   </g>
   <g id="PolyCollection_10">
    <defs>
     <path id="m2833151120" d="M 83.795745 -28.498373 
L 83.795745 -95.101718 
L 83.812747 -95.101718 
L 83.853248 -95.101718 
L 83.943778 -95.101718 
L 84.133397 -95.101718 
L 84.50447 -95.101718 
L 85.179024 -95.101718 
L 86.306443 -95.101718 
L 88.00871 -95.101718 
L 90.26194 -95.101718 
L 92.735951 -95.101718 
L 94.714791 -95.101718 
L 95.305313 -95.101718 
L 93.997985 -95.101718 
L 91.194634 -95.101718 
L 88.06524 -95.101718 
L 85.702322 -95.101718 
L 84.434957 -95.101718 
L 83.948238 -95.101718 
L 83.814971 -95.101718 
L 83.789167 -95.101718 
L 83.785665 -95.101718 
L 83.785335 -95.101718 
L 83.785313 -95.101718 
L 83.785313 -95.101718 
L 83.785313 -95.101718 
L 83.785313 -95.101718 
L 83.785313 -95.101718 
L 83.785313 -95.101718 
L 83.785313 -161.705063 
L 83.785313 -161.705063 
L 83.785313 -156.947681 
L 83.785313 -152.190299 
L 83.785313 -147.432917 
L 83.785313 -142.675536 
L 83.785313 -137.918154 
L 83.785335 -133.160772 
L 83.785665 -128.40339 
L 83.789167 -123.646009 
L 83.814971 -118.888627 
L 83.948238 -114.131245 
L 84.434957 -109.373863 
L 85.702322 -104.616481 
L 88.06524 -99.8591 
L 91.194634 -95.101718 
L 93.997985 -90.344336 
L 95.305313 -85.586954 
L 94.714791 -80.829572 
L 92.735951 -76.072191 
L 90.26194 -71.314809 
L 88.00871 -66.557427 
L 86.306443 -61.800045 
L 85.179024 -57.042664 
L 84.50447 -52.285282 
L 84.133397 -47.5279 
L 83.943778 -42.770518 
L 83.853248 -38.013136 
L 83.812747 -33.255755 
L 83.795745 -28.498373 
z
" style="stroke: #ff7f0e; stroke-opacity: 0.5"/>
    </defs>
    <g clip-path="url(#p7cac2fd0b6)">
     <use xlink:href="#m2833151120" x="0" y="188.87938" style="fill: #ff7f0e; fill-opacity: 0.5; stroke: #ff7f0e; stroke-opacity: 0.5"/>
    </g>
   </g>
   <g id="PolyCollection_11">
    <defs>
     <path id="m643d86b355" d="M 106.865813 -28.498373 
L 106.865813 -95.101718 
L 106.906337 -95.101718 
L 106.981742 -95.101718 
L 107.116678 -95.101718 
L 107.348537 -95.101718 
L 107.730129 -95.101718 
L 108.329292 -95.101718 
L 109.221408 -95.101718 
L 110.469468 -95.101718 
L 112.087247 -95.101718 
L 113.987966 -95.101718 
L 115.936353 -95.101718 
L 117.542732 -95.101718 
L 118.345313 -95.101718 
L 117.992358 -95.101718 
L 116.451694 -95.101718 
L 114.09896 -95.101718 
L 111.573399 -95.101718 
L 109.465422 -95.101718 
L 108.058984 -95.101718 
L 107.303682 -95.101718 
L 106.977459 -95.101718 
L 106.864588 -95.101718 
L 106.833464 -95.101718 
L 106.826661 -95.101718 
L 106.825489 -95.101718 
L 106.825331 -95.101718 
L 106.825314 -95.101718 
L 106.825313 -95.101718 
L 106.825313 -161.705063 
L 106.825313 -161.705063 
L 106.825314 -156.947681 
L 106.825331 -152.190299 
L 106.825489 -147.432917 
L 106.826661 -142.675536 
L 106.833464 -137.918154 
L 106.864588 -133.160772 
L 106.977459 -128.40339 
L 107.303682 -123.646009 
L 108.058984 -118.888627 
L 109.465422 -114.131245 
L 111.573399 -109.373863 
L 114.09896 -104.616481 
L 116.451694 -99.8591 
L 117.992358 -95.101718 
L 118.345313 -90.344336 
L 117.542732 -85.586954 
L 115.936353 -80.829572 
L 113.987966 -76.072191 
L 112.087247 -71.314809 
L 110.469468 -66.557427 
L 109.221408 -61.800045 
L 108.329292 -57.042664 
L 107.730129 -52.285282 
L 107.348537 -47.5279 
L 107.116678 -42.770518 
L 106.981742 -38.013136 
L 106.906337 -33.255755 
L 106.865813 -28.498373 
z
" style="stroke: #ff7f0e; stroke-opacity: 0.5"/>
    </defs>
    <g clip-path="url(#p7cac2fd0b6)">
     <use xlink:href="#m643d86b355" x="0" y="188.87938" style="fill: #ff7f0e; fill-opacity: 0.5; stroke: #ff7f0e; stroke-opacity: 0.5"/>
    </g>
   </g>
   <g id="PolyCollection_12">
    <defs>
     <path id="m52702a12e8" d="M 129.906214 -28.498373 
L 129.906214 -95.101718 
L 129.942025 -95.101718 
L 130.00512 -95.101718 
L 130.112832 -95.101718 
L 130.290814 -95.101718 
L 130.574986 -95.101718 
L 131.012284 -95.101718 
L 131.658416 -95.101718 
L 132.570019 -95.101718 
L 133.78827 -95.101718 
L 135.312227 -95.101718 
L 137.06474 -95.101718 
L 138.862376 -95.101718 
L 140.411367 -95.101718 
L 141.355378 -95.101718 
L 141.385312 -95.101718 
L 140.380737 -95.101718 
L 138.506944 -95.101718 
L 136.186924 -95.101718 
L 133.935547 -95.101718 
L 132.146661 -95.101718 
L 130.966772 -95.101718 
L 130.318874 -95.101718 
L 130.02314 -95.101718 
L 129.911329 -95.101718 
L 129.876468 -95.101718 
L 129.867545 -95.101718 
L 129.865679 -95.101718 
L 129.865362 -95.101718 
L 129.865362 -161.705063 
L 129.865362 -161.705063 
L 129.865679 -156.947681 
L 129.867545 -152.190299 
L 129.876468 -147.432917 
L 129.911329 -142.675536 
L 130.02314 -137.918154 
L 130.318874 -133.160772 
L 130.966772 -128.40339 
L 132.146661 -123.646009 
L 133.935547 -118.888627 
L 136.186924 -114.131245 
L 138.506944 -109.373863 
L 140.380737 -104.616481 
L 141.385312 -99.8591 
L 141.355378 -95.101718 
L 140.411367 -90.344336 
L 138.862376 -85.586954 
L 137.06474 -80.829572 
L 135.312227 -76.072191 
L 133.78827 -71.314809 
L 132.570019 -66.557427 
L 131.658416 -61.800045 
L 131.012284 -57.042664 
L 130.574986 -52.285282 
L 130.290814 -47.5279 
L 130.112832 -42.770518 
L 130.00512 -38.013136 
L 129.942025 -33.255755 
L 129.906214 -28.498373 
z
" style="stroke: #ff7f0e; stroke-opacity: 0.5"/>
    </defs>
    <g clip-path="url(#p7cac2fd0b6)">
     <use xlink:href="#m52702a12e8" x="0" y="188.87938" style="fill: #ff7f0e; fill-opacity: 0.5; stroke: #ff7f0e; stroke-opacity: 0.5"/>
    </g>
   </g>
   <g id="PolyCollection_13">
    <defs>
     <path id="m727750907c" d="M 152.940076 -28.498373 
L 152.940076 -95.101718 
L 152.969275 -95.101718 
L 153.019977 -95.101718 
L 153.10555 -95.101718 
L 153.245797 -95.101718 
L 153.468711 -95.101718 
L 153.811655 -95.101718 
L 154.320878 -95.101718 
L 155.047651 -95.101718 
L 156.038771 -95.101718 
L 157.319339 -95.101718 
L 158.867547 -95.101718 
L 160.585823 -95.101718 
L 162.280168 -95.101718 
L 163.666837 -95.101718 
L 164.425312 -95.101718 
L 164.29972 -95.101718 
L 163.216785 -95.101718 
L 161.356142 -95.101718 
L 159.112783 -95.101718 
L 156.949881 -95.101718 
L 155.219385 -95.101718 
L 154.056645 -95.101718 
L 153.398864 -95.101718 
L 153.086036 -95.101718 
L 152.961387 -95.101718 
L 152.919947 -95.101718 
L 152.908504 -95.101718 
L 152.90589 -95.101718 
L 152.90589 -161.705063 
L 152.90589 -161.705063 
L 152.908504 -156.947681 
L 152.919947 -152.190299 
L 152.961387 -147.432917 
L 153.086036 -142.675536 
L 153.398864 -137.918154 
L 154.056645 -133.160772 
L 155.219385 -128.40339 
L 156.949881 -123.646009 
L 159.112783 -118.888627 
L 161.356142 -114.131245 
L 163.216785 -109.373863 
L 164.29972 -104.616481 
L 164.425312 -99.8591 
L 163.666837 -95.101718 
L 162.280168 -90.344336 
L 160.585823 -85.586954 
L 158.867547 -80.829572 
L 157.319339 -76.072191 
L 156.038771 -71.314809 
L 155.047651 -66.557427 
L 154.320878 -61.800045 
L 153.811655 -57.042664 
L 153.468711 -52.285282 
L 153.245797 -47.5279 
L 153.10555 -42.770518 
L 153.019977 -38.013136 
L 152.969275 -33.255755 
L 152.940076 -28.498373 
z
" style="stroke: #ff7f0e; stroke-opacity: 0.5"/>
    </defs>
    <g clip-path="url(#p7cac2fd0b6)">
     <use xlink:href="#m727750907c" x="0" y="188.87938" style="fill: #ff7f0e; fill-opacity: 0.5; stroke: #ff7f0e; stroke-opacity: 0.5"/>
    </g>
   </g>
   <g id="PolyCollection_14">
    <defs>
     <path id="m3978b296d3" d="M 175.978482 -28.498373 
L 175.978482 -95.101718 
L 176.006004 -95.101718 
L 176.053612 -95.101718 
L 176.133729 -95.101718 
L 176.264788 -95.101718 
L 176.472929 -95.101718 
L 176.793267 -95.101718 
L 177.269755 -95.101718 
L 177.95213 -95.101718 
L 178.887836 -95.101718 
L 180.10683 -95.101718 
L 181.598509 -95.101718 
L 183.283845 -95.101718 
L 184.992454 -95.101718 
L 186.461842 -95.101718 
L 187.378099 -95.101718 
L 187.465313 -95.101718 
L 186.601274 -95.101718 
L 184.902995 -95.101718 
L 182.718318 -95.101718 
L 180.504178 -95.101718 
L 178.649257 -95.101718 
L 177.344638 -95.101718 
L 176.571244 -95.101718 
L 176.185175 -95.101718 
L 176.023407 -95.101718 
L 175.96675 -95.101718 
L 175.950239 -95.101718 
L 175.946254 -95.101718 
L 175.946254 -161.705063 
L 175.946254 -161.705063 
L 175.950239 -156.947681 
L 175.96675 -152.190299 
L 176.023407 -147.432917 
L 176.185175 -142.675536 
L 176.571244 -137.918154 
L 177.344638 -133.160772 
L 178.649257 -128.40339 
L 180.504178 -123.646009 
L 182.718318 -118.888627 
L 184.902995 -114.131245 
L 186.601274 -109.373863 
L 187.465313 -104.616481 
L 187.378099 -99.8591 
L 186.461842 -95.101718 
L 184.992454 -90.344336 
L 183.283845 -85.586954 
L 181.598509 -80.829572 
L 180.10683 -76.072191 
L 178.887836 -71.314809 
L 177.95213 -66.557427 
L 177.269755 -61.800045 
L 176.793267 -57.042664 
L 176.472929 -52.285282 
L 176.264788 -47.5279 
L 176.133729 -42.770518 
L 176.053612 -38.013136 
L 176.006004 -33.255755 
L 175.978482 -28.498373 
z
" style="stroke: #ff7f0e; stroke-opacity: 0.5"/>
    </defs>
    <g clip-path="url(#p7cac2fd0b6)">
     <use xlink:href="#m3978b296d3" x="0" y="188.87938" style="fill: #ff7f0e; fill-opacity: 0.5; stroke: #ff7f0e; stroke-opacity: 0.5"/>
    </g>
   </g>
   <g id="PolyCollection_15">
    <defs>
     <path id="md8bdb17fc4" d="M 199.022682 -28.498373 
L 199.022682 -95.101718 
L 199.053758 -95.101718 
L 199.10753 -95.101718 
L 199.198 -95.101718 
L 199.345863 -95.101718 
L 199.580275 -95.101718 
L 199.939981 -95.101718 
L 200.472595 -95.101718 
L 201.230206 -95.101718 
L 202.258894 -95.101718 
L 203.580038 -95.101718 
L 205.163451 -95.101718 
L 206.897604 -95.101718 
L 208.57042 -95.101718 
L 209.881574 -95.101718 
L 210.505313 -95.101718 
L 210.202138 -95.101718 
L 208.939434 -95.101718 
L 206.949592 -95.101718 
L 204.667524 -95.101718 
L 202.560915 -95.101718 
L 200.948563 -95.101718 
L 199.916205 -95.101718 
L 199.362749 -95.101718 
L 199.114967 -95.101718 
L 199.022723 -95.101718 
L 198.994307 -95.101718 
L 198.987102 -95.101718 
L 198.985605 -95.101718 
L 198.985605 -161.705063 
L 198.985605 -161.705063 
L 198.987102 -156.947681 
L 198.994307 -152.190299 
L 199.022723 -147.432917 
L 199.114967 -142.675536 
L 199.362749 -137.918154 
L 199.916205 -133.160772 
L 200.948563 -128.40339 
L 202.560915 -123.646009 
L 204.667524 -118.888627 
L 206.949592 -114.131245 
L 208.939434 -109.373863 
L 210.202138 -104.616481 
L 210.505313 -99.8591 
L 209.881574 -95.101718 
L 208.57042 -90.344336 
L 206.897604 -85.586954 
L 205.163451 -80.829572 
L 203.580038 -76.072191 
L 202.258894 -71.314809 
L 201.230206 -66.557427 
L 200.472595 -61.800045 
L 199.939981 -57.042664 
L 199.580275 -52.285282 
L 199.345863 -47.5279 
L 199.198 -42.770518 
L 199.10753 -38.013136 
L 199.053758 -33.255755 
L 199.022682 -28.498373 
z
" style="stroke: #ff7f0e; stroke-opacity: 0.5"/>
    </defs>
    <g clip-path="url(#p7cac2fd0b6)">
     <use xlink:href="#md8bdb17fc4" x="0" y="188.87938" style="fill: #ff7f0e; fill-opacity: 0.5; stroke: #ff7f0e; stroke-opacity: 0.5"/>
    </g>
   </g>
   <g id="PolyCollection_16">
    <defs>
     <path id="m64703e453c" d="M 222.071804 -28.498373 
L 222.071804 -95.101718 
L 222.111651 -95.101718 
L 222.181333 -95.101718 
L 222.299537 -95.101718 
L 222.493778 -95.101718 
L 222.802359 -95.101718 
L 223.274886 -95.101718 
L 223.969307 -95.101718 
L 224.942537 -95.101718 
L 226.231448 -95.101718 
L 227.822732 -95.101718 
L 229.615879 -95.101718 
L 231.393919 -95.101718 
L 232.828243 -95.101718 
L 233.545313 -95.101718 
L 233.259381 -95.101718 
L 231.924032 -95.101718 
L 229.80811 -95.101718 
L 227.416221 -95.101718 
L 225.273398 -95.101718 
L 223.706516 -95.101718 
L 222.763947 -95.101718 
L 222.297651 -95.101718 
L 222.108684 -95.101718 
L 222.046294 -95.101718 
L 222.029614 -95.101718 
L 222.026025 -95.101718 
L 222.025407 -95.101718 
L 222.025322 -95.101718 
L 222.025322 -161.705063 
L 222.025322 -161.705063 
L 222.025407 -156.947681 
L 222.026025 -152.190299 
L 222.029614 -147.432917 
L 222.046294 -142.675536 
L 222.108684 -137.918154 
L 222.297651 -133.160772 
L 222.763947 -128.40339 
L 223.706516 -123.646009 
L 225.273398 -118.888627 
L 227.416221 -114.131245 
L 229.80811 -109.373863 
L 231.924032 -104.616481 
L 233.259381 -99.8591 
L 233.545313 -95.101718 
L 232.828243 -90.344336 
L 231.393919 -85.586954 
L 229.615879 -80.829572 
L 227.822732 -76.072191 
L 226.231448 -71.314809 
L 224.942537 -66.557427 
L 223.969307 -61.800045 
L 223.274886 -57.042664 
L 222.802359 -52.285282 
L 222.493778 -47.5279 
L 222.299537 -42.770518 
L 222.181333 -38.013136 
L 222.111651 -33.255755 
L 222.071804 -28.498373 
z
" style="stroke: #ff7f0e; stroke-opacity: 0.5"/>
    </defs>
    <g clip-path="url(#p7cac2fd0b6)">
     <use xlink:href="#m64703e453c" x="0" y="188.87938" style="fill: #ff7f0e; fill-opacity: 0.5; stroke: #ff7f0e; stroke-opacity: 0.5"/>
    </g>
   </g>
   <g id="PolyCollection_17">
    <defs>
     <path id="m35f18d94e0" d="M 245.113301 -28.498373 
L 245.113301 -95.101718 
L 245.159459 -95.101718 
L 245.244151 -95.101718 
L 245.394005 -95.101718 
L 245.649181 -95.101718 
L 246.066048 -95.101718 
L 246.716287 -95.101718 
L 247.67782 -95.101718 
L 249.011376 -95.101718 
L 250.717914 -95.101718 
L 252.680817 -95.101718 
L 254.616374 -95.101718 
L 256.080655 -95.101718 
L 256.585312 -95.101718 
L 255.82208 -95.101718 
L 253.885476 -95.101718 
L 251.307651 -95.101718 
L 248.812622 -95.101718 
L 246.940798 -95.101718 
L 245.834959 -95.101718 
L 245.32021 -95.101718 
L 245.132437 -95.101718 
L 245.079175 -95.101718 
L 245.067529 -95.101718 
L 245.065584 -95.101718 
L 245.065338 -95.101718 
L 245.065314 -95.101718 
L 245.065313 -95.101718 
L 245.065313 -95.101718 
L 245.065313 -161.705063 
L 245.065313 -161.705063 
L 245.065313 -156.947681 
L 245.065314 -152.190299 
L 245.065338 -147.432917 
L 245.065584 -142.675536 
L 245.067529 -137.918154 
L 245.079175 -133.160772 
L 245.132437 -128.40339 
L 245.32021 -123.646009 
L 245.834959 -118.888627 
L 246.940798 -114.131245 
L 248.812622 -109.373863 
L 251.307651 -104.616481 
L 253.885476 -99.8591 
L 255.82208 -95.101718 
L 256.585312 -90.344336 
L 256.080655 -85.586954 
L 254.616374 -80.829572 
L 252.680817 -76.072191 
L 250.717914 -71.314809 
L 249.011376 -66.557427 
L 247.67782 -61.800045 
L 246.716287 -57.042664 
L 246.066048 -52.285282 
L 245.649181 -47.5279 
L 245.394005 -42.770518 
L 245.244151 -38.013136 
L 245.159459 -33.255755 
L 245.113301 -28.498373 
z
" style="stroke: #ff7f0e; stroke-opacity: 0.5"/>
    </defs>
    <g clip-path="url(#p7cac2fd0b6)">
     <use xlink:href="#m35f18d94e0" x="0" y="188.87938" style="fill: #ff7f0e; fill-opacity: 0.5; stroke: #ff7f0e; stroke-opacity: 0.5"/>
    </g>
   </g>
   <g id="PolyCollection_18">
    <defs>
     <path id="m9ff1839fc2" d="M 268.119298 -28.498373 
L 268.119298 -95.101718 
L 268.139752 -95.101718 
L 268.186175 -95.101718 
L 268.286168 -95.101718 
L 268.490029 -95.101718 
L 268.88169 -95.101718 
L 269.585634 -95.101718 
L 270.755033 -95.101718 
L 272.515017 -95.101718 
L 274.835012 -95.101718 
L 277.34988 -95.101718 
L 279.269215 -95.101718 
L 279.625313 -95.101718 
L 277.94008 -95.101718 
L 274.812776 -95.101718 
L 271.629791 -95.101718 
L 269.481471 -95.101718 
L 268.490869 -95.101718 
L 268.180303 -95.101718 
L 268.115133 -95.101718 
L 268.106154 -95.101718 
L 268.105359 -95.101718 
L 268.105314 -95.101718 
L 268.105313 -95.101718 
L 268.105313 -95.101718 
L 268.105313 -95.101718 
L 268.105312 -95.101718 
L 268.105312 -95.101718 
L 268.105312 -95.101718 
L 268.105312 -161.705063 
L 268.105312 -161.705063 
L 268.105312 -156.947681 
L 268.105312 -152.190299 
L 268.105313 -147.432917 
L 268.105313 -142.675536 
L 268.105313 -137.918154 
L 268.105314 -133.160772 
L 268.105359 -128.40339 
L 268.106154 -123.646009 
L 268.115133 -118.888627 
L 268.180303 -114.131245 
L 268.490869 -109.373863 
L 269.481471 -104.616481 
L 271.629791 -99.8591 
L 274.812776 -95.101718 
L 277.94008 -90.344336 
L 279.625313 -85.586954 
L 279.269215 -80.829572 
L 277.34988 -76.072191 
L 274.835012 -71.314809 
L 272.515017 -66.557427 
L 270.755033 -61.800045 
L 269.585634 -57.042664 
L 268.88169 -52.285282 
L 268.490029 -47.5279 
L 268.286168 -42.770518 
L 268.186175 -38.013136 
L 268.139752 -33.255755 
L 268.119298 -28.498373 
z
" style="stroke: #ff7f0e; stroke-opacity: 0.5"/>
    </defs>
    <g clip-path="url(#p7cac2fd0b6)">
     <use xlink:href="#m9ff1839fc2" x="0" y="188.87938" style="fill: #ff7f0e; fill-opacity: 0.5; stroke: #ff7f0e; stroke-opacity: 0.5"/>
    </g>
   </g>
   <g id="matplotlib.axis_1">
    <g id="xtick_1">
     <g id="line2d_1">
      <defs>
       <path id="m0f88d02435" d="M 0 0 
L 0 3.5 
" style="stroke: #000000; stroke-width: 0.8"/>
      </defs>
      <g>
       <use xlink:href="#m0f88d02435" x="60.745313" y="149.101255" style="stroke: #000000; stroke-width: 0.8"/>
      </g>
     </g>
     <g id="text_1">
      <!-- 0.0 -->
      <g transform="translate(52.79375 163.699692) scale(0.1 -0.1)">
       <defs>
        <path id="DejaVuSans-30" d="M 2034 4250 
Q 1547 4250 1301 3770 
Q 1056 3291 1056 2328 
Q 1056 1369 1301 889 
Q 1547 409 2034 409 
Q 2525 409 2770 889 
Q 3016 1369 3016 2328 
Q 3016 3291 2770 3770 
Q 2525 4250 2034 4250 
z
M 2034 4750 
Q 2819 4750 3233 4129 
Q 3647 3509 3647 2328 
Q 3647 1150 3233 529 
Q 2819 -91 2034 -91 
Q 1250 -91 836 529 
Q 422 1150 422 2328 
Q 422 3509 836 4129 
Q 1250 4750 2034 4750 
z
" transform="scale(0.015625)"/>
        <path id="DejaVuSans-2e" d="M 684 794 
L 1344 794 
L 1344 0 
L 684 0 
L 684 794 
z
" transform="scale(0.015625)"/>
       </defs>
       <use xlink:href="#DejaVuSans-30"/>
       <use xlink:href="#DejaVuSans-2e" x="63.623047"/>
       <use xlink:href="#DejaVuSans-30" x="95.410156"/>
      </g>
     </g>
    </g>
    <g id="xtick_2">
     <g id="line2d_2">
      <g>
       <use xlink:href="#m0f88d02435" x="106.825312" y="149.101255" style="stroke: #000000; stroke-width: 0.8"/>
      </g>
     </g>
     <g id="text_2">
      <!-- 0.2 -->
      <g transform="translate(98.87375 163.699692) scale(0.1 -0.1)">
       <defs>
        <path id="DejaVuSans-32" d="M 1228 531 
L 3431 531 
L 3431 0 
L 469 0 
L 469 531 
Q 828 903 1448 1529 
Q 2069 2156 2228 2338 
Q 2531 2678 2651 2914 
Q 2772 3150 2772 3378 
Q 2772 3750 2511 3984 
Q 2250 4219 1831 4219 
Q 1534 4219 1204 4116 
Q 875 4013 500 3803 
L 500 4441 
Q 881 4594 1212 4672 
Q 1544 4750 1819 4750 
Q 2544 4750 2975 4387 
Q 3406 4025 3406 3419 
Q 3406 3131 3298 2873 
Q 3191 2616 2906 2266 
Q 2828 2175 2409 1742 
Q 1991 1309 1228 531 
z
" transform="scale(0.015625)"/>
       </defs>
       <use xlink:href="#DejaVuSans-30"/>
       <use xlink:href="#DejaVuSans-2e" x="63.623047"/>
       <use xlink:href="#DejaVuSans-32" x="95.410156"/>
      </g>
     </g>
    </g>
    <g id="xtick_3">
     <g id="line2d_3">
      <g>
       <use xlink:href="#m0f88d02435" x="152.905313" y="149.101255" style="stroke: #000000; stroke-width: 0.8"/>
      </g>
     </g>
     <g id="text_3">
      <!-- 0.4 -->
      <g transform="translate(144.95375 163.699692) scale(0.1 -0.1)">
       <defs>
        <path id="DejaVuSans-34" d="M 2419 4116 
L 825 1625 
L 2419 1625 
L 2419 4116 
z
M 2253 4666 
L 3047 4666 
L 3047 1625 
L 3713 1625 
L 3713 1100 
L 3047 1100 
L 3047 0 
L 2419 0 
L 2419 1100 
L 313 1100 
L 313 1709 
L 2253 4666 
z
" transform="scale(0.015625)"/>
       </defs>
       <use xlink:href="#DejaVuSans-30"/>
       <use xlink:href="#DejaVuSans-2e" x="63.623047"/>
       <use xlink:href="#DejaVuSans-34" x="95.410156"/>
      </g>
     </g>
    </g>
    <g id="xtick_4">
     <g id="line2d_4">
      <g>
       <use xlink:href="#m0f88d02435" x="198.985313" y="149.101255" style="stroke: #000000; stroke-width: 0.8"/>
      </g>
     </g>
     <g id="text_4">
      <!-- 0.6 -->
      <g transform="translate(191.03375 163.699692) scale(0.1 -0.1)">
       <defs>
        <path id="DejaVuSans-36" d="M 2113 2584 
Q 1688 2584 1439 2293 
Q 1191 2003 1191 1497 
Q 1191 994 1439 701 
Q 1688 409 2113 409 
Q 2538 409 2786 701 
Q 3034 994 3034 1497 
Q 3034 2003 2786 2293 
Q 2538 2584 2113 2584 
z
M 3366 4563 
L 3366 3988 
Q 3128 4100 2886 4159 
Q 2644 4219 2406 4219 
Q 1781 4219 1451 3797 
Q 1122 3375 1075 2522 
Q 1259 2794 1537 2939 
Q 1816 3084 2150 3084 
Q 2853 3084 3261 2657 
Q 3669 2231 3669 1497 
Q 3669 778 3244 343 
Q 2819 -91 2113 -91 
Q 1303 -91 875 529 
Q 447 1150 447 2328 
Q 447 3434 972 4092 
Q 1497 4750 2381 4750 
Q 2619 4750 2861 4703 
Q 3103 4656 3366 4563 
z
" transform="scale(0.015625)"/>
       </defs>
       <use xlink:href="#DejaVuSans-30"/>
       <use xlink:href="#DejaVuSans-2e" x="63.623047"/>
       <use xlink:href="#DejaVuSans-36" x="95.410156"/>
      </g>
     </g>
    </g>
    <g id="xtick_5">
     <g id="line2d_5">
      <g>
       <use xlink:href="#m0f88d02435" x="245.065313" y="149.101255" style="stroke: #000000; stroke-width: 0.8"/>
      </g>
     </g>
     <g id="text_5">
      <!-- 0.8 -->
      <g transform="translate(237.11375 163.699692) scale(0.1 -0.1)">
       <defs>
        <path id="DejaVuSans-38" d="M 2034 2216 
Q 1584 2216 1326 1975 
Q 1069 1734 1069 1313 
Q 1069 891 1326 650 
Q 1584 409 2034 409 
Q 2484 409 2743 651 
Q 3003 894 3003 1313 
Q 3003 1734 2745 1975 
Q 2488 2216 2034 2216 
z
M 1403 2484 
Q 997 2584 770 2862 
Q 544 3141 544 3541 
Q 544 4100 942 4425 
Q 1341 4750 2034 4750 
Q 2731 4750 3128 4425 
Q 3525 4100 3525 3541 
Q 3525 3141 3298 2862 
Q 3072 2584 2669 2484 
Q 3125 2378 3379 2068 
Q 3634 1759 3634 1313 
Q 3634 634 3220 271 
Q 2806 -91 2034 -91 
Q 1263 -91 848 271 
Q 434 634 434 1313 
Q 434 1759 690 2068 
Q 947 2378 1403 2484 
z
M 1172 3481 
Q 1172 3119 1398 2916 
Q 1625 2713 2034 2713 
Q 2441 2713 2670 2916 
Q 2900 3119 2900 3481 
Q 2900 3844 2670 4047 
Q 2441 4250 2034 4250 
Q 1625 4250 1398 4047 
Q 1172 3844 1172 3481 
z
" transform="scale(0.015625)"/>
       </defs>
       <use xlink:href="#DejaVuSans-30"/>
       <use xlink:href="#DejaVuSans-2e" x="63.623047"/>
       <use xlink:href="#DejaVuSans-38" x="95.410156"/>
      </g>
     </g>
    </g>
    <g id="xtick_6">
     <g id="line2d_6">
      <g>
       <use xlink:href="#m0f88d02435" x="291.145312" y="149.101255" style="stroke: #000000; stroke-width: 0.8"/>
      </g>
     </g>
     <g id="text_6">
      <!-- 1.0 -->
      <g transform="translate(283.19375 163.699692) scale(0.1 -0.1)">
       <defs>
        <path id="DejaVuSans-31" d="M 794 531 
L 1825 531 
L 1825 4091 
L 703 3866 
L 703 4441 
L 1819 4666 
L 2450 4666 
L 2450 531 
L 3481 531 
L 3481 0 
L 794 0 
L 794 531 
z
" transform="scale(0.015625)"/>
       </defs>
       <use xlink:href="#DejaVuSans-31"/>
       <use xlink:href="#DejaVuSans-2e" x="63.623047"/>
       <use xlink:href="#DejaVuSans-30" x="95.410156"/>
      </g>
     </g>
    </g>
    <g id="text_7">
     <!-- Selected mutant frequency of the selected Adult in cycle $k$, $f^*_k$ -->
     <g transform="translate(20.395312 178.87938) scale(0.1 -0.1)">
      <defs>
       <path id="DejaVuSans-53" d="M 3425 4513 
L 3425 3897 
Q 3066 4069 2747 4153 
Q 2428 4238 2131 4238 
Q 1616 4238 1336 4038 
Q 1056 3838 1056 3469 
Q 1056 3159 1242 3001 
Q 1428 2844 1947 2747 
L 2328 2669 
Q 3034 2534 3370 2195 
Q 3706 1856 3706 1288 
Q 3706 609 3251 259 
Q 2797 -91 1919 -91 
Q 1588 -91 1214 -16 
Q 841 59 441 206 
L 441 856 
Q 825 641 1194 531 
Q 1563 422 1919 422 
Q 2459 422 2753 634 
Q 3047 847 3047 1241 
Q 3047 1584 2836 1778 
Q 2625 1972 2144 2069 
L 1759 2144 
Q 1053 2284 737 2584 
Q 422 2884 422 3419 
Q 422 4038 858 4394 
Q 1294 4750 2059 4750 
Q 2388 4750 2728 4690 
Q 3069 4631 3425 4513 
z
" transform="scale(0.015625)"/>
       <path id="DejaVuSans-65" d="M 3597 1894 
L 3597 1613 
L 953 1613 
Q 991 1019 1311 708 
Q 1631 397 2203 397 
Q 2534 397 2845 478 
Q 3156 559 3463 722 
L 3463 178 
Q 3153 47 2828 -22 
Q 2503 -91 2169 -91 
Q 1331 -91 842 396 
Q 353 884 353 1716 
Q 353 2575 817 3079 
Q 1281 3584 2069 3584 
Q 2775 3584 3186 3129 
Q 3597 2675 3597 1894 
z
M 3022 2063 
Q 3016 2534 2758 2815 
Q 2500 3097 2075 3097 
Q 1594 3097 1305 2825 
Q 1016 2553 972 2059 
L 3022 2063 
z
" transform="scale(0.015625)"/>
       <path id="DejaVuSans-6c" d="M 603 4863 
L 1178 4863 
L 1178 0 
L 603 0 
L 603 4863 
z
" transform="scale(0.015625)"/>
       <path id="DejaVuSans-63" d="M 3122 3366 
L 3122 2828 
Q 2878 2963 2633 3030 
Q 2388 3097 2138 3097 
Q 1578 3097 1268 2742 
Q 959 2388 959 1747 
Q 959 1106 1268 751 
Q 1578 397 2138 397 
Q 2388 397 2633 464 
Q 2878 531 3122 666 
L 3122 134 
Q 2881 22 2623 -34 
Q 2366 -91 2075 -91 
Q 1284 -91 818 406 
Q 353 903 353 1747 
Q 353 2603 823 3093 
Q 1294 3584 2113 3584 
Q 2378 3584 2631 3529 
Q 2884 3475 3122 3366 
z
" transform="scale(0.015625)"/>
       <path id="DejaVuSans-74" d="M 1172 4494 
L 1172 3500 
L 2356 3500 
L 2356 3053 
L 1172 3053 
L 1172 1153 
Q 1172 725 1289 603 
Q 1406 481 1766 481 
L 2356 481 
L 2356 0 
L 1766 0 
Q 1100 0 847 248 
Q 594 497 594 1153 
L 594 3053 
L 172 3053 
L 172 3500 
L 594 3500 
L 594 4494 
L 1172 4494 
z
" transform="scale(0.015625)"/>
       <path id="DejaVuSans-64" d="M 2906 2969 
L 2906 4863 
L 3481 4863 
L 3481 0 
L 2906 0 
L 2906 525 
Q 2725 213 2448 61 
Q 2172 -91 1784 -91 
Q 1150 -91 751 415 
Q 353 922 353 1747 
Q 353 2572 751 3078 
Q 1150 3584 1784 3584 
Q 2172 3584 2448 3432 
Q 2725 3281 2906 2969 
z
M 947 1747 
Q 947 1113 1208 752 
Q 1469 391 1925 391 
Q 2381 391 2643 752 
Q 2906 1113 2906 1747 
Q 2906 2381 2643 2742 
Q 2381 3103 1925 3103 
Q 1469 3103 1208 2742 
Q 947 2381 947 1747 
z
" transform="scale(0.015625)"/>
       <path id="DejaVuSans-20" transform="scale(0.015625)"/>
       <path id="DejaVuSans-6d" d="M 3328 2828 
Q 3544 3216 3844 3400 
Q 4144 3584 4550 3584 
Q 5097 3584 5394 3201 
Q 5691 2819 5691 2113 
L 5691 0 
L 5113 0 
L 5113 2094 
Q 5113 2597 4934 2840 
Q 4756 3084 4391 3084 
Q 3944 3084 3684 2787 
Q 3425 2491 3425 1978 
L 3425 0 
L 2847 0 
L 2847 2094 
Q 2847 2600 2669 2842 
Q 2491 3084 2119 3084 
Q 1678 3084 1418 2786 
Q 1159 2488 1159 1978 
L 1159 0 
L 581 0 
L 581 3500 
L 1159 3500 
L 1159 2956 
Q 1356 3278 1631 3431 
Q 1906 3584 2284 3584 
Q 2666 3584 2933 3390 
Q 3200 3197 3328 2828 
z
" transform="scale(0.015625)"/>
       <path id="DejaVuSans-75" d="M 544 1381 
L 544 3500 
L 1119 3500 
L 1119 1403 
Q 1119 906 1312 657 
Q 1506 409 1894 409 
Q 2359 409 2629 706 
Q 2900 1003 2900 1516 
L 2900 3500 
L 3475 3500 
L 3475 0 
L 2900 0 
L 2900 538 
Q 2691 219 2414 64 
Q 2138 -91 1772 -91 
Q 1169 -91 856 284 
Q 544 659 544 1381 
z
M 1991 3584 
L 1991 3584 
z
" transform="scale(0.015625)"/>
       <path id="DejaVuSans-61" d="M 2194 1759 
Q 1497 1759 1228 1600 
Q 959 1441 959 1056 
Q 959 750 1161 570 
Q 1363 391 1709 391 
Q 2188 391 2477 730 
Q 2766 1069 2766 1631 
L 2766 1759 
L 2194 1759 
z
M 3341 1997 
L 3341 0 
L 2766 0 
L 2766 531 
Q 2569 213 2275 61 
Q 1981 -91 1556 -91 
Q 1019 -91 701 211 
Q 384 513 384 1019 
Q 384 1609 779 1909 
Q 1175 2209 1959 2209 
L 2766 2209 
L 2766 2266 
Q 2766 2663 2505 2880 
Q 2244 3097 1772 3097 
Q 1472 3097 1187 3025 
Q 903 2953 641 2809 
L 641 3341 
Q 956 3463 1253 3523 
Q 1550 3584 1831 3584 
Q 2591 3584 2966 3190 
Q 3341 2797 3341 1997 
z
" transform="scale(0.015625)"/>
       <path id="DejaVuSans-6e" d="M 3513 2113 
L 3513 0 
L 2938 0 
L 2938 2094 
Q 2938 2591 2744 2837 
Q 2550 3084 2163 3084 
Q 1697 3084 1428 2787 
Q 1159 2491 1159 1978 
L 1159 0 
L 581 0 
L 581 3500 
L 1159 3500 
L 1159 2956 
Q 1366 3272 1645 3428 
Q 1925 3584 2291 3584 
Q 2894 3584 3203 3211 
Q 3513 2838 3513 2113 
z
" transform="scale(0.015625)"/>
       <path id="DejaVuSans-66" d="M 2375 4863 
L 2375 4384 
L 1825 4384 
Q 1516 4384 1395 4259 
Q 1275 4134 1275 3809 
L 1275 3500 
L 2222 3500 
L 2222 3053 
L 1275 3053 
L 1275 0 
L 697 0 
L 697 3053 
L 147 3053 
L 147 3500 
L 697 3500 
L 697 3744 
Q 697 4328 969 4595 
Q 1241 4863 1831 4863 
L 2375 4863 
z
" transform="scale(0.015625)"/>
       <path id="DejaVuSans-72" d="M 2631 2963 
Q 2534 3019 2420 3045 
Q 2306 3072 2169 3072 
Q 1681 3072 1420 2755 
Q 1159 2438 1159 1844 
L 1159 0 
L 581 0 
L 581 3500 
L 1159 3500 
L 1159 2956 
Q 1341 3275 1631 3429 
Q 1922 3584 2338 3584 
Q 2397 3584 2469 3576 
Q 2541 3569 2628 3553 
L 2631 2963 
z
" transform="scale(0.015625)"/>
       <path id="DejaVuSans-71" d="M 947 1747 
Q 947 1113 1208 752 
Q 1469 391 1925 391 
Q 2381 391 2643 752 
Q 2906 1113 2906 1747 
Q 2906 2381 2643 2742 
Q 2381 3103 1925 3103 
Q 1469 3103 1208 2742 
Q 947 2381 947 1747 
z
M 2906 525 
Q 2725 213 2448 61 
Q 2172 -91 1784 -91 
Q 1150 -91 751 415 
Q 353 922 353 1747 
Q 353 2572 751 3078 
Q 1150 3584 1784 3584 
Q 2172 3584 2448 3432 
Q 2725 3281 2906 2969 
L 2906 3500 
L 3481 3500 
L 3481 -1331 
L 2906 -1331 
L 2906 525 
z
" transform="scale(0.015625)"/>
       <path id="DejaVuSans-79" d="M 2059 -325 
Q 1816 -950 1584 -1140 
Q 1353 -1331 966 -1331 
L 506 -1331 
L 506 -850 
L 844 -850 
Q 1081 -850 1212 -737 
Q 1344 -625 1503 -206 
L 1606 56 
L 191 3500 
L 800 3500 
L 1894 763 
L 2988 3500 
L 3597 3500 
L 2059 -325 
z
" transform="scale(0.015625)"/>
       <path id="DejaVuSans-6f" d="M 1959 3097 
Q 1497 3097 1228 2736 
Q 959 2375 959 1747 
Q 959 1119 1226 758 
Q 1494 397 1959 397 
Q 2419 397 2687 759 
Q 2956 1122 2956 1747 
Q 2956 2369 2687 2733 
Q 2419 3097 1959 3097 
z
M 1959 3584 
Q 2709 3584 3137 3096 
Q 3566 2609 3566 1747 
Q 3566 888 3137 398 
Q 2709 -91 1959 -91 
Q 1206 -91 779 398 
Q 353 888 353 1747 
Q 353 2609 779 3096 
Q 1206 3584 1959 3584 
z
" transform="scale(0.015625)"/>
       <path id="DejaVuSans-68" d="M 3513 2113 
L 3513 0 
L 2938 0 
L 2938 2094 
Q 2938 2591 2744 2837 
Q 2550 3084 2163 3084 
Q 1697 3084 1428 2787 
Q 1159 2491 1159 1978 
L 1159 0 
L 581 0 
L 581 4863 
L 1159 4863 
L 1159 2956 
Q 1366 3272 1645 3428 
Q 1925 3584 2291 3584 
Q 2894 3584 3203 3211 
Q 3513 2838 3513 2113 
z
" transform="scale(0.015625)"/>
       <path id="DejaVuSans-73" d="M 2834 3397 
L 2834 2853 
Q 2591 2978 2328 3040 
Q 2066 3103 1784 3103 
Q 1356 3103 1142 2972 
Q 928 2841 928 2578 
Q 928 2378 1081 2264 
Q 1234 2150 1697 2047 
L 1894 2003 
Q 2506 1872 2764 1633 
Q 3022 1394 3022 966 
Q 3022 478 2636 193 
Q 2250 -91 1575 -91 
Q 1294 -91 989 -36 
Q 684 19 347 128 
L 347 722 
Q 666 556 975 473 
Q 1284 391 1588 391 
Q 1994 391 2212 530 
Q 2431 669 2431 922 
Q 2431 1156 2273 1281 
Q 2116 1406 1581 1522 
L 1381 1569 
Q 847 1681 609 1914 
Q 372 2147 372 2553 
Q 372 3047 722 3315 
Q 1072 3584 1716 3584 
Q 2034 3584 2315 3537 
Q 2597 3491 2834 3397 
z
" transform="scale(0.015625)"/>
       <path id="DejaVuSans-41" d="M 2188 4044 
L 1331 1722 
L 3047 1722 
L 2188 4044 
z
M 1831 4666 
L 2547 4666 
L 4325 0 
L 3669 0 
L 3244 1197 
L 1141 1197 
L 716 0 
L 50 0 
L 1831 4666 
z
" transform="scale(0.015625)"/>
       <path id="DejaVuSans-69" d="M 603 3500 
L 1178 3500 
L 1178 0 
L 603 0 
L 603 3500 
z
M 603 4863 
L 1178 4863 
L 1178 4134 
L 603 4134 
L 603 4863 
z
" transform="scale(0.015625)"/>
       <path id="DejaVuSans-Oblique-6b" d="M 1172 4863 
L 1747 4863 
L 1197 2028 
L 3169 3500 
L 3916 3500 
L 1716 1825 
L 3322 0 
L 2625 0 
L 1131 1709 
L 800 0 
L 225 0 
L 1172 4863 
z
" transform="scale(0.015625)"/>
       <path id="DejaVuSans-2c" d="M 750 794 
L 1409 794 
L 1409 256 
L 897 -744 
L 494 -744 
L 750 256 
L 750 794 
z
" transform="scale(0.015625)"/>
       <path id="DejaVuSans-Oblique-66" d="M 3059 4863 
L 2969 4384 
L 2419 4384 
Q 2106 4384 1964 4261 
Q 1822 4138 1753 3809 
L 1691 3500 
L 2638 3500 
L 2553 3053 
L 1606 3053 
L 1013 0 
L 434 0 
L 1031 3053 
L 481 3053 
L 563 3500 
L 1113 3500 
L 1159 3744 
Q 1278 4363 1576 4613 
Q 1875 4863 2516 4863 
L 3059 4863 
z
" transform="scale(0.015625)"/>
       <path id="DejaVuSans-2a" d="M 3009 3897 
L 1888 3291 
L 3009 2681 
L 2828 2375 
L 1778 3009 
L 1778 1831 
L 1422 1831 
L 1422 3009 
L 372 2375 
L 191 2681 
L 1313 3291 
L 191 3897 
L 372 4206 
L 1422 3572 
L 1422 4750 
L 1778 4750 
L 1778 3572 
L 2828 4206 
L 3009 3897 
z
" transform="scale(0.015625)"/>
      </defs>
      <use xlink:href="#DejaVuSans-53" transform="translate(0 0.701562)"/>
      <use xlink:href="#DejaVuSans-65" transform="translate(63.476562 0.701562)"/>
      <use xlink:href="#DejaVuSans-6c" transform="translate(125 0.701562)"/>
      <use xlink:href="#DejaVuSans-65" transform="translate(152.783203 0.701562)"/>
      <use xlink:href="#DejaVuSans-63" transform="translate(214.306641 0.701562)"/>
      <use xlink:href="#DejaVuSans-74" transform="translate(269.287109 0.701562)"/>
      <use xlink:href="#DejaVuSans-65" transform="translate(308.496094 0.701562)"/>
      <use xlink:href="#DejaVuSans-64" transform="translate(370.019531 0.701562)"/>
      <use xlink:href="#DejaVuSans-20" transform="translate(433.496094 0.701562)"/>
      <use xlink:href="#DejaVuSans-6d" transform="translate(465.283203 0.701562)"/>
      <use xlink:href="#DejaVuSans-75" transform="translate(562.695312 0.701562)"/>
      <use xlink:href="#DejaVuSans-74" transform="translate(626.074219 0.701562)"/>
      <use xlink:href="#DejaVuSans-61" transform="translate(665.283203 0.701562)"/>
      <use xlink:href="#DejaVuSans-6e" transform="translate(726.5625 0.701562)"/>
      <use xlink:href="#DejaVuSans-74" transform="translate(789.941406 0.701562)"/>
      <use xlink:href="#DejaVuSans-20" transform="translate(829.150391 0.701562)"/>
      <use xlink:href="#DejaVuSans-66" transform="translate(860.9375 0.701562)"/>
      <use xlink:href="#DejaVuSans-72" transform="translate(896.142578 0.701562)"/>
      <use xlink:href="#DejaVuSans-65" transform="translate(937.255859 0.701562)"/>
      <use xlink:href="#DejaVuSans-71" transform="translate(998.779297 0.701562)"/>
      <use xlink:href="#DejaVuSans-75" transform="translate(1062.255859 0.701562)"/>
      <use xlink:href="#DejaVuSans-65" transform="translate(1125.634766 0.701562)"/>
      <use xlink:href="#DejaVuSans-6e" transform="translate(1187.158203 0.701562)"/>
      <use xlink:href="#DejaVuSans-63" transform="translate(1250.537109 0.701562)"/>
      <use xlink:href="#DejaVuSans-79" transform="translate(1305.517578 0.701562)"/>
      <use xlink:href="#DejaVuSans-20" transform="translate(1364.697266 0.701562)"/>
      <use xlink:href="#DejaVuSans-6f" transform="translate(1396.484375 0.701562)"/>
      <use xlink:href="#DejaVuSans-66" transform="translate(1457.666016 0.701562)"/>
      <use xlink:href="#DejaVuSans-20" transform="translate(1492.871094 0.701562)"/>
      <use xlink:href="#DejaVuSans-74" transform="translate(1524.658203 0.701562)"/>
      <use xlink:href="#DejaVuSans-68" transform="translate(1563.867188 0.701562)"/>
      <use xlink:href="#DejaVuSans-65" transform="translate(1627.246094 0.701562)"/>
      <use xlink:href="#DejaVuSans-20" transform="translate(1688.769531 0.701562)"/>
      <use xlink:href="#DejaVuSans-73" transform="translate(1720.556641 0.701562)"/>
      <use xlink:href="#DejaVuSans-65" transform="translate(1772.65625 0.701562)"/>
      <use xlink:href="#DejaVuSans-6c" transform="translate(1834.179688 0.701562)"/>
      <use xlink:href="#DejaVuSans-65" transform="translate(1861.962891 0.701562)"/>
      <use xlink:href="#DejaVuSans-63" transform="translate(1923.486328 0.701562)"/>
      <use xlink:href="#DejaVuSans-74" transform="translate(1978.466797 0.701562)"/>
      <use xlink:href="#DejaVuSans-65" transform="translate(2017.675781 0.701562)"/>
      <use xlink:href="#DejaVuSans-64" transform="translate(2079.199219 0.701562)"/>
      <use xlink:href="#DejaVuSans-20" transform="translate(2142.675781 0.701562)"/>
      <use xlink:href="#DejaVuSans-41" transform="translate(2174.462891 0.701562)"/>
      <use xlink:href="#DejaVuSans-64" transform="translate(2242.871094 0.701562)"/>
      <use xlink:href="#DejaVuSans-75" transform="translate(2306.347656 0.701562)"/>
      <use xlink:href="#DejaVuSans-6c" transform="translate(2369.726562 0.701562)"/>
      <use xlink:href="#DejaVuSans-74" transform="translate(2397.509766 0.701562)"/>
      <use xlink:href="#DejaVuSans-20" transform="translate(2436.71875 0.701562)"/>
      <use xlink:href="#DejaVuSans-69" transform="translate(2468.505859 0.701562)"/>
      <use xlink:href="#DejaVuSans-6e" transform="translate(2496.289062 0.701562)"/>
      <use xlink:href="#DejaVuSans-20" transform="translate(2559.667969 0.701562)"/>
      <use xlink:href="#DejaVuSans-63" transform="translate(2591.455078 0.701562)"/>
      <use xlink:href="#DejaVuSans-79" transform="translate(2646.435547 0.701562)"/>
      <use xlink:href="#DejaVuSans-63" transform="translate(2705.615234 0.701562)"/>
      <use xlink:href="#DejaVuSans-6c" transform="translate(2760.595703 0.701562)"/>
      <use xlink:href="#DejaVuSans-65" transform="translate(2788.378906 0.701562)"/>
      <use xlink:href="#DejaVuSans-20" transform="translate(2849.902344 0.701562)"/>
      <use xlink:href="#DejaVuSans-Oblique-6b" transform="translate(2881.689453 0.701562)"/>
      <use xlink:href="#DejaVuSans-2c" transform="translate(2939.599609 0.701562)"/>
      <use xlink:href="#DejaVuSans-20" transform="translate(2971.386719 0.701562)"/>
      <use xlink:href="#DejaVuSans-Oblique-66" transform="translate(3003.173828 0.701562)"/>
      <use xlink:href="#DejaVuSans-2a" transform="translate(3059.46431 39.046875) scale(0.7)"/>
      <use xlink:href="#DejaVuSans-Oblique-6b" transform="translate(3038.378906 -26.642188) scale(0.7)"/>
     </g>
    </g>
   </g>
   <g id="matplotlib.axis_2">
    <g id="ytick_1">
     <g id="line2d_7">
      <defs>
       <path id="m34b16215ab" d="M 0 0 
L -3.5 0 
" style="stroke: #000000; stroke-width: 0.8"/>
      </defs>
      <g>
       <use xlink:href="#m34b16215ab" x="60.745313" y="148.963291" style="stroke: #000000; stroke-width: 0.8"/>
      </g>
     </g>
     <g id="text_8">
      <!-- 0.04 -->
      <g transform="translate(23.1 152.762509) scale(0.1 -0.1)">
       <defs>
        <path id="DejaVuSans-2212" d="M 678 2272 
L 4684 2272 
L 4684 1741 
L 678 1741 
L 678 2272 
z
" transform="scale(0.015625)"/>
       </defs>
       <use xlink:href="#DejaVuSans-2212"/>
       <use xlink:href="#DejaVuSans-30" x="83.789062"/>
       <use xlink:href="#DejaVuSans-2e" x="147.412109"/>
       <use xlink:href="#DejaVuSans-30" x="179.199219"/>
       <use xlink:href="#DejaVuSans-34" x="242.822266"/>
      </g>
     </g>
    </g>
    <g id="ytick_2">
     <g id="line2d_8">
      <g>
       <use xlink:href="#m34b16215ab" x="60.745313" y="121.370476" style="stroke: #000000; stroke-width: 0.8"/>
      </g>
     </g>
     <g id="text_9">
      <!-- 0.02 -->
      <g transform="translate(23.1 125.169695) scale(0.1 -0.1)">
       <use xlink:href="#DejaVuSans-2212"/>
       <use xlink:href="#DejaVuSans-30" x="83.789062"/>
       <use xlink:href="#DejaVuSans-2e" x="147.412109"/>
       <use xlink:href="#DejaVuSans-30" x="179.199219"/>
       <use xlink:href="#DejaVuSans-32" x="242.822266"/>
      </g>
     </g>
    </g>
    <g id="ytick_3">
     <g id="line2d_9">
      <g>
       <use xlink:href="#m34b16215ab" x="60.745313" y="93.777662" style="stroke: #000000; stroke-width: 0.8"/>
      </g>
     </g>
     <g id="text_10">
      <!-- 0.00 -->
      <g transform="translate(31.479688 97.576881) scale(0.1 -0.1)">
       <use xlink:href="#DejaVuSans-30"/>
       <use xlink:href="#DejaVuSans-2e" x="63.623047"/>
       <use xlink:href="#DejaVuSans-30" x="95.410156"/>
       <use xlink:href="#DejaVuSans-30" x="159.033203"/>
      </g>
     </g>
    </g>
    <g id="ytick_4">
     <g id="line2d_10">
      <g>
       <use xlink:href="#m34b16215ab" x="60.745313" y="66.184847" style="stroke: #000000; stroke-width: 0.8"/>
      </g>
     </g>
     <g id="text_11">
      <!-- 0.02 -->
      <g transform="translate(31.479688 69.984066) scale(0.1 -0.1)">
       <use xlink:href="#DejaVuSans-30"/>
       <use xlink:href="#DejaVuSans-2e" x="63.623047"/>
       <use xlink:href="#DejaVuSans-30" x="95.410156"/>
       <use xlink:href="#DejaVuSans-32" x="159.033203"/>
      </g>
     </g>
    </g>
    <g id="ytick_5">
     <g id="line2d_11">
      <g>
       <use xlink:href="#m34b16215ab" x="60.745313" y="38.592033" style="stroke: #000000; stroke-width: 0.8"/>
      </g>
     </g>
     <g id="text_12">
      <!-- 0.04 -->
      <g transform="translate(31.479688 42.391252) scale(0.1 -0.1)">
       <use xlink:href="#DejaVuSans-30"/>
       <use xlink:href="#DejaVuSans-2e" x="63.623047"/>
       <use xlink:href="#DejaVuSans-30" x="95.410156"/>
       <use xlink:href="#DejaVuSans-34" x="159.033203"/>
      </g>
     </g>
    </g>
    <g id="ytick_6">
     <g id="line2d_12">
      <g>
       <use xlink:href="#m34b16215ab" x="60.745313" y="10.999219" style="stroke: #000000; stroke-width: 0.8"/>
      </g>
     </g>
     <g id="text_13">
      <!-- 0.06 -->
      <g transform="translate(31.479688 14.798437) scale(0.1 -0.1)">
       <use xlink:href="#DejaVuSans-30"/>
       <use xlink:href="#DejaVuSans-2e" x="63.623047"/>
       <use xlink:href="#DejaVuSans-30" x="95.410156"/>
       <use xlink:href="#DejaVuSans-36" x="159.033203"/>
      </g>
     </g>
    </g>
    <g id="text_14">
     <!-- $f-f^*_k$ -->
     <g transform="translate(16.3 93.281255) rotate(-90) scale(0.1 -0.1)">
      <use xlink:href="#DejaVuSans-Oblique-66" transform="translate(0 0.701562)"/>
      <use xlink:href="#DejaVuSans-2212" transform="translate(54.6875 0.701562)"/>
      <use xlink:href="#DejaVuSans-Oblique-66" transform="translate(157.958984 0.701562)"/>
      <use xlink:href="#DejaVuSans-2a" transform="translate(214.249466 39.046875) scale(0.7)"/>
      <use xlink:href="#DejaVuSans-Oblique-6b" transform="translate(193.164062 -26.642188) scale(0.7)"/>
     </g>
    </g>
   </g>
   <g id="LineCollection_1">
    <path d="M 60.745313 93.777662 
L 291.145312 93.777662 
" clip-path="url(#p7cac2fd0b6)" style="fill: none; stroke-dasharray: 1.5,2.475; stroke-dashoffset: 0; stroke: #000000; stroke-width: 1.5"/>
   </g>
   <g id="patch_3">
    <path d="M 60.745313 149.101255 
L 60.745313 10.861255 
" style="fill: none; stroke: #000000; stroke-width: 0.8; stroke-linejoin: miter; stroke-linecap: square"/>
   </g>
   <g id="patch_4">
    <path d="M 291.145312 149.101255 
L 291.145312 10.861255 
" style="fill: none; stroke: #000000; stroke-width: 0.8; stroke-linejoin: miter; stroke-linecap: square"/>
   </g>
   <g id="patch_5">
    <path d="M 60.745313 149.101255 
L 291.145312 149.101255 
" style="fill: none; stroke: #000000; stroke-width: 0.8; stroke-linejoin: miter; stroke-linecap: square"/>
   </g>
   <g id="patch_6">
    <path d="M 60.745313 10.861255 
L 291.145312 10.861255 
" style="fill: none; stroke: #000000; stroke-width: 0.8; stroke-linejoin: miter; stroke-linecap: square"/>
   </g>
  </g>
  <g id="axes_2">
   <g id="patch_7">
    <path d="M 240.457313 60.282055 
L 286.537312 60.282055 
L 286.537312 15.354055 
L 240.457313 15.354055 
z
" style="fill: #ffffff"/>
   </g>
   <g id="PolyCollection_19">
    <defs>
     <path id="m20625db588" d="M 263.337343 -130.639507 
L 263.337343 -151.061325 
L 263.322357 -151.061325 
L 263.306139 -151.061325 
L 263.288605 -151.061325 
L 263.269668 -151.061325 
L 263.249237 -151.061325 
L 263.227215 -151.061325 
L 263.203502 -151.061325 
L 263.177996 -151.061325 
L 263.150587 -151.061325 
L 263.121164 -151.061325 
L 263.089612 -151.061325 
L 263.05581 -151.061325 
L 263.019636 -151.061325 
L 262.980963 -151.061325 
L 262.939661 -151.061325 
L 262.895598 -151.061325 
L 262.848636 -151.061325 
L 262.798639 -151.061325 
L 262.745465 -151.061325 
L 262.688972 -151.061325 
L 262.629016 -151.061325 
L 262.565452 -151.061325 
L 262.498134 -151.061325 
L 262.426917 -151.061325 
L 262.351656 -151.061325 
L 262.272205 -151.061325 
L 262.188424 -151.061325 
L 262.100171 -151.061325 
L 262.007309 -151.061325 
L 261.909705 -151.061325 
L 261.807229 -151.061325 
L 261.699756 -151.061325 
L 261.587169 -151.061325 
L 261.469357 -151.061325 
L 261.346215 -151.061325 
L 261.217648 -151.061325 
L 261.083571 -151.061325 
L 260.943906 -151.061325 
L 260.798591 -151.061325 
L 260.647571 -151.061325 
L 260.490808 -151.061325 
L 260.328274 -151.061325 
L 260.159959 -151.061325 
L 259.985865 -151.061325 
L 259.806014 -151.061325 
L 259.620442 -151.061325 
L 259.429204 -151.061325 
L 259.232372 -151.061325 
L 259.030039 -151.061325 
L 258.822317 -151.061325 
L 258.609337 -151.061325 
L 258.391252 -151.061325 
L 258.168235 -151.061325 
L 257.94048 -151.061325 
L 257.708205 -151.061325 
L 257.471645 -151.061325 
L 257.231062 -151.061325 
L 256.986735 -151.061325 
L 256.738966 -151.061325 
L 256.48808 -151.061325 
L 256.23442 -151.061325 
L 255.97835 -151.061325 
L 255.720254 -151.061325 
L 255.460535 -151.061325 
L 255.199614 -151.061325 
L 254.937929 -151.061325 
L 254.675934 -151.061325 
L 254.414097 -151.061325 
L 254.152903 -151.061325 
L 253.892846 -151.061325 
L 253.634433 -151.061325 
L 253.378177 -151.061325 
L 253.124604 -151.061325 
L 252.874241 -151.061325 
L 252.627622 -151.061325 
L 252.385284 -151.061325 
L 252.147761 -151.061325 
L 251.91559 -151.061325 
L 251.689301 -151.061325 
L 251.469421 -151.061325 
L 251.256469 -151.061325 
L 251.050953 -151.061325 
L 250.853371 -151.061325 
L 250.664207 -151.061325 
L 250.483931 -151.061325 
L 250.312993 -151.061325 
L 250.151826 -151.061325 
L 250.000842 -151.061325 
L 249.860428 -151.061325 
L 249.730949 -151.061325 
L 249.612742 -151.061325 
L 249.506117 -151.061325 
L 249.411357 -151.061325 
L 249.328713 -151.061325 
L 249.258405 -151.061325 
L 249.20062 -151.061325 
L 249.155515 -151.061325 
L 249.123209 -151.061325 
L 249.103791 -151.061325 
L 249.097313 -151.061325 
L 249.103791 -151.061325 
L 249.123209 -151.061325 
L 249.155515 -151.061325 
L 249.20062 -151.061325 
L 249.258405 -151.061325 
L 249.328713 -151.061325 
L 249.411357 -151.061325 
L 249.506117 -151.061325 
L 249.612742 -151.061325 
L 249.730949 -151.061325 
L 249.860428 -151.061325 
L 250.000842 -151.061325 
L 250.151826 -151.061325 
L 250.312993 -151.061325 
L 250.483931 -151.061325 
L 250.664207 -151.061325 
L 250.853371 -151.061325 
L 251.050953 -151.061325 
L 251.256469 -151.061325 
L 251.469421 -151.061325 
L 251.689301 -151.061325 
L 251.91559 -151.061325 
L 252.147761 -151.061325 
L 252.385284 -151.061325 
L 252.627622 -151.061325 
L 252.874241 -151.061325 
L 253.124604 -151.061325 
L 253.378177 -151.061325 
L 253.634433 -151.061325 
L 253.892846 -151.061325 
L 254.152903 -151.061325 
L 254.414097 -151.061325 
L 254.675934 -151.061325 
L 254.937929 -151.061325 
L 255.199614 -151.061325 
L 255.460535 -151.061325 
L 255.720254 -151.061325 
L 255.97835 -151.061325 
L 256.23442 -151.061325 
L 256.48808 -151.061325 
L 256.738966 -151.061325 
L 256.986735 -151.061325 
L 257.231062 -151.061325 
L 257.471645 -151.061325 
L 257.708205 -151.061325 
L 257.94048 -151.061325 
L 258.168235 -151.061325 
L 258.391252 -151.061325 
L 258.609337 -151.061325 
L 258.822317 -151.061325 
L 259.030039 -151.061325 
L 259.232372 -151.061325 
L 259.429204 -151.061325 
L 259.620442 -151.061325 
L 259.806014 -151.061325 
L 259.985865 -151.061325 
L 260.159959 -151.061325 
L 260.328274 -151.061325 
L 260.490808 -151.061325 
L 260.647571 -151.061325 
L 260.798591 -151.061325 
L 260.943906 -151.061325 
L 261.083571 -151.061325 
L 261.217648 -151.061325 
L 261.346215 -151.061325 
L 261.469357 -151.061325 
L 261.587169 -151.061325 
L 261.699756 -151.061325 
L 261.807229 -151.061325 
L 261.909705 -151.061325 
L 262.007309 -151.061325 
L 262.100171 -151.061325 
L 262.188424 -151.061325 
L 262.272205 -151.061325 
L 262.351656 -151.061325 
L 262.426917 -151.061325 
L 262.498134 -151.061325 
L 262.565452 -151.061325 
L 262.629016 -151.061325 
L 262.688972 -151.061325 
L 262.745465 -151.061325 
L 262.798639 -151.061325 
L 262.848636 -151.061325 
L 262.895598 -151.061325 
L 262.939661 -151.061325 
L 262.980963 -151.061325 
L 263.019636 -151.061325 
L 263.05581 -151.061325 
L 263.089612 -151.061325 
L 263.121164 -151.061325 
L 263.150587 -151.061325 
L 263.177996 -151.061325 
L 263.203502 -151.061325 
L 263.227215 -151.061325 
L 263.249237 -151.061325 
L 263.269668 -151.061325 
L 263.288605 -151.061325 
L 263.306139 -151.061325 
L 263.322357 -151.061325 
L 263.322357 -171.483143 
L 263.322357 -171.483143 
L 263.306139 -171.277899 
L 263.288605 -171.072654 
L 263.269668 -170.86741 
L 263.249237 -170.662166 
L 263.227215 -170.456921 
L 263.203502 -170.251677 
L 263.177996 -170.046432 
L 263.150587 -169.841188 
L 263.121164 -169.635944 
L 263.089612 -169.430699 
L 263.05581 -169.225455 
L 263.019636 -169.02021 
L 262.980963 -168.814966 
L 262.939661 -168.609722 
L 262.895598 -168.404477 
L 262.848636 -168.199233 
L 262.798639 -167.993988 
L 262.745465 -167.788744 
L 262.688972 -167.5835 
L 262.629016 -167.378255 
L 262.565452 -167.173011 
L 262.498134 -166.967766 
L 262.426917 -166.762522 
L 262.351656 -166.557277 
L 262.272205 -166.352033 
L 262.188424 -166.146789 
L 262.100171 -165.941544 
L 262.007309 -165.7363 
L 261.909705 -165.531055 
L 261.807229 -165.325811 
L 261.699756 -165.120567 
L 261.587169 -164.915322 
L 261.469357 -164.710078 
L 261.346215 -164.504833 
L 261.217648 -164.299589 
L 261.083571 -164.094345 
L 260.943906 -163.8891 
L 260.798591 -163.683856 
L 260.647571 -163.478611 
L 260.490808 -163.273367 
L 260.328274 -163.068123 
L 260.159959 -162.862878 
L 259.985865 -162.657634 
L 259.806014 -162.452389 
L 259.620442 -162.247145 
L 259.429204 -162.041901 
L 259.232372 -161.836656 
L 259.030039 -161.631412 
L 258.822317 -161.426167 
L 258.609337 -161.220923 
L 258.391252 -161.015679 
L 258.168235 -160.810434 
L 257.94048 -160.60519 
L 257.708205 -160.399945 
L 257.471645 -160.194701 
L 257.231062 -159.989457 
L 256.986735 -159.784212 
L 256.738966 -159.578968 
L 256.48808 -159.373723 
L 256.23442 -159.168479 
L 255.97835 -158.963235 
L 255.720254 -158.75799 
L 255.460535 -158.552746 
L 255.199614 -158.347501 
L 254.937929 -158.142257 
L 254.675934 -157.937013 
L 254.414097 -157.731768 
L 254.152903 -157.526524 
L 253.892846 -157.321279 
L 253.634433 -157.116035 
L 253.378177 -156.910791 
L 253.124604 -156.705546 
L 252.874241 -156.500302 
L 252.627622 -156.295057 
L 252.385284 -156.089813 
L 252.147761 -155.884568 
L 251.91559 -155.679324 
L 251.689301 -155.47408 
L 251.469421 -155.268835 
L 251.256469 -155.063591 
L 251.050953 -154.858346 
L 250.853371 -154.653102 
L 250.664207 -154.447858 
L 250.483931 -154.242613 
L 250.312993 -154.037369 
L 250.151826 -153.832124 
L 250.000842 -153.62688 
L 249.860428 -153.421636 
L 249.730949 -153.216391 
L 249.612742 -153.011147 
L 249.506117 -152.805902 
L 249.411357 -152.600658 
L 249.328713 -152.395414 
L 249.258405 -152.190169 
L 249.20062 -151.984925 
L 249.155515 -151.77968 
L 249.123209 -151.574436 
L 249.103791 -151.369192 
L 249.097313 -151.163947 
L 249.103791 -150.958703 
L 249.123209 -150.753458 
L 249.155515 -150.548214 
L 249.20062 -150.34297 
L 249.258405 -150.137725 
L 249.328713 -149.932481 
L 249.411357 -149.727236 
L 249.506117 -149.521992 
L 249.612742 -149.316748 
L 249.730949 -149.111503 
L 249.860428 -148.906259 
L 250.000842 -148.701014 
L 250.151826 -148.49577 
L 250.312993 -148.290526 
L 250.483931 -148.085281 
L 250.664207 -147.880037 
L 250.853371 -147.674792 
L 251.050953 -147.469548 
L 251.256469 -147.264304 
L 251.469421 -147.059059 
L 251.689301 -146.853815 
L 251.91559 -146.64857 
L 252.147761 -146.443326 
L 252.385284 -146.238082 
L 252.627622 -146.032837 
L 252.874241 -145.827593 
L 253.124604 -145.622348 
L 253.378177 -145.417104 
L 253.634433 -145.211859 
L 253.892846 -145.006615 
L 254.152903 -144.801371 
L 254.414097 -144.596126 
L 254.675934 -144.390882 
L 254.937929 -144.185637 
L 255.199614 -143.980393 
L 255.460535 -143.775149 
L 255.720254 -143.569904 
L 255.97835 -143.36466 
L 256.23442 -143.159415 
L 256.48808 -142.954171 
L 256.738966 -142.748927 
L 256.986735 -142.543682 
L 257.231062 -142.338438 
L 257.471645 -142.133193 
L 257.708205 -141.927949 
L 257.94048 -141.722705 
L 258.168235 -141.51746 
L 258.391252 -141.312216 
L 258.609337 -141.106971 
L 258.822317 -140.901727 
L 259.030039 -140.696483 
L 259.232372 -140.491238 
L 259.429204 -140.285994 
L 259.620442 -140.080749 
L 259.806014 -139.875505 
L 259.985865 -139.670261 
L 260.159959 -139.465016 
L 260.328274 -139.259772 
L 260.490808 -139.054527 
L 260.647571 -138.849283 
L 260.798591 -138.644039 
L 260.943906 -138.438794 
L 261.083571 -138.23355 
L 261.217648 -138.028305 
L 261.346215 -137.823061 
L 261.469357 -137.617817 
L 261.587169 -137.412572 
L 261.699756 -137.207328 
L 261.807229 -137.002083 
L 261.909705 -136.796839 
L 262.007309 -136.591595 
L 262.100171 -136.38635 
L 262.188424 -136.181106 
L 262.272205 -135.975861 
L 262.351656 -135.770617 
L 262.426917 -135.565373 
L 262.498134 -135.360128 
L 262.565452 -135.154884 
L 262.629016 -134.949639 
L 262.688972 -134.744395 
L 262.745465 -134.53915 
L 262.798639 -134.333906 
L 262.848636 -134.128662 
L 262.895598 -133.923417 
L 262.939661 -133.718173 
L 262.980963 -133.512928 
L 263.019636 -133.307684 
L 263.05581 -133.10244 
L 263.089612 -132.897195 
L 263.121164 -132.691951 
L 263.150587 -132.486706 
L 263.177996 -132.281462 
L 263.203502 -132.076218 
L 263.227215 -131.870973 
L 263.249237 -131.665729 
L 263.269668 -131.460484 
L 263.288605 -131.25524 
L 263.306139 -131.049996 
L 263.322357 -130.844751 
L 263.337343 -130.639507 
z
" style="stroke: #1f77b4; stroke-opacity: 0.5"/>
    </defs>
    <g clip-path="url(#pe19453132e)">
     <use xlink:href="#m20625db588" x="0" y="188.87938" style="fill: #1f77b4; fill-opacity: 0.5; stroke: #1f77b4; stroke-opacity: 0.5"/>
    </g>
   </g>
   <g id="PolyCollection_20">
    <defs>
     <path id="me4c77e3218" d="M 263.657282 -130.639507 
L 263.657282 -151.061325 
L 263.672268 -151.061325 
L 263.688486 -151.061325 
L 263.70602 -151.061325 
L 263.724957 -151.061325 
L 263.745388 -151.061325 
L 263.76741 -151.061325 
L 263.791123 -151.061325 
L 263.816629 -151.061325 
L 263.844038 -151.061325 
L 263.873461 -151.061325 
L 263.905013 -151.061325 
L 263.938815 -151.061325 
L 263.974989 -151.061325 
L 264.013662 -151.061325 
L 264.054964 -151.061325 
L 264.099027 -151.061325 
L 264.145989 -151.061325 
L 264.195986 -151.061325 
L 264.24916 -151.061325 
L 264.305653 -151.061325 
L 264.365609 -151.061325 
L 264.429173 -151.061325 
L 264.496491 -151.061325 
L 264.567708 -151.061325 
L 264.642969 -151.061325 
L 264.72242 -151.061325 
L 264.806201 -151.061325 
L 264.894454 -151.061325 
L 264.987316 -151.061325 
L 265.08492 -151.061325 
L 265.187396 -151.061325 
L 265.294869 -151.061325 
L 265.407456 -151.061325 
L 265.525268 -151.061325 
L 265.64841 -151.061325 
L 265.776977 -151.061325 
L 265.911054 -151.061325 
L 266.050719 -151.061325 
L 266.196034 -151.061325 
L 266.347054 -151.061325 
L 266.503817 -151.061325 
L 266.666351 -151.061325 
L 266.834666 -151.061325 
L 267.00876 -151.061325 
L 267.188611 -151.061325 
L 267.374183 -151.061325 
L 267.565421 -151.061325 
L 267.762253 -151.061325 
L 267.964586 -151.061325 
L 268.172308 -151.061325 
L 268.385288 -151.061325 
L 268.603373 -151.061325 
L 268.82639 -151.061325 
L 269.054145 -151.061325 
L 269.28642 -151.061325 
L 269.52298 -151.061325 
L 269.763563 -151.061325 
L 270.00789 -151.061325 
L 270.255659 -151.061325 
L 270.506545 -151.061325 
L 270.760205 -151.061325 
L 271.016275 -151.061325 
L 271.274371 -151.061325 
L 271.53409 -151.061325 
L 271.795011 -151.061325 
L 272.056696 -151.061325 
L 272.318691 -151.061325 
L 272.580528 -151.061325 
L 272.841722 -151.061325 
L 273.101779 -151.061325 
L 273.360192 -151.061325 
L 273.616448 -151.061325 
L 273.870021 -151.061325 
L 274.120384 -151.061325 
L 274.367003 -151.061325 
L 274.609341 -151.061325 
L 274.846864 -151.061325 
L 275.079035 -151.061325 
L 275.305324 -151.061325 
L 275.525204 -151.061325 
L 275.738156 -151.061325 
L 275.943672 -151.061325 
L 276.141254 -151.061325 
L 276.330418 -151.061325 
L 276.510694 -151.061325 
L 276.681632 -151.061325 
L 276.842799 -151.061325 
L 276.993783 -151.061325 
L 277.134197 -151.061325 
L 277.263676 -151.061325 
L 277.381883 -151.061325 
L 277.488508 -151.061325 
L 277.583268 -151.061325 
L 277.665912 -151.061325 
L 277.73622 -151.061325 
L 277.794005 -151.061325 
L 277.83911 -151.061325 
L 277.871416 -151.061325 
L 277.890834 -151.061325 
L 277.897312 -151.061325 
L 277.890834 -151.061325 
L 277.871416 -151.061325 
L 277.83911 -151.061325 
L 277.794005 -151.061325 
L 277.73622 -151.061325 
L 277.665912 -151.061325 
L 277.583268 -151.061325 
L 277.488508 -151.061325 
L 277.381883 -151.061325 
L 277.263676 -151.061325 
L 277.134197 -151.061325 
L 276.993783 -151.061325 
L 276.842799 -151.061325 
L 276.681632 -151.061325 
L 276.510694 -151.061325 
L 276.330418 -151.061325 
L 276.141254 -151.061325 
L 275.943672 -151.061325 
L 275.738156 -151.061325 
L 275.525204 -151.061325 
L 275.305324 -151.061325 
L 275.079035 -151.061325 
L 274.846864 -151.061325 
L 274.609341 -151.061325 
L 274.367003 -151.061325 
L 274.120384 -151.061325 
L 273.870021 -151.061325 
L 273.616448 -151.061325 
L 273.360192 -151.061325 
L 273.101779 -151.061325 
L 272.841722 -151.061325 
L 272.580528 -151.061325 
L 272.318691 -151.061325 
L 272.056696 -151.061325 
L 271.795011 -151.061325 
L 271.53409 -151.061325 
L 271.274371 -151.061325 
L 271.016275 -151.061325 
L 270.760205 -151.061325 
L 270.506545 -151.061325 
L 270.255659 -151.061325 
L 270.00789 -151.061325 
L 269.763563 -151.061325 
L 269.52298 -151.061325 
L 269.28642 -151.061325 
L 269.054145 -151.061325 
L 268.82639 -151.061325 
L 268.603373 -151.061325 
L 268.385288 -151.061325 
L 268.172308 -151.061325 
L 267.964586 -151.061325 
L 267.762253 -151.061325 
L 267.565421 -151.061325 
L 267.374183 -151.061325 
L 267.188611 -151.061325 
L 267.00876 -151.061325 
L 266.834666 -151.061325 
L 266.666351 -151.061325 
L 266.503817 -151.061325 
L 266.347054 -151.061325 
L 266.196034 -151.061325 
L 266.050719 -151.061325 
L 265.911054 -151.061325 
L 265.776977 -151.061325 
L 265.64841 -151.061325 
L 265.525268 -151.061325 
L 265.407456 -151.061325 
L 265.294869 -151.061325 
L 265.187396 -151.061325 
L 265.08492 -151.061325 
L 264.987316 -151.061325 
L 264.894454 -151.061325 
L 264.806201 -151.061325 
L 264.72242 -151.061325 
L 264.642969 -151.061325 
L 264.567708 -151.061325 
L 264.496491 -151.061325 
L 264.429173 -151.061325 
L 264.365609 -151.061325 
L 264.305653 -151.061325 
L 264.24916 -151.061325 
L 264.195986 -151.061325 
L 264.145989 -151.061325 
L 264.099027 -151.061325 
L 264.054964 -151.061325 
L 264.013662 -151.061325 
L 263.974989 -151.061325 
L 263.938815 -151.061325 
L 263.905013 -151.061325 
L 263.873461 -151.061325 
L 263.844038 -151.061325 
L 263.816629 -151.061325 
L 263.791123 -151.061325 
L 263.76741 -151.061325 
L 263.745388 -151.061325 
L 263.724957 -151.061325 
L 263.70602 -151.061325 
L 263.688486 -151.061325 
L 263.672268 -151.061325 
L 263.672268 -171.483143 
L 263.672268 -171.483143 
L 263.688486 -171.277899 
L 263.70602 -171.072654 
L 263.724957 -170.86741 
L 263.745388 -170.662166 
L 263.76741 -170.456921 
L 263.791123 -170.251677 
L 263.816629 -170.046432 
L 263.844038 -169.841188 
L 263.873461 -169.635944 
L 263.905013 -169.430699 
L 263.938815 -169.225455 
L 263.974989 -169.02021 
L 264.013662 -168.814966 
L 264.054964 -168.609722 
L 264.099027 -168.404477 
L 264.145989 -168.199233 
L 264.195986 -167.993988 
L 264.24916 -167.788744 
L 264.305653 -167.5835 
L 264.365609 -167.378255 
L 264.429173 -167.173011 
L 264.496491 -166.967766 
L 264.567708 -166.762522 
L 264.642969 -166.557277 
L 264.72242 -166.352033 
L 264.806201 -166.146789 
L 264.894454 -165.941544 
L 264.987316 -165.7363 
L 265.08492 -165.531055 
L 265.187396 -165.325811 
L 265.294869 -165.120567 
L 265.407456 -164.915322 
L 265.525268 -164.710078 
L 265.64841 -164.504833 
L 265.776977 -164.299589 
L 265.911054 -164.094345 
L 266.050719 -163.8891 
L 266.196034 -163.683856 
L 266.347054 -163.478611 
L 266.503817 -163.273367 
L 266.666351 -163.068123 
L 266.834666 -162.862878 
L 267.00876 -162.657634 
L 267.188611 -162.452389 
L 267.374183 -162.247145 
L 267.565421 -162.041901 
L 267.762253 -161.836656 
L 267.964586 -161.631412 
L 268.172308 -161.426167 
L 268.385288 -161.220923 
L 268.603373 -161.015679 
L 268.82639 -160.810434 
L 269.054145 -160.60519 
L 269.28642 -160.399945 
L 269.52298 -160.194701 
L 269.763563 -159.989457 
L 270.00789 -159.784212 
L 270.255659 -159.578968 
L 270.506545 -159.373723 
L 270.760205 -159.168479 
L 271.016275 -158.963235 
L 271.274371 -158.75799 
L 271.53409 -158.552746 
L 271.795011 -158.347501 
L 272.056696 -158.142257 
L 272.318691 -157.937013 
L 272.580528 -157.731768 
L 272.841722 -157.526524 
L 273.101779 -157.321279 
L 273.360192 -157.116035 
L 273.616448 -156.910791 
L 273.870021 -156.705546 
L 274.120384 -156.500302 
L 274.367003 -156.295057 
L 274.609341 -156.089813 
L 274.846864 -155.884568 
L 275.079035 -155.679324 
L 275.305324 -155.47408 
L 275.525204 -155.268835 
L 275.738156 -155.063591 
L 275.943672 -154.858346 
L 276.141254 -154.653102 
L 276.330418 -154.447858 
L 276.510694 -154.242613 
L 276.681632 -154.037369 
L 276.842799 -153.832124 
L 276.993783 -153.62688 
L 277.134197 -153.421636 
L 277.263676 -153.216391 
L 277.381883 -153.011147 
L 277.488508 -152.805902 
L 277.583268 -152.600658 
L 277.665912 -152.395414 
L 277.73622 -152.190169 
L 277.794005 -151.984925 
L 277.83911 -151.77968 
L 277.871416 -151.574436 
L 277.890834 -151.369192 
L 277.897312 -151.163947 
L 277.890834 -150.958703 
L 277.871416 -150.753458 
L 277.83911 -150.548214 
L 277.794005 -150.34297 
L 277.73622 -150.137725 
L 277.665912 -149.932481 
L 277.583268 -149.727236 
L 277.488508 -149.521992 
L 277.381883 -149.316748 
L 277.263676 -149.111503 
L 277.134197 -148.906259 
L 276.993783 -148.701014 
L 276.842799 -148.49577 
L 276.681632 -148.290526 
L 276.510694 -148.085281 
L 276.330418 -147.880037 
L 276.141254 -147.674792 
L 275.943672 -147.469548 
L 275.738156 -147.264304 
L 275.525204 -147.059059 
L 275.305324 -146.853815 
L 275.079035 -146.64857 
L 274.846864 -146.443326 
L 274.609341 -146.238082 
L 274.367003 -146.032837 
L 274.120384 -145.827593 
L 273.870021 -145.622348 
L 273.616448 -145.417104 
L 273.360192 -145.211859 
L 273.101779 -145.006615 
L 272.841722 -144.801371 
L 272.580528 -144.596126 
L 272.318691 -144.390882 
L 272.056696 -144.185637 
L 271.795011 -143.980393 
L 271.53409 -143.775149 
L 271.274371 -143.569904 
L 271.016275 -143.36466 
L 270.760205 -143.159415 
L 270.506545 -142.954171 
L 270.255659 -142.748927 
L 270.00789 -142.543682 
L 269.763563 -142.338438 
L 269.52298 -142.133193 
L 269.28642 -141.927949 
L 269.054145 -141.722705 
L 268.82639 -141.51746 
L 268.603373 -141.312216 
L 268.385288 -141.106971 
L 268.172308 -140.901727 
L 267.964586 -140.696483 
L 267.762253 -140.491238 
L 267.565421 -140.285994 
L 267.374183 -140.080749 
L 267.188611 -139.875505 
L 267.00876 -139.670261 
L 266.834666 -139.465016 
L 266.666351 -139.259772 
L 266.503817 -139.054527 
L 266.347054 -138.849283 
L 266.196034 -138.644039 
L 266.050719 -138.438794 
L 265.911054 -138.23355 
L 265.776977 -138.028305 
L 265.64841 -137.823061 
L 265.525268 -137.617817 
L 265.407456 -137.412572 
L 265.294869 -137.207328 
L 265.187396 -137.002083 
L 265.08492 -136.796839 
L 264.987316 -136.591595 
L 264.894454 -136.38635 
L 264.806201 -136.181106 
L 264.72242 -135.975861 
L 264.642969 -135.770617 
L 264.567708 -135.565373 
L 264.496491 -135.360128 
L 264.429173 -135.154884 
L 264.365609 -134.949639 
L 264.305653 -134.744395 
L 264.24916 -134.53915 
L 264.195986 -134.333906 
L 264.145989 -134.128662 
L 264.099027 -133.923417 
L 264.054964 -133.718173 
L 264.013662 -133.512928 
L 263.974989 -133.307684 
L 263.938815 -133.10244 
L 263.905013 -132.897195 
L 263.873461 -132.691951 
L 263.844038 -132.486706 
L 263.816629 -132.281462 
L 263.791123 -132.076218 
L 263.76741 -131.870973 
L 263.745388 -131.665729 
L 263.724957 -131.460484 
L 263.70602 -131.25524 
L 263.688486 -131.049996 
L 263.672268 -130.844751 
L 263.657282 -130.639507 
z
" style="stroke: #ff7f0e; stroke-opacity: 0.5"/>
    </defs>
    <g clip-path="url(#pe19453132e)">
     <use xlink:href="#me4c77e3218" x="0" y="188.87938" style="fill: #ff7f0e; fill-opacity: 0.5; stroke: #ff7f0e; stroke-opacity: 0.5"/>
    </g>
   </g>
   <g id="matplotlib.axis_3">
    <g id="xtick_7"/>
    <g id="xtick_8"/>
    <g id="xtick_9"/>
   </g>
   <g id="matplotlib.axis_4">
    <g id="ytick_7"/>
    <g id="ytick_8"/>
    <g id="ytick_9"/>
   </g>
   <g id="patch_8">
    <path d="M 240.457313 60.282055 
L 240.457313 15.354055 
" style="fill: none; stroke: #000000; stroke-width: 0.8; stroke-linejoin: miter; stroke-linecap: square"/>
   </g>
   <g id="patch_9">
    <path d="M 286.537312 60.282055 
L 286.537312 15.354055 
" style="fill: none; stroke: #000000; stroke-width: 0.8; stroke-linejoin: miter; stroke-linecap: square"/>
   </g>
   <g id="patch_10">
    <path d="M 240.457313 60.282055 
L 286.537312 60.282055 
" style="fill: none; stroke: #000000; stroke-width: 0.8; stroke-linejoin: miter; stroke-linecap: square"/>
   </g>
   <g id="patch_11">
    <path d="M 240.457313 15.354055 
L 286.537312 15.354055 
" style="fill: none; stroke: #000000; stroke-width: 0.8; stroke-linejoin: miter; stroke-linecap: square"/>
   </g>
   <g id="text_15">
    <!-- Sim -->
    <g style="fill: #1f77b4" transform="translate(242.185313 24.819242) scale(0.1 -0.1)">
     <use xlink:href="#DejaVuSans-53"/>
     <use xlink:href="#DejaVuSans-69" x="63.476562"/>
     <use xlink:href="#DejaVuSans-6d" x="91.259766"/>
    </g>
   </g>
   <g id="text_16">
    <!-- Th -->
    <g style="fill: #ff7f0e" transform="translate(267.529313 24.819242) scale(0.1 -0.1)">
     <defs>
      <path id="DejaVuSans-54" d="M -19 4666 
L 3928 4666 
L 3928 4134 
L 2272 4134 
L 2272 0 
L 1638 0 
L 1638 4134 
L -19 4134 
L -19 4666 
z
" transform="scale(0.015625)"/>
     </defs>
     <use xlink:href="#DejaVuSans-54"/>
     <use xlink:href="#DejaVuSans-68" x="61.083984"/>
    </g>
   </g>
  </g>
 </g>
 <defs>
  <clipPath id="p7cac2fd0b6">
   <rect x="60.745313" y="10.861255" width="230.4" height="138.24"/>
  </clipPath>
  <clipPath id="pe19453132e">
   <rect x="240.457313" y="15.354055" width="46.08" height="44.928"/>
  </clipPath>
 </defs>
</svg>
