<?xml version="1.0" encoding="utf-8" standalone="no"?>
<!DOCTYPE svg PUBLIC "-//W3C//DTD SVG 1.1//EN"
  "http://www.w3.org/Graphics/SVG/1.1/DTD/svg11.dtd">
<svg height="188.87938pt" version="1.1" viewBox="0 0 309.608594 188.87938" width="309.608594pt" xmlns="http://www.w3.org/2000/svg" xmlns:xlink="http://www.w3.org/1999/xlink">
 <metadata>
  <rdf:RDF xmlns:cc="http://creativecommons.org/ns#" xmlns:dc="http://purl.org/dc/elements/1.1/" xmlns:rdf="http://www.w3.org/1999/02/22-rdf-syntax-ns#">
   <cc:Work>
    <dc:type rdf:resource="http://purl.org/dc/dcmitype/StillImage"/>
    <dc:date>2023-11-18T22:53:52.012136</dc:date>
    <dc:format>image/svg+xml</dc:format>
    <dc:creator>
     <cc:Agent>
      <dc:title>Matplotlib v3.4.3, https://matplotlib.org/</dc:title>
     </cc:Agent>
    </dc:creator>
   </cc:Work>
  </rdf:RDF>
 </metadata>
 <defs>
  <style type="text/css">*{stroke-linecap:butt;stroke-linejoin:round;}</style>
 </defs>
 <g id="figure_1">
  <g id="patch_1">
   <path d="M 0 188.87938 
L 309.608594 188.87938 
L 309.608594 -0 
L 0 -0 
z
" style="fill:#ffffff;"/>
  </g>
  <g id="axes_1">
   <g id="patch_2">
    <path d="M 63.151562 149.101255 
L 293.551562 149.101255 
L 293.551562 10.861255 
L 63.151562 10.861255 
z
" style="fill:#ffffff;"/>
   </g>
   <g id="PolyCollection_1">
    <defs>
     <path d="M 86.191562 -28.498373 
L 86.191562 -95.101718 
L 86.191562 -95.101718 
L 86.191562 -95.101718 
L 86.191562 -95.101718 
L 86.191562 -95.101718 
L 85.711562 -95.101718 
L 85.231562 -95.101718 
L 84.511562 -95.101718 
L 82.591562 -95.101718 
L 79.471562 -95.101718 
L 78.991563 -95.101718 
L 74.911563 -95.101718 
L 75.391563 -95.101718 
L 74.671562 -95.101718 
L 77.071562 -95.101718 
L 80.191563 -95.101718 
L 84.751562 -95.101718 
L 85.471562 -95.101718 
L 85.711562 -95.101718 
L 86.191562 -95.101718 
L 86.191562 -95.101718 
L 86.191562 -95.101718 
L 86.191562 -95.101718 
L 86.191562 -95.101718 
L 86.191562 -95.101718 
L 86.191562 -95.101718 
L 86.191562 -95.101718 
L 86.191562 -95.101718 
L 86.191562 -95.101718 
L 86.191562 -161.705063 
L 86.191562 -161.705063 
L 86.191562 -156.947681 
L 86.191562 -152.190299 
L 86.191562 -147.432917 
L 86.191562 -142.675536 
L 86.191562 -137.918154 
L 86.191562 -133.160772 
L 86.191562 -128.40339 
L 86.191562 -123.646009 
L 86.191562 -118.888627 
L 85.711562 -114.131245 
L 85.471562 -109.373863 
L 84.751562 -104.616481 
L 80.191563 -99.8591 
L 77.071562 -95.101718 
L 74.671562 -90.344336 
L 75.391563 -85.586954 
L 74.911563 -80.829572 
L 78.991563 -76.072191 
L 79.471562 -71.314809 
L 82.591562 -66.557427 
L 84.511562 -61.800045 
L 85.231562 -57.042664 
L 85.711562 -52.285282 
L 86.191562 -47.5279 
L 86.191562 -42.770518 
L 86.191562 -38.013136 
L 86.191562 -33.255755 
L 86.191562 -28.498373 
z
" id="m7ade0421e3" style="stroke:#1f77b4;stroke-opacity:0.5;"/>
    </defs>
    <g clip-path="url(#p299225d9e8)">
     <use style="fill:#1f77b4;fill-opacity:0.5;stroke:#1f77b4;stroke-opacity:0.5;" x="0" xlink:href="#m7ade0421e3" y="188.87938"/>
    </g>
   </g>
   <g id="PolyCollection_2">
    <defs>
     <path d="M 109.231562 -28.498373 
L 109.231562 -95.101718 
L 108.950587 -95.101718 
L 109.231562 -95.101718 
L 108.669611 -95.101718 
L 108.669611 -95.101718 
L 107.826684 -95.101718 
L 108.388636 -95.101718 
L 107.826684 -95.101718 
L 105.297904 -95.101718 
L 104.735953 -95.101718 
L 101.926197 -95.101718 
L 100.802294 -95.101718 
L 101.645221 -95.101718 
L 97.711562 -95.101718 
L 98.273514 -95.101718 
L 98.554489 -95.101718 
L 102.207172 -95.101718 
L 105.57888 -95.101718 
L 106.702782 -95.101718 
L 108.669611 -95.101718 
L 108.669611 -95.101718 
L 109.231562 -95.101718 
L 109.231562 -95.101718 
L 109.231562 -95.101718 
L 109.231562 -95.101718 
L 109.231562 -95.101718 
L 109.231562 -95.101718 
L 109.231562 -95.101718 
L 109.231562 -95.101718 
L 109.231562 -161.705063 
L 109.231562 -161.705063 
L 109.231562 -156.947681 
L 109.231562 -152.190299 
L 109.231562 -147.432917 
L 109.231562 -142.675536 
L 109.231562 -137.918154 
L 109.231562 -133.160772 
L 109.231562 -128.40339 
L 108.669611 -123.646009 
L 108.669611 -118.888627 
L 106.702782 -114.131245 
L 105.57888 -109.373863 
L 102.207172 -104.616481 
L 98.554489 -99.8591 
L 98.273514 -95.101718 
L 97.711562 -90.344336 
L 101.645221 -85.586954 
L 100.802294 -80.829572 
L 101.926197 -76.072191 
L 104.735953 -71.314809 
L 105.297904 -66.557427 
L 107.826684 -61.800045 
L 108.388636 -57.042664 
L 107.826684 -52.285282 
L 108.669611 -47.5279 
L 108.669611 -42.770518 
L 109.231562 -38.013136 
L 108.950587 -33.255755 
L 109.231562 -28.498373 
z
" id="mf473fedcee" style="stroke:#1f77b4;stroke-opacity:0.5;"/>
    </defs>
    <g clip-path="url(#p299225d9e8)">
     <use style="fill:#1f77b4;fill-opacity:0.5;stroke:#1f77b4;stroke-opacity:0.5;" x="0" xlink:href="#mf473fedcee" y="188.87938"/>
    </g>
   </g>
   <g id="PolyCollection_3">
    <defs>
     <path d="M 132.271562 -28.498373 
L 132.271562 -95.101718 
L 132.271562 -95.101718 
L 131.613277 -95.101718 
L 132.271562 -95.101718 
L 130.954991 -95.101718 
L 131.613277 -95.101718 
L 131.613277 -95.101718 
L 130.954991 -95.101718 
L 130.296705 -95.101718 
L 125.688705 -95.101718 
L 124.372134 -95.101718 
L 128.650991 -95.101718 
L 121.738991 -95.101718 
L 120.751562 -95.101718 
L 123.713848 -95.101718 
L 121.409848 -95.101718 
L 122.397277 -95.101718 
L 126.676134 -95.101718 
L 123.384705 -95.101718 
L 127.33442 -95.101718 
L 130.625848 -95.101718 
L 131.613277 -95.101718 
L 131.284134 -95.101718 
L 132.271562 -95.101718 
L 132.271562 -95.101718 
L 132.271562 -95.101718 
L 132.271562 -95.101718 
L 132.271562 -95.101718 
L 132.271562 -95.101718 
L 132.271562 -161.705063 
L 132.271562 -161.705063 
L 132.271562 -156.947681 
L 132.271562 -152.190299 
L 132.271562 -147.432917 
L 132.271562 -142.675536 
L 132.271562 -137.918154 
L 131.284134 -133.160772 
L 131.613277 -128.40339 
L 130.625848 -123.646009 
L 127.33442 -118.888627 
L 123.384705 -114.131245 
L 126.676134 -109.373863 
L 122.397277 -104.616481 
L 121.409848 -99.8591 
L 123.713848 -95.101718 
L 120.751562 -90.344336 
L 121.738991 -85.586954 
L 128.650991 -80.829572 
L 124.372134 -76.072191 
L 125.688705 -71.314809 
L 130.296705 -66.557427 
L 130.954991 -61.800045 
L 131.613277 -57.042664 
L 131.613277 -52.285282 
L 130.954991 -47.5279 
L 132.271562 -42.770518 
L 131.613277 -38.013136 
L 132.271562 -33.255755 
L 132.271562 -28.498373 
z
" id="mbafe9b3e63" style="stroke:#1f77b4;stroke-opacity:0.5;"/>
    </defs>
    <g clip-path="url(#p299225d9e8)">
     <use style="fill:#1f77b4;fill-opacity:0.5;stroke:#1f77b4;stroke-opacity:0.5;" x="0" xlink:href="#mbafe9b3e63" y="188.87938"/>
    </g>
   </g>
   <g id="PolyCollection_4">
    <defs>
     <path d="M 155.311562 -28.498373 
L 155.311562 -95.101718 
L 155.311562 -95.101718 
L 155.311562 -95.101718 
L 155.311562 -95.101718 
L 155.049744 -95.101718 
L 154.526108 -95.101718 
L 154.787926 -95.101718 
L 154.787926 -95.101718 
L 154.26429 -95.101718 
L 152.955199 -95.101718 
L 152.169744 -95.101718 
L 147.718835 -95.101718 
L 147.457017 -95.101718 
L 148.50429 -95.101718 
L 149.027926 -95.101718 
L 143.791562 -95.101718 
L 145.362472 -95.101718 
L 147.980653 -95.101718 
L 149.289744 -95.101718 
L 152.955199 -95.101718 
L 153.478835 -95.101718 
L 154.002472 -95.101718 
L 155.049744 -95.101718 
L 155.049744 -95.101718 
L 155.311562 -95.101718 
L 155.311562 -95.101718 
L 155.049744 -95.101718 
L 155.049744 -95.101718 
L 155.311562 -95.101718 
L 155.311562 -161.705063 
L 155.311562 -161.705063 
L 155.049744 -156.947681 
L 155.049744 -152.190299 
L 155.311562 -147.432917 
L 155.311562 -142.675536 
L 155.049744 -137.918154 
L 155.049744 -133.160772 
L 154.002472 -128.40339 
L 153.478835 -123.646009 
L 152.955199 -118.888627 
L 149.289744 -114.131245 
L 147.980653 -109.373863 
L 145.362472 -104.616481 
L 143.791562 -99.8591 
L 149.027926 -95.101718 
L 148.50429 -90.344336 
L 147.457017 -85.586954 
L 147.718835 -80.829572 
L 152.169744 -76.072191 
L 152.955199 -71.314809 
L 154.26429 -66.557427 
L 154.787926 -61.800045 
L 154.787926 -57.042664 
L 154.526108 -52.285282 
L 155.049744 -47.5279 
L 155.311562 -42.770518 
L 155.311562 -38.013136 
L 155.311562 -33.255755 
L 155.311562 -28.498373 
z
" id="mf945134780" style="stroke:#1f77b4;stroke-opacity:0.5;"/>
    </defs>
    <g clip-path="url(#p299225d9e8)">
     <use style="fill:#1f77b4;fill-opacity:0.5;stroke:#1f77b4;stroke-opacity:0.5;" x="0" xlink:href="#mf945134780" y="188.87938"/>
    </g>
   </g>
   <g id="PolyCollection_5">
    <defs>
     <path d="M 178.351562 -28.498373 
L 178.351562 -95.101718 
L 178.351562 -95.101718 
L 178.351562 -95.101718 
L 178.048405 -95.101718 
L 178.048405 -95.101718 
L 177.745247 -95.101718 
L 178.048405 -95.101718 
L 178.048405 -95.101718 
L 175.623141 -95.101718 
L 174.41051 -95.101718 
L 175.319984 -95.101718 
L 174.41051 -95.101718 
L 168.044194 -95.101718 
L 168.953668 -95.101718 
L 166.831562 -95.101718 
L 170.166299 -95.101718 
L 167.741036 -95.101718 
L 168.953668 -95.101718 
L 173.197878 -95.101718 
L 174.41051 -95.101718 
L 175.623141 -95.101718 
L 175.623141 -95.101718 
L 178.048405 -95.101718 
L 177.745247 -95.101718 
L 178.351562 -95.101718 
L 178.048405 -95.101718 
L 178.351562 -95.101718 
L 178.351562 -95.101718 
L 178.351562 -95.101718 
L 178.351562 -161.705063 
L 178.351562 -161.705063 
L 178.351562 -156.947681 
L 178.351562 -152.190299 
L 178.048405 -147.432917 
L 178.351562 -142.675536 
L 177.745247 -137.918154 
L 178.048405 -133.160772 
L 175.623141 -128.40339 
L 175.623141 -123.646009 
L 174.41051 -118.888627 
L 173.197878 -114.131245 
L 168.953668 -109.373863 
L 167.741036 -104.616481 
L 170.166299 -99.8591 
L 166.831562 -95.101718 
L 168.953668 -90.344336 
L 168.044194 -85.586954 
L 174.41051 -80.829572 
L 175.319984 -76.072191 
L 174.41051 -71.314809 
L 175.623141 -66.557427 
L 178.048405 -61.800045 
L 178.048405 -57.042664 
L 177.745247 -52.285282 
L 178.048405 -47.5279 
L 178.048405 -42.770518 
L 178.351562 -38.013136 
L 178.351562 -33.255755 
L 178.351562 -28.498373 
z
" id="mc526f939c5" style="stroke:#1f77b4;stroke-opacity:0.5;"/>
    </defs>
    <g clip-path="url(#p299225d9e8)">
     <use style="fill:#1f77b4;fill-opacity:0.5;stroke:#1f77b4;stroke-opacity:0.5;" x="0" xlink:href="#mc526f939c5" y="188.87938"/>
    </g>
   </g>
   <g id="PolyCollection_6">
    <defs>
     <path d="M 201.391562 -28.498373 
L 201.391562 -95.101718 
L 201.096178 -95.101718 
L 201.391562 -95.101718 
L 201.391562 -95.101718 
L 201.096178 -95.101718 
L 201.391562 -95.101718 
L 201.391562 -95.101718 
L 200.505409 -95.101718 
L 199.619255 -95.101718 
L 198.733101 -95.101718 
L 198.437716 -95.101718 
L 194.302332 -95.101718 
L 195.48387 -95.101718 
L 194.597716 -95.101718 
L 191.053101 -95.101718 
L 190.462332 -95.101718 
L 193.711562 -95.101718 
L 189.871562 -95.101718 
L 191.939255 -95.101718 
L 195.188486 -95.101718 
L 199.32387 -95.101718 
L 200.505409 -95.101718 
L 200.800793 -95.101718 
L 201.096178 -95.101718 
L 201.391562 -95.101718 
L 201.391562 -95.101718 
L 201.391562 -95.101718 
L 201.391562 -95.101718 
L 201.391562 -95.101718 
L 201.391562 -161.705063 
L 201.391562 -161.705063 
L 201.391562 -156.947681 
L 201.391562 -152.190299 
L 201.391562 -147.432917 
L 201.391562 -142.675536 
L 201.096178 -137.918154 
L 200.800793 -133.160772 
L 200.505409 -128.40339 
L 199.32387 -123.646009 
L 195.188486 -118.888627 
L 191.939255 -114.131245 
L 189.871562 -109.373863 
L 193.711562 -104.616481 
L 190.462332 -99.8591 
L 191.053101 -95.101718 
L 194.597716 -90.344336 
L 195.48387 -85.586954 
L 194.302332 -80.829572 
L 198.437716 -76.072191 
L 198.733101 -71.314809 
L 199.619255 -66.557427 
L 200.505409 -61.800045 
L 201.391562 -57.042664 
L 201.391562 -52.285282 
L 201.096178 -47.5279 
L 201.391562 -42.770518 
L 201.391562 -38.013136 
L 201.096178 -33.255755 
L 201.391562 -28.498373 
z
" id="mccfcd6e158" style="stroke:#1f77b4;stroke-opacity:0.5;"/>
    </defs>
    <g clip-path="url(#p299225d9e8)">
     <use style="fill:#1f77b4;fill-opacity:0.5;stroke:#1f77b4;stroke-opacity:0.5;" x="0" xlink:href="#mccfcd6e158" y="188.87938"/>
    </g>
   </g>
   <g id="PolyCollection_7">
    <defs>
     <path d="M 223.840793 -28.498373 
L 223.840793 -95.101718 
L 224.136178 -95.101718 
L 224.431562 -95.101718 
L 224.431562 -95.101718 
L 224.136178 -95.101718 
L 224.136178 -95.101718 
L 224.136178 -95.101718 
L 222.36387 -95.101718 
L 222.36387 -95.101718 
L 221.773101 -95.101718 
L 217.637716 -95.101718 
L 220.591563 -95.101718 
L 216.456178 -95.101718 
L 212.911562 -95.101718 
L 213.502332 -95.101718 
L 213.502332 -95.101718 
L 215.274639 -95.101718 
L 215.865409 -95.101718 
L 220.296178 -95.101718 
L 223.250024 -95.101718 
L 221.477716 -95.101718 
L 223.545409 -95.101718 
L 223.250024 -95.101718 
L 224.431562 -95.101718 
L 224.431562 -95.101718 
L 224.431562 -95.101718 
L 224.431562 -95.101718 
L 224.431562 -95.101718 
L 224.431562 -95.101718 
L 224.431562 -161.705063 
L 224.431562 -161.705063 
L 224.431562 -156.947681 
L 224.431562 -152.190299 
L 224.431562 -147.432917 
L 224.431562 -142.675536 
L 224.431562 -137.918154 
L 223.250024 -133.160772 
L 223.545409 -128.40339 
L 221.477716 -123.646009 
L 223.250024 -118.888627 
L 220.296178 -114.131245 
L 215.865409 -109.373863 
L 215.274639 -104.616481 
L 213.502332 -99.8591 
L 213.502332 -95.101718 
L 212.911562 -90.344336 
L 216.456178 -85.586954 
L 220.591563 -80.829572 
L 217.637716 -76.072191 
L 221.773101 -71.314809 
L 222.36387 -66.557427 
L 222.36387 -61.800045 
L 224.136178 -57.042664 
L 224.136178 -52.285282 
L 224.136178 -47.5279 
L 224.431562 -42.770518 
L 224.431562 -38.013136 
L 224.136178 -33.255755 
L 223.840793 -28.498373 
z
" id="ma2402e19fb" style="stroke:#1f77b4;stroke-opacity:0.5;"/>
    </defs>
    <g clip-path="url(#p299225d9e8)">
     <use style="fill:#1f77b4;fill-opacity:0.5;stroke:#1f77b4;stroke-opacity:0.5;" x="0" xlink:href="#ma2402e19fb" y="188.87938"/>
    </g>
   </g>
   <g id="PolyCollection_8">
    <defs>
     <path d="M 247.471562 -28.498373 
L 247.471562 -95.101718 
L 247.471562 -95.101718 
L 247.471562 -95.101718 
L 247.471562 -95.101718 
L 247.471562 -95.101718 
L 246.296052 -95.101718 
L 246.296052 -95.101718 
L 247.001358 -95.101718 
L 245.825848 -95.101718 
L 245.355644 -95.101718 
L 244.180134 -95.101718 
L 241.358909 -95.101718 
L 241.123807 -95.101718 
L 236.891971 -95.101718 
L 235.951562 -95.101718 
L 239.242991 -95.101718 
L 239.713195 -95.101718 
L 241.594011 -95.101718 
L 244.88544 -95.101718 
L 246.296052 -95.101718 
L 247.001358 -95.101718 
L 247.471562 -95.101718 
L 247.471562 -95.101718 
L 247.471562 -95.101718 
L 247.471562 -95.101718 
L 247.471562 -95.101718 
L 247.471562 -95.101718 
L 247.471562 -95.101718 
L 247.471562 -95.101718 
L 247.471562 -161.705063 
L 247.471562 -161.705063 
L 247.471562 -156.947681 
L 247.471562 -152.190299 
L 247.471562 -147.432917 
L 247.471562 -142.675536 
L 247.471562 -137.918154 
L 247.471562 -133.160772 
L 247.471562 -128.40339 
L 247.001358 -123.646009 
L 246.296052 -118.888627 
L 244.88544 -114.131245 
L 241.594011 -109.373863 
L 239.713195 -104.616481 
L 239.242991 -99.8591 
L 235.951562 -95.101718 
L 236.891971 -90.344336 
L 241.123807 -85.586954 
L 241.358909 -80.829572 
L 244.180134 -76.072191 
L 245.355644 -71.314809 
L 245.825848 -66.557427 
L 247.001358 -61.800045 
L 246.296052 -57.042664 
L 246.296052 -52.285282 
L 247.471562 -47.5279 
L 247.471562 -42.770518 
L 247.471562 -38.013136 
L 247.471562 -33.255755 
L 247.471562 -28.498373 
z
" id="m9d185e6184" style="stroke:#1f77b4;stroke-opacity:0.5;"/>
    </defs>
    <g clip-path="url(#p299225d9e8)">
     <use style="fill:#1f77b4;fill-opacity:0.5;stroke:#1f77b4;stroke-opacity:0.5;" x="0" xlink:href="#m9d185e6184" y="188.87938"/>
    </g>
   </g>
   <g id="PolyCollection_9">
    <defs>
     <path d="M 270.511562 -28.498373 
L 270.511562 -95.101718 
L 270.511562 -95.101718 
L 270.331562 -95.101718 
L 270.511562 -95.101718 
L 270.511562 -95.101718 
L 270.511562 -95.101718 
L 270.331562 -95.101718 
L 269.971562 -95.101718 
L 269.431562 -95.101718 
L 267.451563 -95.101718 
L 266.911563 -95.101718 
L 262.051563 -95.101718 
L 260.251563 -95.101718 
L 258.991562 -95.101718 
L 262.231563 -95.101718 
L 266.371562 -95.101718 
L 268.351562 -95.101718 
L 270.151562 -95.101718 
L 270.331562 -95.101718 
L 270.511562 -95.101718 
L 270.511562 -95.101718 
L 270.511562 -95.101718 
L 270.511562 -95.101718 
L 270.511562 -95.101718 
L 270.511562 -95.101718 
L 270.511562 -95.101718 
L 270.511562 -95.101718 
L 270.511562 -95.101718 
L 270.511562 -95.101718 
L 270.511562 -161.705063 
L 270.511562 -161.705063 
L 270.511562 -156.947681 
L 270.511562 -152.190299 
L 270.511562 -147.432917 
L 270.511562 -142.675536 
L 270.511562 -137.918154 
L 270.511562 -133.160772 
L 270.511562 -128.40339 
L 270.511562 -123.646009 
L 270.511562 -118.888627 
L 270.331562 -114.131245 
L 270.151562 -109.373863 
L 268.351562 -104.616481 
L 266.371562 -99.8591 
L 262.231563 -95.101718 
L 258.991562 -90.344336 
L 260.251563 -85.586954 
L 262.051563 -80.829572 
L 266.911563 -76.072191 
L 267.451563 -71.314809 
L 269.431562 -66.557427 
L 269.971562 -61.800045 
L 270.331562 -57.042664 
L 270.511562 -52.285282 
L 270.511562 -47.5279 
L 270.511562 -42.770518 
L 270.331562 -38.013136 
L 270.511562 -33.255755 
L 270.511562 -28.498373 
z
" id="m8771433d2b" style="stroke:#1f77b4;stroke-opacity:0.5;"/>
    </defs>
    <g clip-path="url(#p299225d9e8)">
     <use style="fill:#1f77b4;fill-opacity:0.5;stroke:#1f77b4;stroke-opacity:0.5;" x="0" xlink:href="#m8771433d2b" y="188.87938"/>
    </g>
   </g>
   <g id="PolyCollection_10">
    <defs>
     <path d="M 86.201995 -28.498373 
L 86.201995 -95.101718 
L 86.218997 -95.101718 
L 86.259498 -95.101718 
L 86.350028 -95.101718 
L 86.539647 -95.101718 
L 86.91072 -95.101718 
L 87.585274 -95.101718 
L 88.712693 -95.101718 
L 90.41496 -95.101718 
L 92.66819 -95.101718 
L 95.142201 -95.101718 
L 97.121041 -95.101718 
L 97.711562 -95.101718 
L 96.404235 -95.101718 
L 93.600884 -95.101718 
L 90.47149 -95.101718 
L 88.108572 -95.101718 
L 86.841207 -95.101718 
L 86.354488 -95.101718 
L 86.221221 -95.101718 
L 86.195417 -95.101718 
L 86.191915 -95.101718 
L 86.191585 -95.101718 
L 86.191563 -95.101718 
L 86.191563 -95.101718 
L 86.191563 -95.101718 
L 86.191563 -95.101718 
L 86.191563 -95.101718 
L 86.191562 -95.101718 
L 86.191562 -161.705063 
L 86.191562 -161.705063 
L 86.191563 -156.947681 
L 86.191563 -152.190299 
L 86.191563 -147.432917 
L 86.191563 -142.675536 
L 86.191563 -137.918154 
L 86.191585 -133.160772 
L 86.191915 -128.40339 
L 86.195417 -123.646009 
L 86.221221 -118.888627 
L 86.354488 -114.131245 
L 86.841207 -109.373863 
L 88.108572 -104.616481 
L 90.47149 -99.8591 
L 93.600884 -95.101718 
L 96.404235 -90.344336 
L 97.711562 -85.586954 
L 97.121041 -80.829572 
L 95.142201 -76.072191 
L 92.66819 -71.314809 
L 90.41496 -66.557427 
L 88.712693 -61.800045 
L 87.585274 -57.042664 
L 86.91072 -52.285282 
L 86.539647 -47.5279 
L 86.350028 -42.770518 
L 86.259498 -38.013136 
L 86.218997 -33.255755 
L 86.201995 -28.498373 
z
" id="m74b51a9aa7" style="stroke:#ff7f0e;stroke-opacity:0.5;"/>
    </defs>
    <g clip-path="url(#p299225d9e8)">
     <use style="fill:#ff7f0e;fill-opacity:0.5;stroke:#ff7f0e;stroke-opacity:0.5;" x="0" xlink:href="#m74b51a9aa7" y="188.87938"/>
    </g>
   </g>
   <g id="PolyCollection_11">
    <defs>
     <path d="M 109.272063 -28.498373 
L 109.272063 -95.101718 
L 109.312587 -95.101718 
L 109.387992 -95.101718 
L 109.522928 -95.101718 
L 109.754787 -95.101718 
L 110.136379 -95.101718 
L 110.735542 -95.101718 
L 111.627658 -95.101718 
L 112.875718 -95.101718 
L 114.493497 -95.101718 
L 116.394216 -95.101718 
L 118.342603 -95.101718 
L 119.948982 -95.101718 
L 120.751562 -95.101718 
L 120.398608 -95.101718 
L 118.857944 -95.101718 
L 116.50521 -95.101718 
L 113.979649 -95.101718 
L 111.871672 -95.101718 
L 110.465234 -95.101718 
L 109.709932 -95.101718 
L 109.383709 -95.101718 
L 109.270838 -95.101718 
L 109.239714 -95.101718 
L 109.232911 -95.101718 
L 109.231739 -95.101718 
L 109.231581 -95.101718 
L 109.231564 -95.101718 
L 109.231563 -95.101718 
L 109.231563 -161.705063 
L 109.231563 -161.705063 
L 109.231564 -156.947681 
L 109.231581 -152.190299 
L 109.231739 -147.432917 
L 109.232911 -142.675536 
L 109.239714 -137.918154 
L 109.270838 -133.160772 
L 109.383709 -128.40339 
L 109.709932 -123.646009 
L 110.465234 -118.888627 
L 111.871672 -114.131245 
L 113.979649 -109.373863 
L 116.50521 -104.616481 
L 118.857944 -99.8591 
L 120.398608 -95.101718 
L 120.751562 -90.344336 
L 119.948982 -85.586954 
L 118.342603 -80.829572 
L 116.394216 -76.072191 
L 114.493497 -71.314809 
L 112.875718 -66.557427 
L 111.627658 -61.800045 
L 110.735542 -57.042664 
L 110.136379 -52.285282 
L 109.754787 -47.5279 
L 109.522928 -42.770518 
L 109.387992 -38.013136 
L 109.312587 -33.255755 
L 109.272063 -28.498373 
z
" id="mdd0ab47c1a" style="stroke:#ff7f0e;stroke-opacity:0.5;"/>
    </defs>
    <g clip-path="url(#p299225d9e8)">
     <use style="fill:#ff7f0e;fill-opacity:0.5;stroke:#ff7f0e;stroke-opacity:0.5;" x="0" xlink:href="#mdd0ab47c1a" y="188.87938"/>
    </g>
   </g>
   <g id="PolyCollection_12">
    <defs>
     <path d="M 132.312464 -28.498373 
L 132.312464 -95.101718 
L 132.348275 -95.101718 
L 132.41137 -95.101718 
L 132.519082 -95.101718 
L 132.697064 -95.101718 
L 132.981236 -95.101718 
L 133.418534 -95.101718 
L 134.064666 -95.101718 
L 134.976269 -95.101718 
L 136.19452 -95.101718 
L 137.718477 -95.101718 
L 139.47099 -95.101718 
L 141.268626 -95.101718 
L 142.817617 -95.101718 
L 143.761628 -95.101718 
L 143.791562 -95.101718 
L 142.786987 -95.101718 
L 140.913194 -95.101718 
L 138.593174 -95.101718 
L 136.341797 -95.101718 
L 134.552911 -95.101718 
L 133.373022 -95.101718 
L 132.725124 -95.101718 
L 132.42939 -95.101718 
L 132.317579 -95.101718 
L 132.282718 -95.101718 
L 132.273795 -95.101718 
L 132.271929 -95.101718 
L 132.271612 -95.101718 
L 132.271612 -161.705063 
L 132.271612 -161.705063 
L 132.271929 -156.947681 
L 132.273795 -152.190299 
L 132.282718 -147.432917 
L 132.317579 -142.675536 
L 132.42939 -137.918154 
L 132.725124 -133.160772 
L 133.373022 -128.40339 
L 134.552911 -123.646009 
L 136.341797 -118.888627 
L 138.593174 -114.131245 
L 140.913194 -109.373863 
L 142.786987 -104.616481 
L 143.791562 -99.8591 
L 143.761628 -95.101718 
L 142.817617 -90.344336 
L 141.268626 -85.586954 
L 139.47099 -80.829572 
L 137.718477 -76.072191 
L 136.19452 -71.314809 
L 134.976269 -66.557427 
L 134.064666 -61.800045 
L 133.418534 -57.042664 
L 132.981236 -52.285282 
L 132.697064 -47.5279 
L 132.519082 -42.770518 
L 132.41137 -38.013136 
L 132.348275 -33.255755 
L 132.312464 -28.498373 
z
" id="m7a53bd88f5" style="stroke:#ff7f0e;stroke-opacity:0.5;"/>
    </defs>
    <g clip-path="url(#p299225d9e8)">
     <use style="fill:#ff7f0e;fill-opacity:0.5;stroke:#ff7f0e;stroke-opacity:0.5;" x="0" xlink:href="#m7a53bd88f5" y="188.87938"/>
    </g>
   </g>
   <g id="PolyCollection_13">
    <defs>
     <path d="M 155.346326 -28.498373 
L 155.346326 -95.101718 
L 155.375525 -95.101718 
L 155.426227 -95.101718 
L 155.5118 -95.101718 
L 155.652047 -95.101718 
L 155.874961 -95.101718 
L 156.217905 -95.101718 
L 156.727128 -95.101718 
L 157.453901 -95.101718 
L 158.445021 -95.101718 
L 159.725589 -95.101718 
L 161.273797 -95.101718 
L 162.992073 -95.101718 
L 164.686418 -95.101718 
L 166.073087 -95.101718 
L 166.831562 -95.101718 
L 166.70597 -95.101718 
L 165.623035 -95.101718 
L 163.762392 -95.101718 
L 161.519033 -95.101718 
L 159.356131 -95.101718 
L 157.625635 -95.101718 
L 156.462895 -95.101718 
L 155.805114 -95.101718 
L 155.492286 -95.101718 
L 155.367637 -95.101718 
L 155.326197 -95.101718 
L 155.314754 -95.101718 
L 155.31214 -95.101718 
L 155.31214 -161.705063 
L 155.31214 -161.705063 
L 155.314754 -156.947681 
L 155.326197 -152.190299 
L 155.367637 -147.432917 
L 155.492286 -142.675536 
L 155.805114 -137.918154 
L 156.462895 -133.160772 
L 157.625635 -128.40339 
L 159.356131 -123.646009 
L 161.519033 -118.888627 
L 163.762392 -114.131245 
L 165.623035 -109.373863 
L 166.70597 -104.616481 
L 166.831562 -99.8591 
L 166.073087 -95.101718 
L 164.686418 -90.344336 
L 162.992073 -85.586954 
L 161.273797 -80.829572 
L 159.725589 -76.072191 
L 158.445021 -71.314809 
L 157.453901 -66.557427 
L 156.727128 -61.800045 
L 156.217905 -57.042664 
L 155.874961 -52.285282 
L 155.652047 -47.5279 
L 155.5118 -42.770518 
L 155.426227 -38.013136 
L 155.375525 -33.255755 
L 155.346326 -28.498373 
z
" id="m70c3637c5f" style="stroke:#ff7f0e;stroke-opacity:0.5;"/>
    </defs>
    <g clip-path="url(#p299225d9e8)">
     <use style="fill:#ff7f0e;fill-opacity:0.5;stroke:#ff7f0e;stroke-opacity:0.5;" x="0" xlink:href="#m70c3637c5f" y="188.87938"/>
    </g>
   </g>
   <g id="PolyCollection_14">
    <defs>
     <path d="M 178.384732 -28.498373 
L 178.384732 -95.101718 
L 178.412254 -95.101718 
L 178.459862 -95.101718 
L 178.539979 -95.101718 
L 178.671038 -95.101718 
L 178.879179 -95.101718 
L 179.199517 -95.101718 
L 179.676005 -95.101718 
L 180.35838 -95.101718 
L 181.294086 -95.101718 
L 182.51308 -95.101718 
L 184.004759 -95.101718 
L 185.690095 -95.101718 
L 187.398704 -95.101718 
L 188.868092 -95.101718 
L 189.784349 -95.101718 
L 189.871562 -95.101718 
L 189.007524 -95.101718 
L 187.309245 -95.101718 
L 185.124568 -95.101718 
L 182.910428 -95.101718 
L 181.055507 -95.101718 
L 179.750888 -95.101718 
L 178.977494 -95.101718 
L 178.591425 -95.101718 
L 178.429657 -95.101718 
L 178.373 -95.101718 
L 178.356489 -95.101718 
L 178.352504 -95.101718 
L 178.352504 -161.705063 
L 178.352504 -161.705063 
L 178.356489 -156.947681 
L 178.373 -152.190299 
L 178.429657 -147.432917 
L 178.591425 -142.675536 
L 178.977494 -137.918154 
L 179.750888 -133.160772 
L 181.055507 -128.40339 
L 182.910428 -123.646009 
L 185.124568 -118.888627 
L 187.309245 -114.131245 
L 189.007524 -109.373863 
L 189.871562 -104.616481 
L 189.784349 -99.8591 
L 188.868092 -95.101718 
L 187.398704 -90.344336 
L 185.690095 -85.586954 
L 184.004759 -80.829572 
L 182.51308 -76.072191 
L 181.294086 -71.314809 
L 180.35838 -66.557427 
L 179.676005 -61.800045 
L 179.199517 -57.042664 
L 178.879179 -52.285282 
L 178.671038 -47.5279 
L 178.539979 -42.770518 
L 178.459862 -38.013136 
L 178.412254 -33.255755 
L 178.384732 -28.498373 
z
" id="m8eb4a96674" style="stroke:#ff7f0e;stroke-opacity:0.5;"/>
    </defs>
    <g clip-path="url(#p299225d9e8)">
     <use style="fill:#ff7f0e;fill-opacity:0.5;stroke:#ff7f0e;stroke-opacity:0.5;" x="0" xlink:href="#m8eb4a96674" y="188.87938"/>
    </g>
   </g>
   <g id="PolyCollection_15">
    <defs>
     <path d="M 201.428932 -28.498373 
L 201.428932 -95.101718 
L 201.460008 -95.101718 
L 201.51378 -95.101718 
L 201.60425 -95.101718 
L 201.752113 -95.101718 
L 201.986525 -95.101718 
L 202.346231 -95.101718 
L 202.878845 -95.101718 
L 203.636456 -95.101718 
L 204.665144 -95.101718 
L 205.986288 -95.101718 
L 207.569701 -95.101718 
L 209.303854 -95.101718 
L 210.97667 -95.101718 
L 212.287824 -95.101718 
L 212.911562 -95.101718 
L 212.608388 -95.101718 
L 211.345684 -95.101718 
L 209.355842 -95.101718 
L 207.073774 -95.101718 
L 204.967165 -95.101718 
L 203.354813 -95.101718 
L 202.322455 -95.101718 
L 201.768999 -95.101718 
L 201.521217 -95.101718 
L 201.428973 -95.101718 
L 201.400557 -95.101718 
L 201.393352 -95.101718 
L 201.391855 -95.101718 
L 201.391855 -161.705063 
L 201.391855 -161.705063 
L 201.393352 -156.947681 
L 201.400557 -152.190299 
L 201.428973 -147.432917 
L 201.521217 -142.675536 
L 201.768999 -137.918154 
L 202.322455 -133.160772 
L 203.354813 -128.40339 
L 204.967165 -123.646009 
L 207.073774 -118.888627 
L 209.355842 -114.131245 
L 211.345684 -109.373863 
L 212.608388 -104.616481 
L 212.911562 -99.8591 
L 212.287824 -95.101718 
L 210.97667 -90.344336 
L 209.303854 -85.586954 
L 207.569701 -80.829572 
L 205.986288 -76.072191 
L 204.665144 -71.314809 
L 203.636456 -66.557427 
L 202.878845 -61.800045 
L 202.346231 -57.042664 
L 201.986525 -52.285282 
L 201.752113 -47.5279 
L 201.60425 -42.770518 
L 201.51378 -38.013136 
L 201.460008 -33.255755 
L 201.428932 -28.498373 
z
" id="mc45df98551" style="stroke:#ff7f0e;stroke-opacity:0.5;"/>
    </defs>
    <g clip-path="url(#p299225d9e8)">
     <use style="fill:#ff7f0e;fill-opacity:0.5;stroke:#ff7f0e;stroke-opacity:0.5;" x="0" xlink:href="#mc45df98551" y="188.87938"/>
    </g>
   </g>
   <g id="PolyCollection_16">
    <defs>
     <path d="M 224.478054 -28.498373 
L 224.478054 -95.101718 
L 224.517901 -95.101718 
L 224.587583 -95.101718 
L 224.705787 -95.101718 
L 224.900028 -95.101718 
L 225.208609 -95.101718 
L 225.681136 -95.101718 
L 226.375557 -95.101718 
L 227.348787 -95.101718 
L 228.637698 -95.101718 
L 230.228982 -95.101718 
L 232.022129 -95.101718 
L 233.800169 -95.101718 
L 235.234493 -95.101718 
L 235.951562 -95.101718 
L 235.665631 -95.101718 
L 234.330282 -95.101718 
L 232.21436 -95.101718 
L 229.822471 -95.101718 
L 227.679648 -95.101718 
L 226.112766 -95.101718 
L 225.170197 -95.101718 
L 224.703901 -95.101718 
L 224.514934 -95.101718 
L 224.452544 -95.101718 
L 224.435864 -95.101718 
L 224.432275 -95.101718 
L 224.431657 -95.101718 
L 224.431572 -95.101718 
L 224.431572 -161.705063 
L 224.431572 -161.705063 
L 224.431657 -156.947681 
L 224.432275 -152.190299 
L 224.435864 -147.432917 
L 224.452544 -142.675536 
L 224.514934 -137.918154 
L 224.703901 -133.160772 
L 225.170197 -128.40339 
L 226.112766 -123.646009 
L 227.679648 -118.888627 
L 229.822471 -114.131245 
L 232.21436 -109.373863 
L 234.330282 -104.616481 
L 235.665631 -99.8591 
L 235.951562 -95.101718 
L 235.234493 -90.344336 
L 233.800169 -85.586954 
L 232.022129 -80.829572 
L 230.228982 -76.072191 
L 228.637698 -71.314809 
L 227.348787 -66.557427 
L 226.375557 -61.800045 
L 225.681136 -57.042664 
L 225.208609 -52.285282 
L 224.900028 -47.5279 
L 224.705787 -42.770518 
L 224.587583 -38.013136 
L 224.517901 -33.255755 
L 224.478054 -28.498373 
z
" id="mff59915344" style="stroke:#ff7f0e;stroke-opacity:0.5;"/>
    </defs>
    <g clip-path="url(#p299225d9e8)">
     <use style="fill:#ff7f0e;fill-opacity:0.5;stroke:#ff7f0e;stroke-opacity:0.5;" x="0" xlink:href="#mff59915344" y="188.87938"/>
    </g>
   </g>
   <g id="PolyCollection_17">
    <defs>
     <path d="M 247.519551 -28.498373 
L 247.519551 -95.101718 
L 247.565709 -95.101718 
L 247.650401 -95.101718 
L 247.800255 -95.101718 
L 248.055431 -95.101718 
L 248.472298 -95.101718 
L 249.122537 -95.101718 
L 250.08407 -95.101718 
L 251.417626 -95.101718 
L 253.124164 -95.101718 
L 255.087067 -95.101718 
L 257.022624 -95.101718 
L 258.486905 -95.101718 
L 258.991562 -95.101718 
L 258.22833 -95.101718 
L 256.291726 -95.101718 
L 253.713901 -95.101718 
L 251.218872 -95.101718 
L 249.347048 -95.101718 
L 248.241209 -95.101718 
L 247.72646 -95.101718 
L 247.538687 -95.101718 
L 247.485425 -95.101718 
L 247.473779 -95.101718 
L 247.471834 -95.101718 
L 247.471588 -95.101718 
L 247.471564 -95.101718 
L 247.471563 -95.101718 
L 247.471563 -95.101718 
L 247.471563 -161.705063 
L 247.471563 -161.705063 
L 247.471563 -156.947681 
L 247.471564 -152.190299 
L 247.471588 -147.432917 
L 247.471834 -142.675536 
L 247.473779 -137.918154 
L 247.485425 -133.160772 
L 247.538687 -128.40339 
L 247.72646 -123.646009 
L 248.241209 -118.888627 
L 249.347048 -114.131245 
L 251.218872 -109.373863 
L 253.713901 -104.616481 
L 256.291726 -99.8591 
L 258.22833 -95.101718 
L 258.991562 -90.344336 
L 258.486905 -85.586954 
L 257.022624 -80.829572 
L 255.087067 -76.072191 
L 253.124164 -71.314809 
L 251.417626 -66.557427 
L 250.08407 -61.800045 
L 249.122537 -57.042664 
L 248.472298 -52.285282 
L 248.055431 -47.5279 
L 247.800255 -42.770518 
L 247.650401 -38.013136 
L 247.565709 -33.255755 
L 247.519551 -28.498373 
z
" id="ma944549ab0" style="stroke:#ff7f0e;stroke-opacity:0.5;"/>
    </defs>
    <g clip-path="url(#p299225d9e8)">
     <use style="fill:#ff7f0e;fill-opacity:0.5;stroke:#ff7f0e;stroke-opacity:0.5;" x="0" xlink:href="#ma944549ab0" y="188.87938"/>
    </g>
   </g>
   <g id="PolyCollection_18">
    <defs>
     <path d="M 270.525548 -28.498373 
L 270.525548 -95.101718 
L 270.546002 -95.101718 
L 270.592425 -95.101718 
L 270.692418 -95.101718 
L 270.896279 -95.101718 
L 271.28794 -95.101718 
L 271.991884 -95.101718 
L 273.161283 -95.101718 
L 274.921267 -95.101718 
L 277.241262 -95.101718 
L 279.75613 -95.101718 
L 281.675465 -95.101718 
L 282.031562 -95.101718 
L 280.34633 -95.101718 
L 277.219026 -95.101718 
L 274.036041 -95.101718 
L 271.887721 -95.101718 
L 270.897119 -95.101718 
L 270.586553 -95.101718 
L 270.521383 -95.101718 
L 270.512404 -95.101718 
L 270.511609 -95.101718 
L 270.511564 -95.101718 
L 270.511563 -95.101718 
L 270.511563 -95.101718 
L 270.511563 -95.101718 
L 270.511562 -95.101718 
L 270.511562 -95.101718 
L 270.511562 -95.101718 
L 270.511562 -161.705063 
L 270.511562 -161.705063 
L 270.511562 -156.947681 
L 270.511562 -152.190299 
L 270.511563 -147.432917 
L 270.511563 -142.675536 
L 270.511563 -137.918154 
L 270.511564 -133.160772 
L 270.511609 -128.40339 
L 270.512404 -123.646009 
L 270.521383 -118.888627 
L 270.586553 -114.131245 
L 270.897119 -109.373863 
L 271.887721 -104.616481 
L 274.036041 -99.8591 
L 277.219026 -95.101718 
L 280.34633 -90.344336 
L 282.031562 -85.586954 
L 281.675465 -80.829572 
L 279.75613 -76.072191 
L 277.241262 -71.314809 
L 274.921267 -66.557427 
L 273.161283 -61.800045 
L 271.991884 -57.042664 
L 271.28794 -52.285282 
L 270.896279 -47.5279 
L 270.692418 -42.770518 
L 270.592425 -38.013136 
L 270.546002 -33.255755 
L 270.525548 -28.498373 
z
" id="ma1fa5f64f1" style="stroke:#ff7f0e;stroke-opacity:0.5;"/>
    </defs>
    <g clip-path="url(#p299225d9e8)">
     <use style="fill:#ff7f0e;fill-opacity:0.5;stroke:#ff7f0e;stroke-opacity:0.5;" x="0" xlink:href="#ma1fa5f64f1" y="188.87938"/>
    </g>
   </g>
   <g id="matplotlib.axis_1">
    <g id="xtick_1">
     <g id="line2d_1">
      <defs>
       <path d="M 0 0 
L 0 3.5 
" id="m3cffbb0155" style="stroke:#000000;stroke-width:0.8;"/>
      </defs>
      <g>
       <use style="stroke:#000000;stroke-width:0.8;" x="63.151562" xlink:href="#m3cffbb0155" y="149.101255"/>
      </g>
     </g>
     <g id="text_1">
      <!-- 0.0 -->
      <g transform="translate(54.294531 163.699692)scale(0.1 -0.1)">
       <defs>
        <path d="M 2944 2338 
Q 2944 3213 2780 3570 
Q 2616 3928 2228 3928 
Q 1841 3928 1675 3570 
Q 1509 3213 1509 2338 
Q 1509 1453 1675 1090 
Q 1841 728 2228 728 
Q 2613 728 2778 1090 
Q 2944 1453 2944 2338 
z
M 4147 2328 
Q 4147 1169 3647 539 
Q 3147 -91 2228 -91 
Q 1306 -91 806 539 
Q 306 1169 306 2328 
Q 306 3491 806 4120 
Q 1306 4750 2228 4750 
Q 3147 4750 3647 4120 
Q 4147 3491 4147 2328 
z
" id="DejaVuSans-Bold-30" transform="scale(0.015625)"/>
        <path d="M 653 1209 
L 1778 1209 
L 1778 0 
L 653 0 
L 653 1209 
z
" id="DejaVuSans-Bold-2e" transform="scale(0.015625)"/>
       </defs>
       <use xlink:href="#DejaVuSans-Bold-30"/>
       <use x="69.580078" xlink:href="#DejaVuSans-Bold-2e"/>
       <use x="107.568359" xlink:href="#DejaVuSans-Bold-30"/>
      </g>
     </g>
    </g>
    <g id="xtick_2">
     <g id="line2d_2">
      <g>
       <use style="stroke:#000000;stroke-width:0.8;" x="109.231562" xlink:href="#m3cffbb0155" y="149.101255"/>
      </g>
     </g>
     <g id="text_2">
      <!-- 0.2 -->
      <g transform="translate(100.374531 163.699692)scale(0.1 -0.1)">
       <defs>
        <path d="M 1844 884 
L 3897 884 
L 3897 0 
L 506 0 
L 506 884 
L 2209 2388 
Q 2438 2594 2547 2791 
Q 2656 2988 2656 3200 
Q 2656 3528 2436 3728 
Q 2216 3928 1850 3928 
Q 1569 3928 1234 3808 
Q 900 3688 519 3450 
L 519 4475 
Q 925 4609 1322 4679 
Q 1719 4750 2100 4750 
Q 2938 4750 3402 4381 
Q 3866 4013 3866 3353 
Q 3866 2972 3669 2642 
Q 3472 2313 2841 1759 
L 1844 884 
z
" id="DejaVuSans-Bold-32" transform="scale(0.015625)"/>
       </defs>
       <use xlink:href="#DejaVuSans-Bold-30"/>
       <use x="69.580078" xlink:href="#DejaVuSans-Bold-2e"/>
       <use x="107.568359" xlink:href="#DejaVuSans-Bold-32"/>
      </g>
     </g>
    </g>
    <g id="xtick_3">
     <g id="line2d_3">
      <g>
       <use style="stroke:#000000;stroke-width:0.8;" x="155.311562" xlink:href="#m3cffbb0155" y="149.101255"/>
      </g>
     </g>
     <g id="text_3">
      <!-- 0.4 -->
      <g transform="translate(146.454531 163.699692)scale(0.1 -0.1)">
       <defs>
        <path d="M 2356 3675 
L 1038 1722 
L 2356 1722 
L 2356 3675 
z
M 2156 4666 
L 3494 4666 
L 3494 1722 
L 4159 1722 
L 4159 850 
L 3494 850 
L 3494 0 
L 2356 0 
L 2356 850 
L 288 850 
L 288 1881 
L 2156 4666 
z
" id="DejaVuSans-Bold-34" transform="scale(0.015625)"/>
       </defs>
       <use xlink:href="#DejaVuSans-Bold-30"/>
       <use x="69.580078" xlink:href="#DejaVuSans-Bold-2e"/>
       <use x="107.568359" xlink:href="#DejaVuSans-Bold-34"/>
      </g>
     </g>
    </g>
    <g id="xtick_4">
     <g id="line2d_4">
      <g>
       <use style="stroke:#000000;stroke-width:0.8;" x="201.391562" xlink:href="#m3cffbb0155" y="149.101255"/>
      </g>
     </g>
     <g id="text_4">
      <!-- 0.6 -->
      <g transform="translate(192.534531 163.699692)scale(0.1 -0.1)">
       <defs>
        <path d="M 2316 2303 
Q 2000 2303 1842 2098 
Q 1684 1894 1684 1484 
Q 1684 1075 1842 870 
Q 2000 666 2316 666 
Q 2634 666 2792 870 
Q 2950 1075 2950 1484 
Q 2950 1894 2792 2098 
Q 2634 2303 2316 2303 
z
M 3803 4544 
L 3803 3681 
Q 3506 3822 3243 3889 
Q 2981 3956 2731 3956 
Q 2194 3956 1894 3657 
Q 1594 3359 1544 2772 
Q 1750 2925 1990 3001 
Q 2231 3078 2516 3078 
Q 3231 3078 3670 2659 
Q 4109 2241 4109 1563 
Q 4109 813 3618 361 
Q 3128 -91 2303 -91 
Q 1394 -91 895 523 
Q 397 1138 397 2266 
Q 397 3422 980 4083 
Q 1563 4744 2578 4744 
Q 2900 4744 3203 4694 
Q 3506 4644 3803 4544 
z
" id="DejaVuSans-Bold-36" transform="scale(0.015625)"/>
       </defs>
       <use xlink:href="#DejaVuSans-Bold-30"/>
       <use x="69.580078" xlink:href="#DejaVuSans-Bold-2e"/>
       <use x="107.568359" xlink:href="#DejaVuSans-Bold-36"/>
      </g>
     </g>
    </g>
    <g id="xtick_5">
     <g id="line2d_5">
      <g>
       <use style="stroke:#000000;stroke-width:0.8;" x="247.471562" xlink:href="#m3cffbb0155" y="149.101255"/>
      </g>
     </g>
     <g id="text_5">
      <!-- 0.8 -->
      <g transform="translate(238.614531 163.699692)scale(0.1 -0.1)">
       <defs>
        <path d="M 2228 2088 
Q 1891 2088 1709 1903 
Q 1528 1719 1528 1375 
Q 1528 1031 1709 848 
Q 1891 666 2228 666 
Q 2563 666 2741 848 
Q 2919 1031 2919 1375 
Q 2919 1722 2741 1905 
Q 2563 2088 2228 2088 
z
M 1350 2484 
Q 925 2613 709 2878 
Q 494 3144 494 3541 
Q 494 4131 934 4440 
Q 1375 4750 2228 4750 
Q 3075 4750 3515 4442 
Q 3956 4134 3956 3541 
Q 3956 3144 3739 2878 
Q 3522 2613 3097 2484 
Q 3572 2353 3814 2058 
Q 4056 1763 4056 1313 
Q 4056 619 3595 264 
Q 3134 -91 2228 -91 
Q 1319 -91 855 264 
Q 391 619 391 1313 
Q 391 1763 633 2058 
Q 875 2353 1350 2484 
z
M 1631 3419 
Q 1631 3141 1786 2991 
Q 1941 2841 2228 2841 
Q 2509 2841 2662 2991 
Q 2816 3141 2816 3419 
Q 2816 3697 2662 3845 
Q 2509 3994 2228 3994 
Q 1941 3994 1786 3844 
Q 1631 3694 1631 3419 
z
" id="DejaVuSans-Bold-38" transform="scale(0.015625)"/>
       </defs>
       <use xlink:href="#DejaVuSans-Bold-30"/>
       <use x="69.580078" xlink:href="#DejaVuSans-Bold-2e"/>
       <use x="107.568359" xlink:href="#DejaVuSans-Bold-38"/>
      </g>
     </g>
    </g>
    <g id="xtick_6">
     <g id="line2d_6">
      <g>
       <use style="stroke:#000000;stroke-width:0.8;" x="293.551562" xlink:href="#m3cffbb0155" y="149.101255"/>
      </g>
     </g>
     <g id="text_6">
      <!-- 1.0 -->
      <g transform="translate(284.694531 163.699692)scale(0.1 -0.1)">
       <defs>
        <path d="M 750 831 
L 1813 831 
L 1813 3847 
L 722 3622 
L 722 4441 
L 1806 4666 
L 2950 4666 
L 2950 831 
L 4013 831 
L 4013 0 
L 750 0 
L 750 831 
z
" id="DejaVuSans-Bold-31" transform="scale(0.015625)"/>
       </defs>
       <use xlink:href="#DejaVuSans-Bold-31"/>
       <use x="69.580078" xlink:href="#DejaVuSans-Bold-2e"/>
       <use x="107.568359" xlink:href="#DejaVuSans-Bold-30"/>
      </g>
     </g>
    </g>
    <g id="text_7">
     <!-- Selected F frequency in cycle $k$, $f^*_k$ -->
     <g transform="translate(80.951562 178.87938)scale(0.1 -0.1)">
      <defs>
       <path d="M 3834 4519 
L 3834 3531 
Q 3450 3703 3084 3790 
Q 2719 3878 2394 3878 
Q 1963 3878 1756 3759 
Q 1550 3641 1550 3391 
Q 1550 3203 1689 3098 
Q 1828 2994 2194 2919 
L 2706 2816 
Q 3484 2659 3812 2340 
Q 4141 2022 4141 1434 
Q 4141 663 3683 286 
Q 3225 -91 2284 -91 
Q 1841 -91 1394 -6 
Q 947 78 500 244 
L 500 1259 
Q 947 1022 1364 901 
Q 1781 781 2169 781 
Q 2563 781 2772 912 
Q 2981 1044 2981 1288 
Q 2981 1506 2839 1625 
Q 2697 1744 2272 1838 
L 1806 1941 
Q 1106 2091 782 2419 
Q 459 2747 459 3303 
Q 459 4000 909 4375 
Q 1359 4750 2203 4750 
Q 2588 4750 2994 4692 
Q 3400 4634 3834 4519 
z
" id="DejaVuSans-Bold-53" transform="scale(0.015625)"/>
       <path d="M 4031 1759 
L 4031 1441 
L 1416 1441 
Q 1456 1047 1700 850 
Q 1944 653 2381 653 
Q 2734 653 3104 758 
Q 3475 863 3866 1075 
L 3866 213 
Q 3469 63 3072 -14 
Q 2675 -91 2278 -91 
Q 1328 -91 801 392 
Q 275 875 275 1747 
Q 275 2603 792 3093 
Q 1309 3584 2216 3584 
Q 3041 3584 3536 3087 
Q 4031 2591 4031 1759 
z
M 2881 2131 
Q 2881 2450 2695 2645 
Q 2509 2841 2209 2841 
Q 1884 2841 1681 2658 
Q 1478 2475 1428 2131 
L 2881 2131 
z
" id="DejaVuSans-Bold-65" transform="scale(0.015625)"/>
       <path d="M 538 4863 
L 1656 4863 
L 1656 0 
L 538 0 
L 538 4863 
z
" id="DejaVuSans-Bold-6c" transform="scale(0.015625)"/>
       <path d="M 3366 3391 
L 3366 2478 
Q 3138 2634 2908 2709 
Q 2678 2784 2431 2784 
Q 1963 2784 1702 2511 
Q 1441 2238 1441 1747 
Q 1441 1256 1702 982 
Q 1963 709 2431 709 
Q 2694 709 2930 787 
Q 3166 866 3366 1019 
L 3366 103 
Q 3103 6 2833 -42 
Q 2563 -91 2291 -91 
Q 1344 -91 809 395 
Q 275 881 275 1747 
Q 275 2613 809 3098 
Q 1344 3584 2291 3584 
Q 2566 3584 2833 3536 
Q 3100 3488 3366 3391 
z
" id="DejaVuSans-Bold-63" transform="scale(0.015625)"/>
       <path d="M 1759 4494 
L 1759 3500 
L 2913 3500 
L 2913 2700 
L 1759 2700 
L 1759 1216 
Q 1759 972 1856 886 
Q 1953 800 2241 800 
L 2816 800 
L 2816 0 
L 1856 0 
Q 1194 0 917 276 
Q 641 553 641 1216 
L 641 2700 
L 84 2700 
L 84 3500 
L 641 3500 
L 641 4494 
L 1759 4494 
z
" id="DejaVuSans-Bold-74" transform="scale(0.015625)"/>
       <path d="M 2919 2988 
L 2919 4863 
L 4044 4863 
L 4044 0 
L 2919 0 
L 2919 506 
Q 2688 197 2409 53 
Q 2131 -91 1766 -91 
Q 1119 -91 703 423 
Q 288 938 288 1747 
Q 288 2556 703 3070 
Q 1119 3584 1766 3584 
Q 2128 3584 2408 3439 
Q 2688 3294 2919 2988 
z
M 2181 722 
Q 2541 722 2730 984 
Q 2919 1247 2919 1747 
Q 2919 2247 2730 2509 
Q 2541 2772 2181 2772 
Q 1825 2772 1636 2509 
Q 1447 2247 1447 1747 
Q 1447 1247 1636 984 
Q 1825 722 2181 722 
z
" id="DejaVuSans-Bold-64" transform="scale(0.015625)"/>
       <path id="DejaVuSans-Bold-20" transform="scale(0.015625)"/>
       <path d="M 588 4666 
L 3834 4666 
L 3834 3756 
L 1791 3756 
L 1791 2888 
L 3713 2888 
L 3713 1978 
L 1791 1978 
L 1791 0 
L 588 0 
L 588 4666 
z
" id="DejaVuSans-Bold-46" transform="scale(0.015625)"/>
       <path d="M 2841 4863 
L 2841 4128 
L 2222 4128 
Q 1984 4128 1890 4042 
Q 1797 3956 1797 3744 
L 1797 3500 
L 2753 3500 
L 2753 2700 
L 1797 2700 
L 1797 0 
L 678 0 
L 678 2700 
L 122 2700 
L 122 3500 
L 678 3500 
L 678 3744 
Q 678 4316 997 4589 
Q 1316 4863 1984 4863 
L 2841 4863 
z
" id="DejaVuSans-Bold-66" transform="scale(0.015625)"/>
       <path d="M 3138 2547 
Q 2991 2616 2845 2648 
Q 2700 2681 2553 2681 
Q 2122 2681 1889 2404 
Q 1656 2128 1656 1613 
L 1656 0 
L 538 0 
L 538 3500 
L 1656 3500 
L 1656 2925 
Q 1872 3269 2151 3426 
Q 2431 3584 2822 3584 
Q 2878 3584 2943 3579 
Q 3009 3575 3134 3559 
L 3138 2547 
z
" id="DejaVuSans-Bold-72" transform="scale(0.015625)"/>
       <path d="M 2181 2772 
Q 1825 2772 1636 2509 
Q 1447 2247 1447 1747 
Q 1447 1247 1636 984 
Q 1825 722 2181 722 
Q 2541 722 2730 984 
Q 2919 1247 2919 1747 
Q 2919 2247 2730 2509 
Q 2541 2772 2181 2772 
z
M 2919 506 
Q 2688 197 2409 53 
Q 2131 -91 1766 -91 
Q 1119 -91 703 423 
Q 288 938 288 1747 
Q 288 2556 703 3067 
Q 1119 3578 1766 3578 
Q 2131 3578 2409 3434 
Q 2688 3291 2919 2981 
L 2919 3500 
L 4044 3500 
L 4044 -1331 
L 2919 -1331 
L 2919 506 
z
" id="DejaVuSans-Bold-71" transform="scale(0.015625)"/>
       <path d="M 500 1363 
L 500 3500 
L 1625 3500 
L 1625 3150 
Q 1625 2866 1622 2436 
Q 1619 2006 1619 1863 
Q 1619 1441 1641 1255 
Q 1663 1069 1716 984 
Q 1784 875 1895 815 
Q 2006 756 2150 756 
Q 2500 756 2700 1025 
Q 2900 1294 2900 1772 
L 2900 3500 
L 4019 3500 
L 4019 0 
L 2900 0 
L 2900 506 
Q 2647 200 2364 54 
Q 2081 -91 1741 -91 
Q 1134 -91 817 281 
Q 500 653 500 1363 
z
" id="DejaVuSans-Bold-75" transform="scale(0.015625)"/>
       <path d="M 4056 2131 
L 4056 0 
L 2931 0 
L 2931 347 
L 2931 1631 
Q 2931 2084 2911 2256 
Q 2891 2428 2841 2509 
Q 2775 2619 2662 2680 
Q 2550 2741 2406 2741 
Q 2056 2741 1856 2470 
Q 1656 2200 1656 1722 
L 1656 0 
L 538 0 
L 538 3500 
L 1656 3500 
L 1656 2988 
Q 1909 3294 2193 3439 
Q 2478 3584 2822 3584 
Q 3428 3584 3742 3212 
Q 4056 2841 4056 2131 
z
" id="DejaVuSans-Bold-6e" transform="scale(0.015625)"/>
       <path d="M 78 3500 
L 1197 3500 
L 2138 1125 
L 2938 3500 
L 4056 3500 
L 2584 -331 
Q 2363 -916 2067 -1148 
Q 1772 -1381 1288 -1381 
L 641 -1381 
L 641 -647 
L 991 -647 
Q 1275 -647 1404 -556 
Q 1534 -466 1606 -231 
L 1638 -134 
L 78 3500 
z
" id="DejaVuSans-Bold-79" transform="scale(0.015625)"/>
       <path d="M 538 3500 
L 1656 3500 
L 1656 0 
L 538 0 
L 538 3500 
z
M 538 4863 
L 1656 4863 
L 1656 3950 
L 538 3950 
L 538 4863 
z
" id="DejaVuSans-Bold-69" transform="scale(0.015625)"/>
       <path d="M 1141 4863 
L 2266 4863 
L 1753 2228 
L 3263 3500 
L 4581 3500 
L 2547 1881 
L 4025 0 
L 2747 0 
L 1613 1509 
L 1319 0 
L 197 0 
L 1141 4863 
z
" id="DejaVuSans-BoldOblique-6b" transform="scale(0.015625)"/>
       <path d="M 653 1209 
L 1778 1209 
L 1778 256 
L 1006 -909 
L 341 -909 
L 653 256 
L 653 1209 
z
" id="DejaVuSans-Bold-2c" transform="scale(0.015625)"/>
       <path d="M 3456 4863 
L 3309 4128 
L 2694 4128 
Q 2459 4128 2351 4042 
Q 2244 3956 2203 3747 
L 2150 3500 
L 3097 3500 
L 2944 2700 
L 1997 2700 
L 1472 0 
L 347 0 
L 872 2700 
L 319 2700 
L 475 3500 
L 1025 3500 
L 1075 3744 
Q 1191 4325 1556 4594 
Q 1922 4863 2597 4863 
L 3456 4863 
z
" id="DejaVuSans-BoldOblique-66" transform="scale(0.015625)"/>
       <path d="M 3219 3803 
L 2188 3263 
L 3219 2719 
L 2981 2278 
L 1941 2853 
L 1941 1778 
L 1409 1778 
L 1409 2853 
L 366 2278 
L 128 2719 
L 1172 3263 
L 128 3803 
L 366 4244 
L 1409 3675 
L 1409 4750 
L 1941 4750 
L 1941 3675 
L 2981 4244 
L 3219 3803 
z
" id="DejaVuSans-Bold-2a" transform="scale(0.015625)"/>
      </defs>
      <use transform="translate(0 0.701562)" xlink:href="#DejaVuSans-Bold-53"/>
      <use transform="translate(72.021484 0.701562)" xlink:href="#DejaVuSans-Bold-65"/>
      <use transform="translate(139.84375 0.701562)" xlink:href="#DejaVuSans-Bold-6c"/>
      <use transform="translate(174.121094 0.701562)" xlink:href="#DejaVuSans-Bold-65"/>
      <use transform="translate(241.943359 0.701562)" xlink:href="#DejaVuSans-Bold-63"/>
      <use transform="translate(301.220703 0.701562)" xlink:href="#DejaVuSans-Bold-74"/>
      <use transform="translate(349.023438 0.701562)" xlink:href="#DejaVuSans-Bold-65"/>
      <use transform="translate(416.845703 0.701562)" xlink:href="#DejaVuSans-Bold-64"/>
      <use transform="translate(488.427734 0.701562)" xlink:href="#DejaVuSans-Bold-20"/>
      <use transform="translate(523.242188 0.701562)" xlink:href="#DejaVuSans-Bold-46"/>
      <use transform="translate(591.552734 0.701562)" xlink:href="#DejaVuSans-Bold-20"/>
      <use transform="translate(626.367188 0.701562)" xlink:href="#DejaVuSans-Bold-66"/>
      <use transform="translate(669.873047 0.701562)" xlink:href="#DejaVuSans-Bold-72"/>
      <use transform="translate(719.189453 0.701562)" xlink:href="#DejaVuSans-Bold-65"/>
      <use transform="translate(787.011719 0.701562)" xlink:href="#DejaVuSans-Bold-71"/>
      <use transform="translate(858.59375 0.701562)" xlink:href="#DejaVuSans-Bold-75"/>
      <use transform="translate(929.785156 0.701562)" xlink:href="#DejaVuSans-Bold-65"/>
      <use transform="translate(997.607422 0.701562)" xlink:href="#DejaVuSans-Bold-6e"/>
      <use transform="translate(1068.798828 0.701562)" xlink:href="#DejaVuSans-Bold-63"/>
      <use transform="translate(1128.076172 0.701562)" xlink:href="#DejaVuSans-Bold-79"/>
      <use transform="translate(1193.261719 0.701562)" xlink:href="#DejaVuSans-Bold-20"/>
      <use transform="translate(1228.076172 0.701562)" xlink:href="#DejaVuSans-Bold-69"/>
      <use transform="translate(1262.353516 0.701562)" xlink:href="#DejaVuSans-Bold-6e"/>
      <use transform="translate(1333.544922 0.701562)" xlink:href="#DejaVuSans-Bold-20"/>
      <use transform="translate(1368.359375 0.701562)" xlink:href="#DejaVuSans-Bold-63"/>
      <use transform="translate(1427.636719 0.701562)" xlink:href="#DejaVuSans-Bold-79"/>
      <use transform="translate(1492.822266 0.701562)" xlink:href="#DejaVuSans-Bold-63"/>
      <use transform="translate(1552.099609 0.701562)" xlink:href="#DejaVuSans-Bold-6c"/>
      <use transform="translate(1586.376953 0.701562)" xlink:href="#DejaVuSans-Bold-65"/>
      <use transform="translate(1654.199219 0.701562)" xlink:href="#DejaVuSans-Bold-20"/>
      <use transform="translate(1689.013672 0.701562)" xlink:href="#DejaVuSans-BoldOblique-6b"/>
      <use transform="translate(1755.517578 0.701562)" xlink:href="#DejaVuSans-Bold-2c"/>
      <use transform="translate(1793.505859 0.701562)" xlink:href="#DejaVuSans-Bold-20"/>
      <use transform="translate(1828.320312 0.701562)" xlink:href="#DejaVuSans-BoldOblique-66"/>
      <use transform="translate(1893.861771 39.046875)scale(0.7)" xlink:href="#DejaVuSans-Bold-2a"/>
      <use transform="translate(1871.826172 -26.642188)scale(0.7)" xlink:href="#DejaVuSans-BoldOblique-6b"/>
     </g>
    </g>
   </g>
   <g id="matplotlib.axis_2">
    <g id="ytick_1">
     <g id="line2d_7">
      <defs>
       <path d="M 0 0 
L -3.5 0 
" id="m0e66eb94fc" style="stroke:#000000;stroke-width:0.8;"/>
      </defs>
      <g>
       <use style="stroke:#000000;stroke-width:0.8;" x="63.151562" xlink:href="#m0e66eb94fc" y="148.963291"/>
      </g>
     </g>
     <g id="text_8">
      <!-- 0.04 -->
      <g transform="translate(23.1 152.762509)scale(0.1 -0.1)">
       <defs>
        <path d="M 678 2375 
L 4684 2375 
L 4684 1638 
L 678 1638 
L 678 2375 
z
" id="DejaVuSans-Bold-2212" transform="scale(0.015625)"/>
       </defs>
       <use xlink:href="#DejaVuSans-Bold-2212"/>
       <use x="83.789062" xlink:href="#DejaVuSans-Bold-30"/>
       <use x="153.369141" xlink:href="#DejaVuSans-Bold-2e"/>
       <use x="191.357422" xlink:href="#DejaVuSans-Bold-30"/>
       <use x="260.9375" xlink:href="#DejaVuSans-Bold-34"/>
      </g>
     </g>
    </g>
    <g id="ytick_2">
     <g id="line2d_8">
      <g>
       <use style="stroke:#000000;stroke-width:0.8;" x="63.151562" xlink:href="#m0e66eb94fc" y="121.370476"/>
      </g>
     </g>
     <g id="text_9">
      <!-- 0.02 -->
      <g transform="translate(23.1 125.169695)scale(0.1 -0.1)">
       <use xlink:href="#DejaVuSans-Bold-2212"/>
       <use x="83.789062" xlink:href="#DejaVuSans-Bold-30"/>
       <use x="153.369141" xlink:href="#DejaVuSans-Bold-2e"/>
       <use x="191.357422" xlink:href="#DejaVuSans-Bold-30"/>
       <use x="260.9375" xlink:href="#DejaVuSans-Bold-32"/>
      </g>
     </g>
    </g>
    <g id="ytick_3">
     <g id="line2d_9">
      <g>
       <use style="stroke:#000000;stroke-width:0.8;" x="63.151562" xlink:href="#m0e66eb94fc" y="93.777662"/>
      </g>
     </g>
     <g id="text_10">
      <!-- 0.00 -->
      <g transform="translate(31.479687 97.576881)scale(0.1 -0.1)">
       <use xlink:href="#DejaVuSans-Bold-30"/>
       <use x="69.580078" xlink:href="#DejaVuSans-Bold-2e"/>
       <use x="107.568359" xlink:href="#DejaVuSans-Bold-30"/>
       <use x="177.148438" xlink:href="#DejaVuSans-Bold-30"/>
      </g>
     </g>
    </g>
    <g id="ytick_4">
     <g id="line2d_10">
      <g>
       <use style="stroke:#000000;stroke-width:0.8;" x="63.151562" xlink:href="#m0e66eb94fc" y="66.184847"/>
      </g>
     </g>
     <g id="text_11">
      <!-- 0.02 -->
      <g transform="translate(31.479687 69.984066)scale(0.1 -0.1)">
       <use xlink:href="#DejaVuSans-Bold-30"/>
       <use x="69.580078" xlink:href="#DejaVuSans-Bold-2e"/>
       <use x="107.568359" xlink:href="#DejaVuSans-Bold-30"/>
       <use x="177.148438" xlink:href="#DejaVuSans-Bold-32"/>
      </g>
     </g>
    </g>
    <g id="ytick_5">
     <g id="line2d_11">
      <g>
       <use style="stroke:#000000;stroke-width:0.8;" x="63.151562" xlink:href="#m0e66eb94fc" y="38.592033"/>
      </g>
     </g>
     <g id="text_12">
      <!-- 0.04 -->
      <g transform="translate(31.479687 42.391252)scale(0.1 -0.1)">
       <use xlink:href="#DejaVuSans-Bold-30"/>
       <use x="69.580078" xlink:href="#DejaVuSans-Bold-2e"/>
       <use x="107.568359" xlink:href="#DejaVuSans-Bold-30"/>
       <use x="177.148438" xlink:href="#DejaVuSans-Bold-34"/>
      </g>
     </g>
    </g>
    <g id="ytick_6">
     <g id="line2d_12">
      <g>
       <use style="stroke:#000000;stroke-width:0.8;" x="63.151562" xlink:href="#m0e66eb94fc" y="10.999219"/>
      </g>
     </g>
     <g id="text_13">
      <!-- 0.06 -->
      <g transform="translate(31.479687 14.798437)scale(0.1 -0.1)">
       <use xlink:href="#DejaVuSans-Bold-30"/>
       <use x="69.580078" xlink:href="#DejaVuSans-Bold-2e"/>
       <use x="107.568359" xlink:href="#DejaVuSans-Bold-30"/>
       <use x="177.148438" xlink:href="#DejaVuSans-Bold-36"/>
      </g>
     </g>
    </g>
    <g id="text_14">
     <!-- $f_{k+1}^*-f^*_k$ -->
     <g transform="translate(16.3 103.731255)rotate(-90)scale(0.1 -0.1)">
      <defs>
       <path d="M 3053 4013 
L 3053 2375 
L 4684 2375 
L 4684 1638 
L 3053 1638 
L 3053 0 
L 2309 0 
L 2309 1638 
L 678 1638 
L 678 2375 
L 2309 2375 
L 2309 4013 
L 3053 4013 
z
" id="DejaVuSans-Bold-2b" transform="scale(0.015625)"/>
      </defs>
      <use transform="translate(0 0.701562)" xlink:href="#DejaVuSans-BoldOblique-66"/>
      <use transform="translate(65.541458 39.046875)scale(0.7)" xlink:href="#DejaVuSans-Bold-2a"/>
      <use transform="translate(43.505859 -26.642188)scale(0.7)" xlink:href="#DejaVuSans-BoldOblique-6b"/>
      <use transform="translate(104.646484 -26.642188)scale(0.7)" xlink:href="#DejaVuSans-Bold-2b"/>
      <use transform="translate(177.886719 -26.642188)scale(0.7)" xlink:href="#DejaVuSans-Bold-31"/>
      <use transform="translate(250.166992 0.701562)" xlink:href="#DejaVuSans-Bold-2212"/>
      <use transform="translate(354.795898 0.701562)" xlink:href="#DejaVuSans-BoldOblique-66"/>
      <use transform="translate(420.337357 39.046875)scale(0.7)" xlink:href="#DejaVuSans-Bold-2a"/>
      <use transform="translate(398.301758 -26.642188)scale(0.7)" xlink:href="#DejaVuSans-BoldOblique-6b"/>
     </g>
    </g>
   </g>
   <g id="LineCollection_1">
    <path clip-path="url(#p299225d9e8)" d="M 63.151562 93.777662 
L 293.551562 93.777662 
" style="fill:none;stroke:#000000;stroke-dasharray:1.5,2.475;stroke-dashoffset:0;stroke-width:1.5;"/>
   </g>
   <g id="patch_3">
    <path d="M 63.151562 149.101255 
L 63.151562 10.861255 
" style="fill:none;stroke:#000000;stroke-linecap:square;stroke-linejoin:miter;stroke-width:0.8;"/>
   </g>
   <g id="patch_4">
    <path d="M 293.551562 149.101255 
L 293.551562 10.861255 
" style="fill:none;stroke:#000000;stroke-linecap:square;stroke-linejoin:miter;stroke-width:0.8;"/>
   </g>
   <g id="patch_5">
    <path d="M 63.151562 149.101255 
L 293.551562 149.101255 
" style="fill:none;stroke:#000000;stroke-linecap:square;stroke-linejoin:miter;stroke-width:0.8;"/>
   </g>
   <g id="patch_6">
    <path d="M 63.151562 10.861255 
L 293.551562 10.861255 
" style="fill:none;stroke:#000000;stroke-linecap:square;stroke-linejoin:miter;stroke-width:0.8;"/>
   </g>
  </g>
  <g id="axes_2">
   <g id="patch_7">
    <path d="M 242.863562 60.282055 
L 288.943562 60.282055 
L 288.943562 15.354055 
L 242.863562 15.354055 
z
" style="fill:#ffffff;"/>
   </g>
   <g id="PolyCollection_19">
    <defs>
     <path d="M 265.743593 -130.639507 
L 265.743593 -151.061325 
L 265.728607 -151.061325 
L 265.712389 -151.061325 
L 265.694855 -151.061325 
L 265.675918 -151.061325 
L 265.655487 -151.061325 
L 265.633465 -151.061325 
L 265.609752 -151.061325 
L 265.584246 -151.061325 
L 265.556837 -151.061325 
L 265.527414 -151.061325 
L 265.495862 -151.061325 
L 265.46206 -151.061325 
L 265.425886 -151.061325 
L 265.387213 -151.061325 
L 265.345911 -151.061325 
L 265.301848 -151.061325 
L 265.254886 -151.061325 
L 265.204889 -151.061325 
L 265.151715 -151.061325 
L 265.095222 -151.061325 
L 265.035266 -151.061325 
L 264.971702 -151.061325 
L 264.904384 -151.061325 
L 264.833167 -151.061325 
L 264.757906 -151.061325 
L 264.678455 -151.061325 
L 264.594674 -151.061325 
L 264.506421 -151.061325 
L 264.413559 -151.061325 
L 264.315955 -151.061325 
L 264.213479 -151.061325 
L 264.106006 -151.061325 
L 263.993419 -151.061325 
L 263.875607 -151.061325 
L 263.752465 -151.061325 
L 263.623898 -151.061325 
L 263.489821 -151.061325 
L 263.350156 -151.061325 
L 263.204841 -151.061325 
L 263.053821 -151.061325 
L 262.897058 -151.061325 
L 262.734524 -151.061325 
L 262.566209 -151.061325 
L 262.392115 -151.061325 
L 262.212264 -151.061325 
L 262.026692 -151.061325 
L 261.835454 -151.061325 
L 261.638622 -151.061325 
L 261.436289 -151.061325 
L 261.228567 -151.061325 
L 261.015587 -151.061325 
L 260.797502 -151.061325 
L 260.574485 -151.061325 
L 260.34673 -151.061325 
L 260.114455 -151.061325 
L 259.877895 -151.061325 
L 259.637312 -151.061325 
L 259.392985 -151.061325 
L 259.145216 -151.061325 
L 258.89433 -151.061325 
L 258.64067 -151.061325 
L 258.3846 -151.061325 
L 258.126504 -151.061325 
L 257.866785 -151.061325 
L 257.605864 -151.061325 
L 257.344179 -151.061325 
L 257.082184 -151.061325 
L 256.820347 -151.061325 
L 256.559153 -151.061325 
L 256.299096 -151.061325 
L 256.040683 -151.061325 
L 255.784427 -151.061325 
L 255.530854 -151.061325 
L 255.280491 -151.061325 
L 255.033872 -151.061325 
L 254.791534 -151.061325 
L 254.554011 -151.061325 
L 254.32184 -151.061325 
L 254.095551 -151.061325 
L 253.875671 -151.061325 
L 253.662719 -151.061325 
L 253.457203 -151.061325 
L 253.259621 -151.061325 
L 253.070457 -151.061325 
L 252.890181 -151.061325 
L 252.719243 -151.061325 
L 252.558076 -151.061325 
L 252.407092 -151.061325 
L 252.266678 -151.061325 
L 252.137199 -151.061325 
L 252.018992 -151.061325 
L 251.912367 -151.061325 
L 251.817607 -151.061325 
L 251.734963 -151.061325 
L 251.664655 -151.061325 
L 251.60687 -151.061325 
L 251.561765 -151.061325 
L 251.529459 -151.061325 
L 251.510041 -151.061325 
L 251.503562 -151.061325 
L 251.510041 -151.061325 
L 251.529459 -151.061325 
L 251.561765 -151.061325 
L 251.60687 -151.061325 
L 251.664655 -151.061325 
L 251.734963 -151.061325 
L 251.817607 -151.061325 
L 251.912367 -151.061325 
L 252.018992 -151.061325 
L 252.137199 -151.061325 
L 252.266678 -151.061325 
L 252.407092 -151.061325 
L 252.558076 -151.061325 
L 252.719243 -151.061325 
L 252.890181 -151.061325 
L 253.070457 -151.061325 
L 253.259621 -151.061325 
L 253.457203 -151.061325 
L 253.662719 -151.061325 
L 253.875671 -151.061325 
L 254.095551 -151.061325 
L 254.32184 -151.061325 
L 254.554011 -151.061325 
L 254.791534 -151.061325 
L 255.033872 -151.061325 
L 255.280491 -151.061325 
L 255.530854 -151.061325 
L 255.784427 -151.061325 
L 256.040683 -151.061325 
L 256.299096 -151.061325 
L 256.559153 -151.061325 
L 256.820347 -151.061325 
L 257.082184 -151.061325 
L 257.344179 -151.061325 
L 257.605864 -151.061325 
L 257.866785 -151.061325 
L 258.126504 -151.061325 
L 258.3846 -151.061325 
L 258.64067 -151.061325 
L 258.89433 -151.061325 
L 259.145216 -151.061325 
L 259.392985 -151.061325 
L 259.637312 -151.061325 
L 259.877895 -151.061325 
L 260.114455 -151.061325 
L 260.34673 -151.061325 
L 260.574485 -151.061325 
L 260.797502 -151.061325 
L 261.015587 -151.061325 
L 261.228567 -151.061325 
L 261.436289 -151.061325 
L 261.638622 -151.061325 
L 261.835454 -151.061325 
L 262.026692 -151.061325 
L 262.212264 -151.061325 
L 262.392115 -151.061325 
L 262.566209 -151.061325 
L 262.734524 -151.061325 
L 262.897058 -151.061325 
L 263.053821 -151.061325 
L 263.204841 -151.061325 
L 263.350156 -151.061325 
L 263.489821 -151.061325 
L 263.623898 -151.061325 
L 263.752465 -151.061325 
L 263.875607 -151.061325 
L 263.993419 -151.061325 
L 264.106006 -151.061325 
L 264.213479 -151.061325 
L 264.315955 -151.061325 
L 264.413559 -151.061325 
L 264.506421 -151.061325 
L 264.594674 -151.061325 
L 264.678455 -151.061325 
L 264.757906 -151.061325 
L 264.833167 -151.061325 
L 264.904384 -151.061325 
L 264.971702 -151.061325 
L 265.035266 -151.061325 
L 265.095222 -151.061325 
L 265.151715 -151.061325 
L 265.204889 -151.061325 
L 265.254886 -151.061325 
L 265.301848 -151.061325 
L 265.345911 -151.061325 
L 265.387213 -151.061325 
L 265.425886 -151.061325 
L 265.46206 -151.061325 
L 265.495862 -151.061325 
L 265.527414 -151.061325 
L 265.556837 -151.061325 
L 265.584246 -151.061325 
L 265.609752 -151.061325 
L 265.633465 -151.061325 
L 265.655487 -151.061325 
L 265.675918 -151.061325 
L 265.694855 -151.061325 
L 265.712389 -151.061325 
L 265.728607 -151.061325 
L 265.728607 -171.483143 
L 265.728607 -171.483143 
L 265.712389 -171.277899 
L 265.694855 -171.072654 
L 265.675918 -170.86741 
L 265.655487 -170.662166 
L 265.633465 -170.456921 
L 265.609752 -170.251677 
L 265.584246 -170.046432 
L 265.556837 -169.841188 
L 265.527414 -169.635944 
L 265.495862 -169.430699 
L 265.46206 -169.225455 
L 265.425886 -169.02021 
L 265.387213 -168.814966 
L 265.345911 -168.609722 
L 265.301848 -168.404477 
L 265.254886 -168.199233 
L 265.204889 -167.993988 
L 265.151715 -167.788744 
L 265.095222 -167.5835 
L 265.035266 -167.378255 
L 264.971702 -167.173011 
L 264.904384 -166.967766 
L 264.833167 -166.762522 
L 264.757906 -166.557277 
L 264.678455 -166.352033 
L 264.594674 -166.146789 
L 264.506421 -165.941544 
L 264.413559 -165.7363 
L 264.315955 -165.531055 
L 264.213479 -165.325811 
L 264.106006 -165.120567 
L 263.993419 -164.915322 
L 263.875607 -164.710078 
L 263.752465 -164.504833 
L 263.623898 -164.299589 
L 263.489821 -164.094345 
L 263.350156 -163.8891 
L 263.204841 -163.683856 
L 263.053821 -163.478611 
L 262.897058 -163.273367 
L 262.734524 -163.068123 
L 262.566209 -162.862878 
L 262.392115 -162.657634 
L 262.212264 -162.452389 
L 262.026692 -162.247145 
L 261.835454 -162.041901 
L 261.638622 -161.836656 
L 261.436289 -161.631412 
L 261.228567 -161.426167 
L 261.015587 -161.220923 
L 260.797502 -161.015679 
L 260.574485 -160.810434 
L 260.34673 -160.60519 
L 260.114455 -160.399945 
L 259.877895 -160.194701 
L 259.637312 -159.989457 
L 259.392985 -159.784212 
L 259.145216 -159.578968 
L 258.89433 -159.373723 
L 258.64067 -159.168479 
L 258.3846 -158.963235 
L 258.126504 -158.75799 
L 257.866785 -158.552746 
L 257.605864 -158.347501 
L 257.344179 -158.142257 
L 257.082184 -157.937013 
L 256.820347 -157.731768 
L 256.559153 -157.526524 
L 256.299096 -157.321279 
L 256.040683 -157.116035 
L 255.784427 -156.910791 
L 255.530854 -156.705546 
L 255.280491 -156.500302 
L 255.033872 -156.295057 
L 254.791534 -156.089813 
L 254.554011 -155.884568 
L 254.32184 -155.679324 
L 254.095551 -155.47408 
L 253.875671 -155.268835 
L 253.662719 -155.063591 
L 253.457203 -154.858346 
L 253.259621 -154.653102 
L 253.070457 -154.447858 
L 252.890181 -154.242613 
L 252.719243 -154.037369 
L 252.558076 -153.832124 
L 252.407092 -153.62688 
L 252.266678 -153.421636 
L 252.137199 -153.216391 
L 252.018992 -153.011147 
L 251.912367 -152.805902 
L 251.817607 -152.600658 
L 251.734963 -152.395414 
L 251.664655 -152.190169 
L 251.60687 -151.984925 
L 251.561765 -151.77968 
L 251.529459 -151.574436 
L 251.510041 -151.369192 
L 251.503562 -151.163947 
L 251.510041 -150.958703 
L 251.529459 -150.753458 
L 251.561765 -150.548214 
L 251.60687 -150.34297 
L 251.664655 -150.137725 
L 251.734963 -149.932481 
L 251.817607 -149.727236 
L 251.912367 -149.521992 
L 252.018992 -149.316748 
L 252.137199 -149.111503 
L 252.266678 -148.906259 
L 252.407092 -148.701014 
L 252.558076 -148.49577 
L 252.719243 -148.290526 
L 252.890181 -148.085281 
L 253.070457 -147.880037 
L 253.259621 -147.674792 
L 253.457203 -147.469548 
L 253.662719 -147.264304 
L 253.875671 -147.059059 
L 254.095551 -146.853815 
L 254.32184 -146.64857 
L 254.554011 -146.443326 
L 254.791534 -146.238082 
L 255.033872 -146.032837 
L 255.280491 -145.827593 
L 255.530854 -145.622348 
L 255.784427 -145.417104 
L 256.040683 -145.211859 
L 256.299096 -145.006615 
L 256.559153 -144.801371 
L 256.820347 -144.596126 
L 257.082184 -144.390882 
L 257.344179 -144.185637 
L 257.605864 -143.980393 
L 257.866785 -143.775149 
L 258.126504 -143.569904 
L 258.3846 -143.36466 
L 258.64067 -143.159415 
L 258.89433 -142.954171 
L 259.145216 -142.748927 
L 259.392985 -142.543682 
L 259.637312 -142.338438 
L 259.877895 -142.133193 
L 260.114455 -141.927949 
L 260.34673 -141.722705 
L 260.574485 -141.51746 
L 260.797502 -141.312216 
L 261.015587 -141.106971 
L 261.228567 -140.901727 
L 261.436289 -140.696483 
L 261.638622 -140.491238 
L 261.835454 -140.285994 
L 262.026692 -140.080749 
L 262.212264 -139.875505 
L 262.392115 -139.670261 
L 262.566209 -139.465016 
L 262.734524 -139.259772 
L 262.897058 -139.054527 
L 263.053821 -138.849283 
L 263.204841 -138.644039 
L 263.350156 -138.438794 
L 263.489821 -138.23355 
L 263.623898 -138.028305 
L 263.752465 -137.823061 
L 263.875607 -137.617817 
L 263.993419 -137.412572 
L 264.106006 -137.207328 
L 264.213479 -137.002083 
L 264.315955 -136.796839 
L 264.413559 -136.591595 
L 264.506421 -136.38635 
L 264.594674 -136.181106 
L 264.678455 -135.975861 
L 264.757906 -135.770617 
L 264.833167 -135.565373 
L 264.904384 -135.360128 
L 264.971702 -135.154884 
L 265.035266 -134.949639 
L 265.095222 -134.744395 
L 265.151715 -134.53915 
L 265.204889 -134.333906 
L 265.254886 -134.128662 
L 265.301848 -133.923417 
L 265.345911 -133.718173 
L 265.387213 -133.512928 
L 265.425886 -133.307684 
L 265.46206 -133.10244 
L 265.495862 -132.897195 
L 265.527414 -132.691951 
L 265.556837 -132.486706 
L 265.584246 -132.281462 
L 265.609752 -132.076218 
L 265.633465 -131.870973 
L 265.655487 -131.665729 
L 265.675918 -131.460484 
L 265.694855 -131.25524 
L 265.712389 -131.049996 
L 265.728607 -130.844751 
L 265.743593 -130.639507 
z
" id="m1b8ad8b9ac" style="stroke:#1f77b4;stroke-opacity:0.5;"/>
    </defs>
    <g clip-path="url(#p75164fa1b3)">
     <use style="fill:#1f77b4;fill-opacity:0.5;stroke:#1f77b4;stroke-opacity:0.5;" x="0" xlink:href="#m1b8ad8b9ac" y="188.87938"/>
    </g>
   </g>
   <g id="PolyCollection_20">
    <defs>
     <path d="M 266.063532 -130.639507 
L 266.063532 -151.061325 
L 266.078518 -151.061325 
L 266.094736 -151.061325 
L 266.11227 -151.061325 
L 266.131207 -151.061325 
L 266.151638 -151.061325 
L 266.17366 -151.061325 
L 266.197373 -151.061325 
L 266.222879 -151.061325 
L 266.250288 -151.061325 
L 266.279711 -151.061325 
L 266.311263 -151.061325 
L 266.345065 -151.061325 
L 266.381239 -151.061325 
L 266.419912 -151.061325 
L 266.461214 -151.061325 
L 266.505277 -151.061325 
L 266.552239 -151.061325 
L 266.602236 -151.061325 
L 266.65541 -151.061325 
L 266.711903 -151.061325 
L 266.771859 -151.061325 
L 266.835423 -151.061325 
L 266.902741 -151.061325 
L 266.973958 -151.061325 
L 267.049219 -151.061325 
L 267.12867 -151.061325 
L 267.212451 -151.061325 
L 267.300704 -151.061325 
L 267.393566 -151.061325 
L 267.49117 -151.061325 
L 267.593646 -151.061325 
L 267.701119 -151.061325 
L 267.813706 -151.061325 
L 267.931518 -151.061325 
L 268.05466 -151.061325 
L 268.183227 -151.061325 
L 268.317304 -151.061325 
L 268.456969 -151.061325 
L 268.602284 -151.061325 
L 268.753304 -151.061325 
L 268.910067 -151.061325 
L 269.072601 -151.061325 
L 269.240916 -151.061325 
L 269.41501 -151.061325 
L 269.594861 -151.061325 
L 269.780433 -151.061325 
L 269.971671 -151.061325 
L 270.168503 -151.061325 
L 270.370836 -151.061325 
L 270.578558 -151.061325 
L 270.791538 -151.061325 
L 271.009623 -151.061325 
L 271.23264 -151.061325 
L 271.460395 -151.061325 
L 271.69267 -151.061325 
L 271.92923 -151.061325 
L 272.169813 -151.061325 
L 272.41414 -151.061325 
L 272.661909 -151.061325 
L 272.912795 -151.061325 
L 273.166455 -151.061325 
L 273.422525 -151.061325 
L 273.680621 -151.061325 
L 273.94034 -151.061325 
L 274.201261 -151.061325 
L 274.462946 -151.061325 
L 274.724941 -151.061325 
L 274.986778 -151.061325 
L 275.247972 -151.061325 
L 275.508029 -151.061325 
L 275.766442 -151.061325 
L 276.022698 -151.061325 
L 276.276271 -151.061325 
L 276.526634 -151.061325 
L 276.773253 -151.061325 
L 277.015591 -151.061325 
L 277.253114 -151.061325 
L 277.485285 -151.061325 
L 277.711574 -151.061325 
L 277.931454 -151.061325 
L 278.144406 -151.061325 
L 278.349922 -151.061325 
L 278.547504 -151.061325 
L 278.736668 -151.061325 
L 278.916944 -151.061325 
L 279.087882 -151.061325 
L 279.249049 -151.061325 
L 279.400033 -151.061325 
L 279.540447 -151.061325 
L 279.669926 -151.061325 
L 279.788133 -151.061325 
L 279.894758 -151.061325 
L 279.989518 -151.061325 
L 280.072162 -151.061325 
L 280.14247 -151.061325 
L 280.200255 -151.061325 
L 280.24536 -151.061325 
L 280.277666 -151.061325 
L 280.297084 -151.061325 
L 280.303562 -151.061325 
L 280.297084 -151.061325 
L 280.277666 -151.061325 
L 280.24536 -151.061325 
L 280.200255 -151.061325 
L 280.14247 -151.061325 
L 280.072162 -151.061325 
L 279.989518 -151.061325 
L 279.894758 -151.061325 
L 279.788133 -151.061325 
L 279.669926 -151.061325 
L 279.540447 -151.061325 
L 279.400033 -151.061325 
L 279.249049 -151.061325 
L 279.087882 -151.061325 
L 278.916944 -151.061325 
L 278.736668 -151.061325 
L 278.547504 -151.061325 
L 278.349922 -151.061325 
L 278.144406 -151.061325 
L 277.931454 -151.061325 
L 277.711574 -151.061325 
L 277.485285 -151.061325 
L 277.253114 -151.061325 
L 277.015591 -151.061325 
L 276.773253 -151.061325 
L 276.526634 -151.061325 
L 276.276271 -151.061325 
L 276.022698 -151.061325 
L 275.766442 -151.061325 
L 275.508029 -151.061325 
L 275.247972 -151.061325 
L 274.986778 -151.061325 
L 274.724941 -151.061325 
L 274.462946 -151.061325 
L 274.201261 -151.061325 
L 273.94034 -151.061325 
L 273.680621 -151.061325 
L 273.422525 -151.061325 
L 273.166455 -151.061325 
L 272.912795 -151.061325 
L 272.661909 -151.061325 
L 272.41414 -151.061325 
L 272.169813 -151.061325 
L 271.92923 -151.061325 
L 271.69267 -151.061325 
L 271.460395 -151.061325 
L 271.23264 -151.061325 
L 271.009623 -151.061325 
L 270.791538 -151.061325 
L 270.578558 -151.061325 
L 270.370836 -151.061325 
L 270.168503 -151.061325 
L 269.971671 -151.061325 
L 269.780433 -151.061325 
L 269.594861 -151.061325 
L 269.41501 -151.061325 
L 269.240916 -151.061325 
L 269.072601 -151.061325 
L 268.910067 -151.061325 
L 268.753304 -151.061325 
L 268.602284 -151.061325 
L 268.456969 -151.061325 
L 268.317304 -151.061325 
L 268.183227 -151.061325 
L 268.05466 -151.061325 
L 267.931518 -151.061325 
L 267.813706 -151.061325 
L 267.701119 -151.061325 
L 267.593646 -151.061325 
L 267.49117 -151.061325 
L 267.393566 -151.061325 
L 267.300704 -151.061325 
L 267.212451 -151.061325 
L 267.12867 -151.061325 
L 267.049219 -151.061325 
L 266.973958 -151.061325 
L 266.902741 -151.061325 
L 266.835423 -151.061325 
L 266.771859 -151.061325 
L 266.711903 -151.061325 
L 266.65541 -151.061325 
L 266.602236 -151.061325 
L 266.552239 -151.061325 
L 266.505277 -151.061325 
L 266.461214 -151.061325 
L 266.419912 -151.061325 
L 266.381239 -151.061325 
L 266.345065 -151.061325 
L 266.311263 -151.061325 
L 266.279711 -151.061325 
L 266.250288 -151.061325 
L 266.222879 -151.061325 
L 266.197373 -151.061325 
L 266.17366 -151.061325 
L 266.151638 -151.061325 
L 266.131207 -151.061325 
L 266.11227 -151.061325 
L 266.094736 -151.061325 
L 266.078518 -151.061325 
L 266.078518 -171.483143 
L 266.078518 -171.483143 
L 266.094736 -171.277899 
L 266.11227 -171.072654 
L 266.131207 -170.86741 
L 266.151638 -170.662166 
L 266.17366 -170.456921 
L 266.197373 -170.251677 
L 266.222879 -170.046432 
L 266.250288 -169.841188 
L 266.279711 -169.635944 
L 266.311263 -169.430699 
L 266.345065 -169.225455 
L 266.381239 -169.02021 
L 266.419912 -168.814966 
L 266.461214 -168.609722 
L 266.505277 -168.404477 
L 266.552239 -168.199233 
L 266.602236 -167.993988 
L 266.65541 -167.788744 
L 266.711903 -167.5835 
L 266.771859 -167.378255 
L 266.835423 -167.173011 
L 266.902741 -166.967766 
L 266.973958 -166.762522 
L 267.049219 -166.557277 
L 267.12867 -166.352033 
L 267.212451 -166.146789 
L 267.300704 -165.941544 
L 267.393566 -165.7363 
L 267.49117 -165.531055 
L 267.593646 -165.325811 
L 267.701119 -165.120567 
L 267.813706 -164.915322 
L 267.931518 -164.710078 
L 268.05466 -164.504833 
L 268.183227 -164.299589 
L 268.317304 -164.094345 
L 268.456969 -163.8891 
L 268.602284 -163.683856 
L 268.753304 -163.478611 
L 268.910067 -163.273367 
L 269.072601 -163.068123 
L 269.240916 -162.862878 
L 269.41501 -162.657634 
L 269.594861 -162.452389 
L 269.780433 -162.247145 
L 269.971671 -162.041901 
L 270.168503 -161.836656 
L 270.370836 -161.631412 
L 270.578558 -161.426167 
L 270.791538 -161.220923 
L 271.009623 -161.015679 
L 271.23264 -160.810434 
L 271.460395 -160.60519 
L 271.69267 -160.399945 
L 271.92923 -160.194701 
L 272.169813 -159.989457 
L 272.41414 -159.784212 
L 272.661909 -159.578968 
L 272.912795 -159.373723 
L 273.166455 -159.168479 
L 273.422525 -158.963235 
L 273.680621 -158.75799 
L 273.94034 -158.552746 
L 274.201261 -158.347501 
L 274.462946 -158.142257 
L 274.724941 -157.937013 
L 274.986778 -157.731768 
L 275.247972 -157.526524 
L 275.508029 -157.321279 
L 275.766442 -157.116035 
L 276.022698 -156.910791 
L 276.276271 -156.705546 
L 276.526634 -156.500302 
L 276.773253 -156.295057 
L 277.015591 -156.089813 
L 277.253114 -155.884568 
L 277.485285 -155.679324 
L 277.711574 -155.47408 
L 277.931454 -155.268835 
L 278.144406 -155.063591 
L 278.349922 -154.858346 
L 278.547504 -154.653102 
L 278.736668 -154.447858 
L 278.916944 -154.242613 
L 279.087882 -154.037369 
L 279.249049 -153.832124 
L 279.400033 -153.62688 
L 279.540447 -153.421636 
L 279.669926 -153.216391 
L 279.788133 -153.011147 
L 279.894758 -152.805902 
L 279.989518 -152.600658 
L 280.072162 -152.395414 
L 280.14247 -152.190169 
L 280.200255 -151.984925 
L 280.24536 -151.77968 
L 280.277666 -151.574436 
L 280.297084 -151.369192 
L 280.303562 -151.163947 
L 280.297084 -150.958703 
L 280.277666 -150.753458 
L 280.24536 -150.548214 
L 280.200255 -150.34297 
L 280.14247 -150.137725 
L 280.072162 -149.932481 
L 279.989518 -149.727236 
L 279.894758 -149.521992 
L 279.788133 -149.316748 
L 279.669926 -149.111503 
L 279.540447 -148.906259 
L 279.400033 -148.701014 
L 279.249049 -148.49577 
L 279.087882 -148.290526 
L 278.916944 -148.085281 
L 278.736668 -147.880037 
L 278.547504 -147.674792 
L 278.349922 -147.469548 
L 278.144406 -147.264304 
L 277.931454 -147.059059 
L 277.711574 -146.853815 
L 277.485285 -146.64857 
L 277.253114 -146.443326 
L 277.015591 -146.238082 
L 276.773253 -146.032837 
L 276.526634 -145.827593 
L 276.276271 -145.622348 
L 276.022698 -145.417104 
L 275.766442 -145.211859 
L 275.508029 -145.006615 
L 275.247972 -144.801371 
L 274.986778 -144.596126 
L 274.724941 -144.390882 
L 274.462946 -144.185637 
L 274.201261 -143.980393 
L 273.94034 -143.775149 
L 273.680621 -143.569904 
L 273.422525 -143.36466 
L 273.166455 -143.159415 
L 272.912795 -142.954171 
L 272.661909 -142.748927 
L 272.41414 -142.543682 
L 272.169813 -142.338438 
L 271.92923 -142.133193 
L 271.69267 -141.927949 
L 271.460395 -141.722705 
L 271.23264 -141.51746 
L 271.009623 -141.312216 
L 270.791538 -141.106971 
L 270.578558 -140.901727 
L 270.370836 -140.696483 
L 270.168503 -140.491238 
L 269.971671 -140.285994 
L 269.780433 -140.080749 
L 269.594861 -139.875505 
L 269.41501 -139.670261 
L 269.240916 -139.465016 
L 269.072601 -139.259772 
L 268.910067 -139.054527 
L 268.753304 -138.849283 
L 268.602284 -138.644039 
L 268.456969 -138.438794 
L 268.317304 -138.23355 
L 268.183227 -138.028305 
L 268.05466 -137.823061 
L 267.931518 -137.617817 
L 267.813706 -137.412572 
L 267.701119 -137.207328 
L 267.593646 -137.002083 
L 267.49117 -136.796839 
L 267.393566 -136.591595 
L 267.300704 -136.38635 
L 267.212451 -136.181106 
L 267.12867 -135.975861 
L 267.049219 -135.770617 
L 266.973958 -135.565373 
L 266.902741 -135.360128 
L 266.835423 -135.154884 
L 266.771859 -134.949639 
L 266.711903 -134.744395 
L 266.65541 -134.53915 
L 266.602236 -134.333906 
L 266.552239 -134.128662 
L 266.505277 -133.923417 
L 266.461214 -133.718173 
L 266.419912 -133.512928 
L 266.381239 -133.307684 
L 266.345065 -133.10244 
L 266.311263 -132.897195 
L 266.279711 -132.691951 
L 266.250288 -132.486706 
L 266.222879 -132.281462 
L 266.197373 -132.076218 
L 266.17366 -131.870973 
L 266.151638 -131.665729 
L 266.131207 -131.460484 
L 266.11227 -131.25524 
L 266.094736 -131.049996 
L 266.078518 -130.844751 
L 266.063532 -130.639507 
z
" id="m1018fde123" style="stroke:#ff7f0e;stroke-opacity:0.5;"/>
    </defs>
    <g clip-path="url(#p75164fa1b3)">
     <use style="fill:#ff7f0e;fill-opacity:0.5;stroke:#ff7f0e;stroke-opacity:0.5;" x="0" xlink:href="#m1018fde123" y="188.87938"/>
    </g>
   </g>
   <g id="matplotlib.axis_3">
    <g id="xtick_7"/>
    <g id="xtick_8"/>
    <g id="xtick_9"/>
   </g>
   <g id="matplotlib.axis_4">
    <g id="ytick_7"/>
    <g id="ytick_8"/>
    <g id="ytick_9"/>
   </g>
   <g id="patch_8">
    <path d="M 242.863562 60.282055 
L 242.863562 15.354055 
" style="fill:none;stroke:#000000;stroke-linecap:square;stroke-linejoin:miter;stroke-width:0.8;"/>
   </g>
   <g id="patch_9">
    <path d="M 288.943562 60.282055 
L 288.943562 15.354055 
" style="fill:none;stroke:#000000;stroke-linecap:square;stroke-linejoin:miter;stroke-width:0.8;"/>
   </g>
   <g id="patch_10">
    <path d="M 242.863562 60.282055 
L 288.943562 60.282055 
" style="fill:none;stroke:#000000;stroke-linecap:square;stroke-linejoin:miter;stroke-width:0.8;"/>
   </g>
   <g id="patch_11">
    <path d="M 242.863562 15.354055 
L 288.943562 15.354055 
" style="fill:none;stroke:#000000;stroke-linecap:square;stroke-linejoin:miter;stroke-width:0.8;"/>
   </g>
   <g id="text_15">
    <!-- Sim -->
    <g style="fill:#1f77b4;" transform="translate(244.591562 24.819242)scale(0.1 -0.1)">
     <defs>
      <path d="M 3781 2919 
Q 3994 3244 4286 3414 
Q 4578 3584 4928 3584 
Q 5531 3584 5847 3212 
Q 6163 2841 6163 2131 
L 6163 0 
L 5038 0 
L 5038 1825 
Q 5041 1866 5042 1909 
Q 5044 1953 5044 2034 
Q 5044 2406 4934 2573 
Q 4825 2741 4581 2741 
Q 4263 2741 4089 2478 
Q 3916 2216 3909 1719 
L 3909 0 
L 2784 0 
L 2784 1825 
Q 2784 2406 2684 2573 
Q 2584 2741 2328 2741 
Q 2006 2741 1831 2477 
Q 1656 2213 1656 1722 
L 1656 0 
L 531 0 
L 531 3500 
L 1656 3500 
L 1656 2988 
Q 1863 3284 2130 3434 
Q 2397 3584 2719 3584 
Q 3081 3584 3359 3409 
Q 3638 3234 3781 2919 
z
" id="DejaVuSans-Bold-6d" transform="scale(0.015625)"/>
     </defs>
     <use xlink:href="#DejaVuSans-Bold-53"/>
     <use x="72.021484" xlink:href="#DejaVuSans-Bold-69"/>
     <use x="106.298828" xlink:href="#DejaVuSans-Bold-6d"/>
    </g>
   </g>
   <g id="text_16">
    <!-- Th -->
    <g style="fill:#ff7f0e;" transform="translate(269.935562 24.819242)scale(0.1 -0.1)">
     <defs>
      <path d="M 31 4666 
L 4331 4666 
L 4331 3756 
L 2784 3756 
L 2784 0 
L 1581 0 
L 1581 3756 
L 31 3756 
L 31 4666 
z
" id="DejaVuSans-Bold-54" transform="scale(0.015625)"/>
      <path d="M 4056 2131 
L 4056 0 
L 2931 0 
L 2931 347 
L 2931 1625 
Q 2931 2084 2911 2256 
Q 2891 2428 2841 2509 
Q 2775 2619 2662 2680 
Q 2550 2741 2406 2741 
Q 2056 2741 1856 2470 
Q 1656 2200 1656 1722 
L 1656 0 
L 538 0 
L 538 4863 
L 1656 4863 
L 1656 2988 
Q 1909 3294 2193 3439 
Q 2478 3584 2822 3584 
Q 3428 3584 3742 3212 
Q 4056 2841 4056 2131 
z
" id="DejaVuSans-Bold-68" transform="scale(0.015625)"/>
     </defs>
     <use xlink:href="#DejaVuSans-Bold-54"/>
     <use x="68.212891" xlink:href="#DejaVuSans-Bold-68"/>
    </g>
   </g>
  </g>
 </g>
 <defs>
  <clipPath id="p299225d9e8">
   <rect height="138.24" width="230.4" x="63.151562" y="10.861255"/>
  </clipPath>
  <clipPath id="p75164fa1b3">
   <rect height="44.928" width="46.08" x="242.863562" y="15.354055"/>
  </clipPath>
 </defs>
</svg>
