<?xml version="1.0" encoding="UTF-8" standalone="no"?>
<svg
   width="200.64pt"
   height="148.43625pt"
   viewBox="0 0 200.64 148.43625"
   version="1.1"
   id="svg349"
   sodipodi:docname="FigS5.svg"
   inkscape:version="1.1 (c4e8f9e, 2021-05-24)"
   xmlns:inkscape="http://www.inkscape.org/namespaces/inkscape"
   xmlns:sodipodi="http://sodipodi.sourceforge.net/DTD/sodipodi-0.dtd"
   xmlns:xlink="http://www.w3.org/1999/xlink"
   xmlns="http://www.w3.org/2000/svg"
   xmlns:svg="http://www.w3.org/2000/svg"
   xmlns:rdf="http://www.w3.org/1999/02/22-rdf-syntax-ns#"
   xmlns:cc="http://creativecommons.org/ns#"
   xmlns:dc="http://purl.org/dc/elements/1.1/">
  <sodipodi:namedview
     id="namedview351"
     pagecolor="#ffffff"
     bordercolor="#666666"
     borderopacity="1.0"
     inkscape:pageshadow="2"
     inkscape:pageopacity="0.0"
     inkscape:pagecheckerboard="0"
     inkscape:document-units="pt"
     showgrid="false"
     inkscape:zoom="2.8042342"
     inkscape:cx="133.72635"
     inkscape:cy="98.957499"
     inkscape:window-width="1313"
     inkscape:window-height="777"
     inkscape:window-x="0"
     inkscape:window-y="25"
     inkscape:window-maximized="0"
     inkscape:current-layer="axes_1" />
  <metadata
     id="metadata9">
    <rdf:RDF>
      <cc:Work>
        <dc:type
           rdf:resource="http://purl.org/dc/dcmitype/StillImage" />
        <dc:date>2023-03-15T14:45:16.496629</dc:date>
        <dc:format>image/svg+xml</dc:format>
        <dc:creator>
          <cc:Agent>
            <dc:title>Matplotlib v3.6.3, https://matplotlib.org/</dc:title>
          </cc:Agent>
        </dc:creator>
      </cc:Work>
    </rdf:RDF>
  </metadata>
  <defs
     id="defs13">
    <style
       type="text/css"
       id="style11">*{stroke-linejoin: round; stroke-linecap: butt}</style>
  </defs>
  <g
     id="figure_1">
    <g
       id="patch_1">
      <path
         d="M 0 148.43625  L 200.64 148.43625  L 200.64 0  L 0 0  z "
         style="fill: #ffffff"
         id="path15" />
    </g>
    <g
       id="axes_1">
      <g
         id="patch_2">
        <path
           d="M 55.2 110.88  L 193.44 110.88  L 193.44 7.2  L 55.2 7.2  z "
           style="fill: #ffffff"
           id="path18" />
      </g>
      <g
         id="matplotlib.axis_1">
        <g
           id="xtick_1">
          <g
             id="line2d_1">
            <defs
               id="defs22">
              <path
                 id="m3f6401bd53"
                 d="M 0 0  L 0 3.5  "
                 style="stroke: #000000; stroke-width: 0.8" />
            </defs>
            <g
               id="g26">
              <use
                 xlink:href="#m3f6401bd53"
                 x="148.990236"
                 y="110.88"
                 style="stroke: #000000; stroke-width: 0.8"
                 id="use24" />
            </g>
          </g>
          <g
             id="text_1">
            <!-- 1/1000 -->
            <g
               transform="translate(129.769143 125.478437) scale(0.1 -0.1)"
               id="g46">
              <defs
                 id="defs32">
                <path
                   id="DejaVuSans-Bold-31"
                   d="M 750 831  L 1813 831  L 1813 3847  L 722 3622  L 722 4441  L 1806 4666  L 2950 4666  L 2950 831  L 4013 831  L 4013 0  L 750 0  L 750 831  z "
                   transform="scale(0.015625)" />
                <path
                   id="DejaVuSans-Bold-2f"
                   d="M 1644 4666  L 2338 4666  L 691 -594  L 0 -594  L 1644 4666  z "
                   transform="scale(0.015625)" />
                <path
                   id="DejaVuSans-Bold-30"
                   d="M 2944 2338  Q 2944 3213 2780 3570  Q 2616 3928 2228 3928  Q 1841 3928 1675 3570  Q 1509 3213 1509 2338  Q 1509 1453 1675 1090  Q 1841 728 2228 728  Q 2613 728 2778 1090  Q 2944 1453 2944 2338  z M 4147 2328  Q 4147 1169 3647 539  Q 3147 -91 2228 -91  Q 1306 -91 806 539  Q 306 1169 306 2328  Q 306 3491 806 4120  Q 1306 4750 2228 4750  Q 3147 4750 3647 4120  Q 4147 3491 4147 2328  z "
                   transform="scale(0.015625)" />
              </defs>
              <use
                 xlink:href="#DejaVuSans-Bold-31"
                 id="use34" />
              <use
                 xlink:href="#DejaVuSans-Bold-2f"
                 x="69.580078"
                 id="use36" />
              <use
                 xlink:href="#DejaVuSans-Bold-31"
                 x="106.103516"
                 id="use38" />
              <use
                 xlink:href="#DejaVuSans-Bold-30"
                 x="175.683594"
                 id="use40" />
              <use
                 xlink:href="#DejaVuSans-Bold-30"
                 x="245.263672"
                 id="use42" />
              <use
                 xlink:href="#DejaVuSans-Bold-30"
                 x="314.84375"
                 id="use44" />
            </g>
          </g>
        </g>
        <g
           id="xtick_2">
          <g
             id="line2d_2">
            <g
               id="g52">
              <use
                 xlink:href="#m3f6401bd53"
                 x="60.371233"
                 y="110.88"
                 style="stroke: #000000; stroke-width: 0.8"
                 id="use50" />
            </g>
          </g>
          <g
             id="text_2">
            <!-- 1/5000 -->
            <g
               transform="translate(41.150139 125.478437) scale(0.1 -0.1)"
               id="g70">
              <defs
                 id="defs56">
                <path
                   id="DejaVuSans-Bold-35"
                   d="M 678 4666  L 3669 4666  L 3669 3781  L 1638 3781  L 1638 3059  Q 1775 3097 1914 3117  Q 2053 3138 2203 3138  Q 3056 3138 3531 2711  Q 4006 2284 4006 1522  Q 4006 766 3489 337  Q 2972 -91 2053 -91  Q 1656 -91 1267 -14  Q 878 63 494 219  L 494 1166  Q 875 947 1217 837  Q 1559 728 1863 728  Q 2300 728 2551 942  Q 2803 1156 2803 1522  Q 2803 1891 2551 2103  Q 2300 2316 1863 2316  Q 1603 2316 1309 2248  Q 1016 2181 678 2041  L 678 4666  z "
                   transform="scale(0.015625)" />
              </defs>
              <use
                 xlink:href="#DejaVuSans-Bold-31"
                 id="use58" />
              <use
                 xlink:href="#DejaVuSans-Bold-2f"
                 x="69.580078"
                 id="use60" />
              <use
                 xlink:href="#DejaVuSans-Bold-35"
                 x="106.103516"
                 id="use62" />
              <use
                 xlink:href="#DejaVuSans-Bold-30"
                 x="175.683594"
                 id="use64" />
              <use
                 xlink:href="#DejaVuSans-Bold-30"
                 x="245.263672"
                 id="use66" />
              <use
                 xlink:href="#DejaVuSans-Bold-30"
                 x="314.84375"
                 id="use68" />
            </g>
          </g>
        </g>
        <g
           id="xtick_3">
          <g
             id="line2d_3">
            <defs
               id="defs75">
              <path
                 id="mf018f032f5"
                 d="M 0 0  L 0 2  "
                 style="stroke: #000000; stroke-width: 0.6" />
            </defs>
            <g
               id="g79">
              <use
                 xlink:href="#mf018f032f5"
                 x="82.696986"
                 y="110.88"
                 style="stroke: #000000; stroke-width: 0.6"
                 id="use77" />
            </g>
          </g>
        </g>
        <g
           id="xtick_4">
          <g
             id="line2d_4">
            <g
               id="g85">
              <use
                 xlink:href="#mf018f032f5"
                 x="98.53736"
                 y="110.88"
                 style="stroke: #000000; stroke-width: 0.6"
                 id="use83" />
            </g>
          </g>
        </g>
        <g
           id="xtick_5">
          <g
             id="line2d_5">
            <g
               id="g91">
              <use
                 xlink:href="#mf018f032f5"
                 x="110.824109"
                 y="110.88"
                 style="stroke: #000000; stroke-width: 0.6"
                 id="use89" />
            </g>
          </g>
        </g>
        <g
           id="xtick_6">
          <g
             id="line2d_6">
            <g
               id="g97">
              <use
                 xlink:href="#mf018f032f5"
                 x="120.863114"
                 y="110.88"
                 style="stroke: #000000; stroke-width: 0.6"
                 id="use95" />
            </g>
          </g>
        </g>
        <g
           id="xtick_7">
          <g
             id="line2d_7">
            <g
               id="g103">
              <use
                 xlink:href="#mf018f032f5"
                 x="129.350971"
                 y="110.88"
                 style="stroke: #000000; stroke-width: 0.6"
                 id="use101" />
            </g>
          </g>
        </g>
        <g
           id="xtick_8">
          <g
             id="line2d_8">
            <g
               id="g109">
              <use
                 xlink:href="#mf018f032f5"
                 x="136.703488"
                 y="110.88"
                 style="stroke: #000000; stroke-width: 0.6"
                 id="use107" />
            </g>
          </g>
        </g>
        <g
           id="xtick_9">
          <g
             id="line2d_9">
            <g
               id="g115">
              <use
                 xlink:href="#mf018f032f5"
                 x="143.188867"
                 y="110.88"
                 style="stroke: #000000; stroke-width: 0.6"
                 id="use113" />
            </g>
          </g>
        </g>
        <g
           id="xtick_10">
          <g
             id="line2d_10">
            <g
               id="g121">
              <use
                 xlink:href="#mf018f032f5"
                 x="187.156364"
                 y="110.88"
                 style="stroke: #000000; stroke-width: 0.6"
                 id="use119" />
            </g>
          </g>
        </g>
        <g
           id="text_3">
          <!-- Newborn collective size $1/N_0$ -->
          <g
             transform="translate(43.87 139.156562) scale(0.1 -0.1)"
             id="g199">
            <defs
               id="defs141">
              <path
                 id="DejaVuSans-Bold-4e"
                 d="M 588 4666  L 1931 4666  L 3628 1466  L 3628 4666  L 4769 4666  L 4769 0  L 3425 0  L 1728 3200  L 1728 0  L 588 0  L 588 4666  z "
                 transform="scale(0.015625)" />
              <path
                 id="DejaVuSans-Bold-65"
                 d="M 4031 1759  L 4031 1441  L 1416 1441  Q 1456 1047 1700 850  Q 1944 653 2381 653  Q 2734 653 3104 758  Q 3475 863 3866 1075  L 3866 213  Q 3469 63 3072 -14  Q 2675 -91 2278 -91  Q 1328 -91 801 392  Q 275 875 275 1747  Q 275 2603 792 3093  Q 1309 3584 2216 3584  Q 3041 3584 3536 3087  Q 4031 2591 4031 1759  z M 2881 2131  Q 2881 2450 2695 2645  Q 2509 2841 2209 2841  Q 1884 2841 1681 2658  Q 1478 2475 1428 2131  L 2881 2131  z "
                 transform="scale(0.015625)" />
              <path
                 id="DejaVuSans-Bold-77"
                 d="M 225 3500  L 1313 3500  L 1900 1088  L 2491 3500  L 3425 3500  L 4013 1113  L 4603 3500  L 5691 3500  L 4769 0  L 3547 0  L 2956 2406  L 2369 0  L 1147 0  L 225 3500  z "
                 transform="scale(0.015625)" />
              <path
                 id="DejaVuSans-Bold-62"
                 d="M 2400 722  Q 2759 722 2948 984  Q 3138 1247 3138 1747  Q 3138 2247 2948 2509  Q 2759 2772 2400 2772  Q 2041 2772 1848 2508  Q 1656 2244 1656 1747  Q 1656 1250 1848 986  Q 2041 722 2400 722  z M 1656 2988  Q 1888 3294 2169 3439  Q 2450 3584 2816 3584  Q 3463 3584 3878 3070  Q 4294 2556 4294 1747  Q 4294 938 3878 423  Q 3463 -91 2816 -91  Q 2450 -91 2169 54  Q 1888 200 1656 506  L 1656 0  L 538 0  L 538 4863  L 1656 4863  L 1656 2988  z "
                 transform="scale(0.015625)" />
              <path
                 id="DejaVuSans-Bold-6f"
                 d="M 2203 2784  Q 1831 2784 1636 2517  Q 1441 2250 1441 1747  Q 1441 1244 1636 976  Q 1831 709 2203 709  Q 2569 709 2762 976  Q 2956 1244 2956 1747  Q 2956 2250 2762 2517  Q 2569 2784 2203 2784  z M 2203 3584  Q 3106 3584 3614 3096  Q 4122 2609 4122 1747  Q 4122 884 3614 396  Q 3106 -91 2203 -91  Q 1297 -91 786 396  Q 275 884 275 1747  Q 275 2609 786 3096  Q 1297 3584 2203 3584  z "
                 transform="scale(0.015625)" />
              <path
                 id="DejaVuSans-Bold-72"
                 d="M 3138 2547  Q 2991 2616 2845 2648  Q 2700 2681 2553 2681  Q 2122 2681 1889 2404  Q 1656 2128 1656 1613  L 1656 0  L 538 0  L 538 3500  L 1656 3500  L 1656 2925  Q 1872 3269 2151 3426  Q 2431 3584 2822 3584  Q 2878 3584 2943 3579  Q 3009 3575 3134 3559  L 3138 2547  z "
                 transform="scale(0.015625)" />
              <path
                 id="DejaVuSans-Bold-6e"
                 d="M 4056 2131  L 4056 0  L 2931 0  L 2931 347  L 2931 1631  Q 2931 2084 2911 2256  Q 2891 2428 2841 2509  Q 2775 2619 2662 2680  Q 2550 2741 2406 2741  Q 2056 2741 1856 2470  Q 1656 2200 1656 1722  L 1656 0  L 538 0  L 538 3500  L 1656 3500  L 1656 2988  Q 1909 3294 2193 3439  Q 2478 3584 2822 3584  Q 3428 3584 3742 3212  Q 4056 2841 4056 2131  z "
                 transform="scale(0.015625)" />
              <path
                 id="DejaVuSans-Bold-20"
                 transform="scale(0.015625)" />
              <path
                 id="DejaVuSans-Bold-63"
                 d="M 3366 3391  L 3366 2478  Q 3138 2634 2908 2709  Q 2678 2784 2431 2784  Q 1963 2784 1702 2511  Q 1441 2238 1441 1747  Q 1441 1256 1702 982  Q 1963 709 2431 709  Q 2694 709 2930 787  Q 3166 866 3366 1019  L 3366 103  Q 3103 6 2833 -42  Q 2563 -91 2291 -91  Q 1344 -91 809 395  Q 275 881 275 1747  Q 275 2613 809 3098  Q 1344 3584 2291 3584  Q 2566 3584 2833 3536  Q 3100 3488 3366 3391  z "
                 transform="scale(0.015625)" />
              <path
                 id="DejaVuSans-Bold-6c"
                 d="M 538 4863  L 1656 4863  L 1656 0  L 538 0  L 538 4863  z "
                 transform="scale(0.015625)" />
              <path
                 id="DejaVuSans-Bold-74"
                 d="M 1759 4494  L 1759 3500  L 2913 3500  L 2913 2700  L 1759 2700  L 1759 1216  Q 1759 972 1856 886  Q 1953 800 2241 800  L 2816 800  L 2816 0  L 1856 0  Q 1194 0 917 276  Q 641 553 641 1216  L 641 2700  L 84 2700  L 84 3500  L 641 3500  L 641 4494  L 1759 4494  z "
                 transform="scale(0.015625)" />
              <path
                 id="DejaVuSans-Bold-69"
                 d="M 538 3500  L 1656 3500  L 1656 0  L 538 0  L 538 3500  z M 538 4863  L 1656 4863  L 1656 3950  L 538 3950  L 538 4863  z "
                 transform="scale(0.015625)" />
              <path
                 id="DejaVuSans-Bold-76"
                 d="M 97 3500  L 1216 3500  L 2088 1081  L 2956 3500  L 4078 3500  L 2700 0  L 1472 0  L 97 3500  z "
                 transform="scale(0.015625)" />
              <path
                 id="DejaVuSans-Bold-73"
                 d="M 3272 3391  L 3272 2541  Q 2913 2691 2578 2766  Q 2244 2841 1947 2841  Q 1628 2841 1473 2761  Q 1319 2681 1319 2516  Q 1319 2381 1436 2309  Q 1553 2238 1856 2203  L 2053 2175  Q 2913 2066 3209 1816  Q 3506 1566 3506 1031  Q 3506 472 3093 190  Q 2681 -91 1863 -91  Q 1516 -91 1145 -36  Q 775 19 384 128  L 384 978  Q 719 816 1070 734  Q 1422 653 1784 653  Q 2113 653 2278 743  Q 2444 834 2444 1013  Q 2444 1163 2330 1236  Q 2216 1309 1875 1350  L 1678 1375  Q 931 1469 631 1722  Q 331 1975 331 2491  Q 331 3047 712 3315  Q 1094 3584 1881 3584  Q 2191 3584 2531 3537  Q 2872 3491 3272 3391  z "
                 transform="scale(0.015625)" />
              <path
                 id="DejaVuSans-Bold-7a"
                 d="M 366 3500  L 3419 3500  L 3419 2719  L 1575 800  L 3419 800  L 3419 0  L 288 0  L 288 781  L 2131 2700  L 366 2700  L 366 3500  z "
                 transform="scale(0.015625)" />
              <path
                 id="DejaVuSans-BoldOblique-4e"
                 d="M 1044 4666  L 2388 4666  L 3456 1434  L 4084 4666  L 5222 4666  L 4313 0  L 2969 0  L 1900 3231  L 1275 0  L 134 0  L 1044 4666  z "
                 transform="scale(0.015625)" />
            </defs>
            <use
               xlink:href="#DejaVuSans-Bold-4e"
               transform="translate(0 0.015625)"
               id="use143" />
            <use
               xlink:href="#DejaVuSans-Bold-65"
               transform="translate(83.691406 0.015625)"
               id="use145" />
            <use
               xlink:href="#DejaVuSans-Bold-77"
               transform="translate(151.513672 0.015625)"
               id="use147" />
            <use
               xlink:href="#DejaVuSans-Bold-62"
               transform="translate(243.896484 0.015625)"
               id="use149" />
            <use
               xlink:href="#DejaVuSans-Bold-6f"
               transform="translate(315.478516 0.015625)"
               id="use151" />
            <use
               xlink:href="#DejaVuSans-Bold-72"
               transform="translate(384.179688 0.015625)"
               id="use153" />
            <use
               xlink:href="#DejaVuSans-Bold-6e"
               transform="translate(433.496094 0.015625)"
               id="use155" />
            <use
               xlink:href="#DejaVuSans-Bold-20"
               transform="translate(504.6875 0.015625)"
               id="use157" />
            <use
               xlink:href="#DejaVuSans-Bold-63"
               transform="translate(539.501953 0.015625)"
               id="use159" />
            <use
               xlink:href="#DejaVuSans-Bold-6f"
               transform="translate(598.779297 0.015625)"
               id="use161" />
            <use
               xlink:href="#DejaVuSans-Bold-6c"
               transform="translate(667.480469 0.015625)"
               id="use163" />
            <use
               xlink:href="#DejaVuSans-Bold-6c"
               transform="translate(701.757812 0.015625)"
               id="use165" />
            <use
               xlink:href="#DejaVuSans-Bold-65"
               transform="translate(736.035156 0.015625)"
               id="use167" />
            <use
               xlink:href="#DejaVuSans-Bold-63"
               transform="translate(803.857422 0.015625)"
               id="use169" />
            <use
               xlink:href="#DejaVuSans-Bold-74"
               transform="translate(863.134766 0.015625)"
               id="use171" />
            <use
               xlink:href="#DejaVuSans-Bold-69"
               transform="translate(910.9375 0.015625)"
               id="use173" />
            <use
               xlink:href="#DejaVuSans-Bold-76"
               transform="translate(945.214844 0.015625)"
               id="use175" />
            <use
               xlink:href="#DejaVuSans-Bold-65"
               transform="translate(1010.400391 0.015625)"
               id="use177" />
            <use
               xlink:href="#DejaVuSans-Bold-20"
               transform="translate(1078.222656 0.015625)"
               id="use179" />
            <use
               xlink:href="#DejaVuSans-Bold-73"
               transform="translate(1113.037109 0.015625)"
               id="use181" />
            <use
               xlink:href="#DejaVuSans-Bold-69"
               transform="translate(1172.558594 0.015625)"
               id="use183" />
            <use
               xlink:href="#DejaVuSans-Bold-7a"
               transform="translate(1206.835938 0.015625)"
               id="use185" />
            <use
               xlink:href="#DejaVuSans-Bold-65"
               transform="translate(1265.039062 0.015625)"
               id="use187" />
            <use
               xlink:href="#DejaVuSans-Bold-20"
               transform="translate(1332.861328 0.015625)"
               id="use189" />
            <use
               xlink:href="#DejaVuSans-Bold-31"
               transform="translate(1367.675781 0.015625)"
               id="use191" />
            <use
               xlink:href="#DejaVuSans-Bold-2f"
               transform="translate(1437.255859 0.015625)"
               id="use193" />
            <use
               xlink:href="#DejaVuSans-BoldOblique-4e"
               transform="translate(1473.779297 0.015625)"
               id="use195" />
            <use
               xlink:href="#DejaVuSans-Bold-30"
               transform="translate(1557.470703 -16.390625) scale(0.7)"
               id="use197" />
          </g>
        </g>
      </g>
      <g
         id="matplotlib.axis_2">
        <g
           id="ytick_1">
          <g
             id="line2d_11">
            <defs
               id="defs204">
              <path
                 id="m5194ee7638"
                 d="M 0 0  L -3.5 0  "
                 style="stroke: #000000; stroke-width: 0.8" />
            </defs>
            <g
               id="g208">
              <use
                 xlink:href="#m5194ee7638"
                 x="55.2"
                 y="68.161849"
                 style="stroke: #000000; stroke-width: 0.8"
                 id="use206" />
            </g>
          </g>
          <g
             id="text_4">
            <!-- $\mathdefault{10^{-4}}$ -->
            <g
               transform="translate(23.1 71.961068) scale(0.1 -0.1)"
               id="g223">
              <defs
                 id="defs213">
                <path
                   id="DejaVuSans-Bold-2212"
                   d="M 678 2375  L 4684 2375  L 4684 1638  L 678 1638  L 678 2375  z "
                   transform="scale(0.015625)" />
                <path
                   id="DejaVuSans-Bold-34"
                   d="M 2356 3675  L 1038 1722  L 2356 1722  L 2356 3675  z M 2156 4666  L 3494 4666  L 3494 1722  L 4159 1722  L 4159 850  L 3494 850  L 3494 0  L 2356 0  L 2356 850  L 288 850  L 288 1881  L 2156 4666  z "
                   transform="scale(0.015625)" />
              </defs>
              <use
                 xlink:href="#DejaVuSans-Bold-31"
                 transform="translate(0 0.684375)"
                 id="use215" />
              <use
                 xlink:href="#DejaVuSans-Bold-30"
                 transform="translate(69.580078 0.684375)"
                 id="use217" />
              <use
                 xlink:href="#DejaVuSans-Bold-2212"
                 transform="translate(140.117188 38.965625) scale(0.7)"
                 id="use219" />
              <use
                 xlink:href="#DejaVuSans-Bold-34"
                 transform="translate(198.769531 38.965625) scale(0.7)"
                 id="use221" />
            </g>
          </g>
        </g>
        <g
           id="ytick_2">
          <g
             id="line2d_12">
            <defs
               id="defs228">
              <path
                 id="m05d44d3df8"
                 d="M 0 0  L -2 0  "
                 style="stroke: #000000; stroke-width: 0.6" />
            </defs>
            <g
               id="g232">
              <use
                 xlink:href="#m05d44d3df8"
                 x="55.2"
                 y="106.001506"
                 style="stroke: #000000; stroke-width: 0.6"
                 id="use230" />
            </g>
          </g>
        </g>
        <g
           id="ytick_3">
          <g
             id="line2d_13">
            <g
               id="g238">
              <use
                 xlink:href="#m05d44d3df8"
                 x="55.2"
                 y="96.786445"
                 style="stroke: #000000; stroke-width: 0.6"
                 id="use236" />
            </g>
          </g>
        </g>
        <g
           id="ytick_4">
          <g
             id="line2d_14">
            <g
               id="g244">
              <use
                 xlink:href="#m05d44d3df8"
                 x="55.2"
                 y="89.257191"
                 style="stroke: #000000; stroke-width: 0.6"
                 id="use242" />
            </g>
          </g>
        </g>
        <g
           id="ytick_5">
          <g
             id="line2d_15">
            <g
               id="g250">
              <use
                 xlink:href="#m05d44d3df8"
                 x="55.2"
                 y="82.891298"
                 style="stroke: #000000; stroke-width: 0.6"
                 id="use248" />
            </g>
          </g>
        </g>
        <g
           id="ytick_6">
          <g
             id="line2d_16">
            <g
               id="g256">
              <use
                 xlink:href="#m05d44d3df8"
                 x="55.2"
                 y="77.376911"
                 style="stroke: #000000; stroke-width: 0.6"
                 id="use254" />
            </g>
          </g>
        </g>
        <g
           id="ytick_7">
          <g
             id="line2d_17">
            <g
               id="g262">
              <use
                 xlink:href="#m05d44d3df8"
                 x="55.2"
                 y="72.512876"
                 style="stroke: #000000; stroke-width: 0.6"
                 id="use260" />
            </g>
          </g>
        </g>
        <g
           id="ytick_8">
          <g
             id="line2d_18">
            <g
               id="g268">
              <use
                 xlink:href="#m05d44d3df8"
                 x="55.2"
                 y="39.537254"
                 style="stroke: #000000; stroke-width: 0.6"
                 id="use266" />
            </g>
          </g>
        </g>
        <g
           id="ytick_9">
          <g
             id="line2d_19">
            <g
               id="g274">
              <use
                 xlink:href="#m05d44d3df8"
                 x="55.2"
                 y="22.792939"
                 style="stroke: #000000; stroke-width: 0.6"
                 id="use272" />
            </g>
          </g>
        </g>
        <g
           id="ytick_10">
          <g
             id="line2d_20">
            <g
               id="g280">
              <use
                 xlink:href="#m05d44d3df8"
                 x="55.2"
                 y="10.912659"
                 style="stroke: #000000; stroke-width: 0.6"
                 id="use278" />
            </g>
          </g>
        </g>
        <g
           id="text_5">
          <!-- $\sigma_f^2(\tau)$ -->
          <g
             transform="translate(16.3 73.54) rotate(-90) scale(0.1 -0.1)"
             id="g304">
            <defs
               id="defs290">
              <path
                 id="DejaVuSans-BoldOblique-3c3"
                 d="M 3003 2119  Q 3003 2784 2409 2784  Q 2041 2784 1794 2519  Q 1547 2250 1450 1747  Q 1409 1544 1409 1378  Q 1409 709 2006 709  Q 2375 709 2622 975  Q 2866 1244 2966 1747  Q 3003 1953 3003 2119  z M 4844 2700  L 4109 2700  Q 4178 2478 4178 2234  Q 4178 1994 4131 1747  Q 3963 884 3359 396  Q 2756 -91 1853 -91  Q 947 -91 531 397  Q 234 744 234 1281  Q 234 1500 284 1747  Q 450 2609 1056 3097  Q 1556 3500 2553 3500  L 5000 3500  L 4844 2700  z "
                 transform="scale(0.015625)" />
              <path
                 id="DejaVuSans-Bold-32"
                 d="M 1844 884  L 3897 884  L 3897 0  L 506 0  L 506 884  L 2209 2388  Q 2438 2594 2547 2791  Q 2656 2988 2656 3200  Q 2656 3528 2436 3728  Q 2216 3928 1850 3928  Q 1569 3928 1234 3808  Q 900 3688 519 3450  L 519 4475  Q 925 4609 1322 4679  Q 1719 4750 2100 4750  Q 2938 4750 3402 4381  Q 3866 4013 3866 3353  Q 3866 2972 3669 2642  Q 3472 2313 2841 1759  L 1844 884  z "
                 transform="scale(0.015625)" />
              <path
                 id="DejaVuSans-BoldOblique-66"
                 d="M 3456 4863  L 3309 4128  L 2694 4128  Q 2459 4128 2351 4042  Q 2244 3956 2203 3747  L 2150 3500  L 3097 3500  L 2944 2700  L 1997 2700  L 1472 0  L 347 0  L 872 2700  L 319 2700  L 475 3500  L 1025 3500  L 1075 3744  Q 1191 4325 1556 4594  Q 1922 4863 2597 4863  L 3456 4863  z "
                 transform="scale(0.015625)" />
              <path
                 id="DejaVuSans-Bold-28"
                 d="M 2413 -844  L 1484 -844  Q 1006 -72 778 623  Q 550 1319 550 2003  Q 550 2688 779 3389  Q 1009 4091 1484 4856  L 2413 4856  Q 2013 4116 1813 3408  Q 1613 2700 1613 2009  Q 1613 1319 1811 609  Q 2009 -100 2413 -844  z "
                 transform="scale(0.015625)" />
              <path
                 id="DejaVuSans-BoldOblique-3c4"
                 d="M 331 2700  L 488 3500  L 4269 3500  L 4113 2700  L 2781 2700  L 2475 1131  Q 2431 900 2431 787  Q 2431 675 2456 631  Q 2513 531 2688 531  Q 2866 531 2969 544  L 2853 -44  Q 2647 -122 1981 -122  Q 1772 -122 1581 -63  Q 1238 47 1238 388  Q 1238 519 1278 728  L 1663 2700  L 331 2700  z "
                 transform="scale(0.015625)" />
              <path
                 id="DejaVuSans-Bold-29"
                 d="M 513 -844  Q 913 -100 1113 609  Q 1313 1319 1313 2009  Q 1313 2700 1113 3408  Q 913 4116 513 4856  L 1441 4856  Q 1916 4091 2145 3389  Q 2375 2688 2375 2003  Q 2375 1319 2147 623  Q 1919 -72 1441 -844  L 513 -844  z "
                 transform="scale(0.015625)" />
            </defs>
            <use
               xlink:href="#DejaVuSans-BoldOblique-3c3"
               transform="translate(0 0.701562)"
               id="use292" />
            <use
               xlink:href="#DejaVuSans-Bold-32"
               transform="translate(82.347005 39.046875) scale(0.7)"
               id="use294" />
            <use
               xlink:href="#DejaVuSans-BoldOblique-66"
               transform="translate(77.880859 -26.642188) scale(0.7)"
               id="use296" />
            <use
               xlink:href="#DejaVuSans-Bold-28"
               transform="translate(133.787435 0.701562)"
               id="use298" />
            <use
               xlink:href="#DejaVuSans-BoldOblique-3c4"
               transform="translate(179.49056 0.701562)"
               id="use300" />
            <use
               xlink:href="#DejaVuSans-Bold-29"
               transform="translate(243.308919 0.701562)"
               id="use302" />
          </g>
        </g>
      </g>
      <g
         id="line2d_21">
        <path
           d="M 61.483636 106.167273  L 62.618977 105.315767  L 63.778222 104.446334  L 64.962398 103.558201  L 66.172603 102.650548  L 67.410005 101.722496  L 68.675856 100.773108  L 69.971494 99.80138  L 71.298355 98.806234  L 72.657982 97.786514  L 74.052033 96.740975  L 75.482297 95.668277  L 76.950707 94.56697  L 78.459351 93.435487  L 80.010498 92.272126  L 81.606613 91.075041  L 83.250379 89.842216  L 84.944731 88.571452  L 86.69288 87.26034  L 88.498356 85.906233  L 90.365046 84.506216  L 92.297247 83.057065  L 94.299725 81.555206  L 96.377786 79.99666  L 98.53736 78.37698  L 100.785105 76.691172  L 103.128526 74.933606  L 105.576132 73.097901  L 108.137621 71.176784  L 110.824109 69.161918  L 113.648425 67.043681  L 116.625479 64.810891  L 119.77274 62.450445  L 123.110858 59.946857  L 126.664483 57.281638  L 130.463374 54.432469  L 134.543914 51.372065  L 138.951232 48.066576  L 143.742259 44.473305  L 148.990236 40.537323  L 154.791606 36.186296  L 161.276985 31.322261  L 168.629502 25.807874  L 177.117359 19.441981  L 187.156364 11.912727  "
           clip-path="url(#p1e0ebcacc0)"
           style="fill: none; stroke: #1f77b4; stroke-width: 1.5; stroke-linecap: square"
           id="path308" />
      </g>
      <g
         id="line2d_22"
         transform="translate(-18.454236,-12.035372)">
        <path
           d="M 187.15636,48.752315 148.99024,77.376911"
           clip-path="url(#p1e0ebcacc0)"
           style="fill:none;stroke:#000000;stroke-width:1.5;stroke-dasharray:1.5, 2.475;stroke-dashoffset:0"
           id="path311" />
      </g>
      <g
         id="patch_3">
        <path
           d="M 55.2 110.88  L 55.2 7.2  "
           style="fill: none; stroke: #000000; stroke-width: 0.8; stroke-linejoin: miter; stroke-linecap: square"
           id="path314" />
      </g>
      <g
         id="patch_4">
        <path
           d="M 193.44 110.88  L 193.44 7.2  "
           style="fill: none; stroke: #000000; stroke-width: 0.8; stroke-linejoin: miter; stroke-linecap: square"
           id="path317" />
      </g>
      <g
         id="patch_5">
        <path
           d="M 55.2 110.88  L 193.44 110.88  "
           style="fill: none; stroke: #000000; stroke-width: 0.8; stroke-linejoin: miter; stroke-linecap: square"
           id="path320" />
      </g>
      <g
         id="patch_6">
        <path
           d="M 55.2 7.2  L 193.44 7.2  "
           style="fill: none; stroke: #000000; stroke-width: 0.8; stroke-linejoin: miter; stroke-linecap: square"
           id="path323" />
      </g>
      <g
         id="text_6">
        <!-- $\sim 1/N_0$ -->
        <g
           transform="translate(148.990236 60.632596) scale(0.1 -0.1)"
           id="g339">
          <defs
             id="defs327">
            <path
               id="DejaVuSans-Bold-223c"
               d="M 4684 2656  L 4684 1894  Q 4353 1644 4073 1536  Q 3794 1428 3494 1428  Q 3159 1428 2713 1609  Q 2669 1628 2644 1638  Q 2622 1647 2575 1666  Q 2091 1856 1797 1856  Q 1522 1856 1253 1736  Q 984 1616 678 1356  L 678 2119  Q 1006 2363 1286 2470  Q 1566 2578 1869 2578  Q 2213 2578 2672 2394  Q 2703 2381 2719 2375  Q 2744 2366 2788 2347  Q 3272 2156 3566 2156  Q 3834 2156 4098 2273  Q 4363 2391 4684 2656  z "
               transform="scale(0.015625)" />
          </defs>
          <use
             xlink:href="#DejaVuSans-Bold-223c"
             transform="translate(20.839844 0.09375)"
             id="use329" />
          <use
             xlink:href="#DejaVuSans-Bold-31"
             transform="translate(125.46875 0.09375)"
             id="use331" />
          <use
             xlink:href="#DejaVuSans-Bold-2f"
             transform="translate(195.048828 0.09375)"
             id="use333" />
          <use
             xlink:href="#DejaVuSans-BoldOblique-4e"
             transform="translate(231.572266 0.09375)"
             id="use335" />
          <use
             xlink:href="#DejaVuSans-Bold-30"
             transform="translate(315.263672 -16.3125) scale(0.7)"
             id="use337" />
        </g>
      </g>
    </g>
  </g>
  <defs
     id="defs347">
    <clipPath
       id="p1e0ebcacc0">
      <rect
         x="55.2"
         y="7.2"
         width="138.24"
         height="103.68"
         id="rect344" />
    </clipPath>
  </defs>
</svg>
